<svg width="1920" height="781" viewBox="0 0 1920 781" fill="none" xmlns="http://www.w3.org/2000/svg">
<path d="M0 17.2309V106.511L93 138.615H1913.5L1941 98.8668L1921 23.9575L1594.5 69.2088C1509 72.9798 1320 82.5397 1248 90.6115C1158 100.701 899 87.554 820.5 70.7376C742 53.9212 456.5 24.8747 391.5 17.2309C339.5 11.1159 108.833 14.683 0 17.2309Z" fill="#DCB8FF"/>
<rect y="99.7837" width="1920" height="681.217" fill="#DCB8FF"/>
<path d="M-48.4004 6.25635C88.6675 -4.26399 458.978 -8.67736 847.577 57.4575C1039.64 90.1439 1294.77 82.9787 1536.38 60.4839C1673.53 47.7149 1805.98 30.0398 1919.56 12.0542V37.3647C1806.35 55.2169 1674.83 72.7011 1538.7 85.3755C1296.56 107.92 1038.77 115.355 843.383 82.103C457.09 16.3606 88.8564 20.7952 -46.4863 31.1831L-47.4434 18.7192L-48.4004 6.25635Z" fill="#1B4E49"/>
</svg>
