<svg width="408" height="408" viewBox="0 0 408 408" fill="none" xmlns="http://www.w3.org/2000/svg">
<path d="M119.617 203.87C112.752 200.301 109.32 194.775 109.32 187.292C109.32 183.585 110.247 180.222 112.1 177.201C114.022 174.112 116.871 171.675 120.646 169.89C124.491 168.037 129.159 167.11 134.65 167.11C140.142 167.11 144.776 168.037 148.551 169.89C152.396 171.675 155.244 174.112 157.098 177.201C159.02 180.222 159.981 183.585 159.981 187.292C159.981 191.068 159.054 194.397 157.201 197.28C155.347 200.095 152.876 202.291 149.787 203.87C153.563 205.518 156.514 207.92 158.642 211.078C160.77 214.236 161.834 217.977 161.834 222.302C161.834 226.97 160.633 231.054 158.231 234.555C155.897 237.988 152.67 240.631 148.551 242.484C144.433 244.337 139.799 245.264 134.65 245.264C129.502 245.264 124.868 244.337 120.749 242.484C116.699 240.631 113.473 237.988 111.07 234.555C108.736 231.054 107.569 226.97 107.569 222.302C107.569 217.977 108.633 214.236 110.761 211.078C112.889 207.852 115.841 205.449 119.617 203.87ZM145.977 189.352C145.977 185.988 144.947 183.379 142.888 181.526C140.897 179.672 138.151 178.746 134.65 178.746C131.218 178.746 128.472 179.672 126.413 181.526C124.422 183.379 123.427 186.022 123.427 189.454C123.427 192.544 124.456 195.015 126.516 196.868C128.644 198.722 131.355 199.649 134.65 199.649C137.945 199.649 140.657 198.722 142.785 196.868C144.913 194.946 145.977 192.441 145.977 189.352ZM134.65 210.151C130.738 210.151 127.545 211.147 125.074 213.138C122.672 215.128 121.47 217.977 121.47 221.684C121.47 225.116 122.637 227.931 124.971 230.128C127.374 232.256 130.6 233.32 134.65 233.32C138.701 233.32 141.893 232.221 144.227 230.025C146.561 227.828 147.728 225.048 147.728 221.684C147.728 218.046 146.526 215.231 144.124 213.241C141.721 211.181 138.563 210.151 134.65 210.151ZM170.338 188.322C170.681 181.457 173.083 176.171 177.545 172.464C182.076 168.689 188.014 166.801 195.359 166.801C200.37 166.801 204.661 167.693 208.231 169.478C211.8 171.194 214.477 173.563 216.262 176.583C218.116 179.535 219.042 182.899 219.042 186.674C219.042 190.999 217.91 194.672 215.644 197.692C213.448 200.644 210.805 202.635 207.716 203.664V204.076C211.697 205.312 214.786 207.509 216.983 210.666C219.248 213.824 220.381 217.874 220.381 222.817C220.381 226.936 219.42 230.608 217.498 233.835C215.644 237.061 212.864 239.601 209.157 241.454C205.519 243.239 201.126 244.132 195.977 244.132C188.22 244.132 181.905 242.175 177.031 238.262C172.157 234.349 169.582 228.583 169.308 220.963H183.312C183.449 224.327 184.582 227.039 186.71 229.098C188.906 231.089 191.893 232.084 195.668 232.084C199.169 232.084 201.846 231.123 203.7 229.201C205.622 227.21 206.583 224.67 206.583 221.581C206.583 217.462 205.279 214.511 202.67 212.726C200.062 210.941 196.011 210.048 190.52 210.048H187.534V198.207H190.52C200.268 198.207 205.141 194.946 205.141 188.425C205.141 185.473 204.249 183.173 202.464 181.526C200.748 179.878 198.242 179.055 194.947 179.055C191.721 179.055 189.215 179.947 187.431 181.732C185.714 183.448 184.719 185.645 184.444 188.322H170.338ZM227.036 186.983C227.036 181.766 228.546 177.682 231.567 174.73C234.656 171.778 238.603 170.302 243.408 170.302C248.214 170.302 252.127 171.778 255.147 174.73C258.236 177.682 259.781 181.766 259.781 186.983C259.781 192.269 258.236 196.388 255.147 199.34C252.127 202.291 248.214 203.767 243.408 203.767C238.603 203.767 234.656 202.291 231.567 199.34C228.546 196.388 227.036 192.269 227.036 186.983ZM293.143 171.538L252.676 243.617H238.672L279.036 171.538H293.143ZM243.305 178.952C239.53 178.952 237.642 181.629 237.642 186.983C237.642 192.406 239.53 195.118 243.305 195.118C245.159 195.118 246.601 194.466 247.63 193.161C248.66 191.788 249.175 189.729 249.175 186.983C249.175 181.629 247.218 178.952 243.305 178.952ZM272.24 228.068C272.24 222.782 273.75 218.698 276.771 215.815C279.86 212.863 283.807 211.387 288.612 211.387C293.418 211.387 297.296 212.863 300.248 215.815C303.268 218.698 304.779 222.782 304.779 228.068C304.779 233.354 303.268 237.473 300.248 240.425C297.296 243.376 293.418 244.852 288.612 244.852C283.738 244.852 279.791 243.376 276.771 240.425C273.75 237.473 272.24 233.354 272.24 228.068ZM288.509 220.037C284.596 220.037 282.64 222.714 282.64 228.068C282.64 233.491 284.596 236.203 288.509 236.203C292.354 236.203 294.276 233.491 294.276 228.068C294.276 222.714 292.354 220.037 288.509 220.037Z" fill="#EA5036"/>
<path d="M407.075 203.881C407.075 316.481 315.948 407.761 203.537 407.761C91.1268 407.761 0 316.481 0 203.881C0 91.2804 91.1268 0 203.537 0C315.948 0 407.075 91.2804 407.075 203.881ZM54.9109 203.881C54.9109 286.103 121.453 352.758 203.537 352.758C285.621 352.758 352.164 286.103 352.164 203.881C352.164 121.658 285.621 55.0035 203.537 55.0035C121.453 55.0035 54.9109 121.658 54.9109 203.881Z" fill="#F1F1F1"/>
<path d="M179.93 29.7317C177.897 14.7054 188.46 0.679865 203.623 0.686194C240.349 0.701522 276.574 10.6599 308.349 29.7475C348.008 53.5718 378.368 90.1968 394.424 133.587C410.481 176.976 411.275 224.542 396.678 268.444C382.08 312.346 352.961 349.965 314.12 375.101C275.279 400.237 229.032 411.39 183.003 406.723C136.974 402.055 93.9082 381.845 60.9034 349.424C27.8985 317.002 6.92411 274.304 1.43672 228.365C-2.95969 191.56 2.79512 154.434 17.8259 120.924C24.0316 107.089 41.1533 103.199 54.0282 111.209C66.9031 119.219 70.5745 136.101 65.0659 150.228C56.2402 172.862 53.0455 197.453 55.96 221.852C59.967 255.397 75.2828 286.577 99.3836 310.251C123.484 333.926 154.932 348.684 188.543 352.092C222.154 355.5 255.924 347.356 284.287 329.001C312.649 310.646 333.912 283.176 344.572 251.118C355.231 219.06 354.651 184.327 342.926 152.643C331.202 120.959 309.033 94.2151 280.073 76.8182C259.009 64.1648 235.267 57.0054 211.004 55.7848C195.86 55.0229 181.963 44.758 179.93 29.7317Z" fill="#DCB8FF"/>
</svg>
