<svg width="408" height="408" viewBox="0 0 408 408" fill="none" xmlns="http://www.w3.org/2000/svg">
<path d="M407.075 203.881C407.075 316.481 315.948 407.761 203.537 407.761C91.1268 407.761 0 316.481 0 203.881C0 91.2804 91.1268 0 203.537 0C315.948 0 407.075 91.2804 407.075 203.881ZM54.9109 203.881C54.9109 286.103 121.453 352.758 203.537 352.758C285.621 352.758 352.164 286.103 352.164 203.881C352.164 121.658 285.621 55.0035 203.537 55.0035C121.453 55.0035 54.9109 121.658 54.9109 203.881Z" fill="#F1F1F1"/>
<path d="M179.93 29.7317C177.897 14.7054 188.46 0.679668 203.623 0.685888C245.813 0.703194 287.211 13.844 321.901 38.6416C364.08 68.7923 393.162 113.903 403.213 164.766C413.264 215.629 403.526 268.411 375.986 312.339C348.446 356.267 305.18 388.029 255.019 401.143C204.858 414.257 151.584 407.734 106.068 382.906C60.5526 358.077 26.2277 316.815 10.099 267.541C-6.02972 218.267 -2.74639 164.694 19.2789 117.758C37.3937 79.1557 67.063 47.4353 103.846 26.7713C117.066 19.3446 133.142 26.4059 138.724 40.5045C144.305 54.6031 137.21 70.3559 124.377 78.4322C100.458 93.4842 81.1548 115.159 68.9886 141.085C52.9054 175.359 50.5079 214.478 62.2853 250.459C74.0628 286.44 99.1274 316.57 132.364 334.7C165.6 352.83 204.502 357.594 241.13 348.017C277.759 338.441 309.352 315.248 329.462 283.171C349.573 251.095 356.684 212.552 349.344 175.411C342.005 138.27 320.768 105.329 289.969 83.3129C266.67 66.6584 239.228 57.2045 211.004 55.7846C195.86 55.0227 181.963 44.758 179.93 29.7317Z" fill="#DCB8FF"/>
<path d="M123.736 222.508C124.285 225.528 125.52 227.862 127.443 229.51C129.433 231.089 132.076 231.878 135.371 231.878C139.627 231.878 142.716 230.128 144.639 226.627C146.561 223.057 147.522 217.085 147.522 208.71C145.943 210.907 143.712 212.623 140.829 213.858C138.014 215.094 134.959 215.712 131.664 215.712C127.271 215.712 123.289 214.819 119.72 213.035C116.219 211.181 113.439 208.47 111.379 204.9C109.32 201.262 108.29 196.868 108.29 191.72C108.29 184.1 110.555 178.059 115.086 173.597C119.617 169.066 125.795 166.801 133.621 166.801C143.369 166.801 150.233 169.925 154.215 176.171C158.265 182.418 160.29 191.823 160.29 204.385C160.29 213.309 159.501 220.62 157.922 226.318C156.411 232.015 153.769 236.34 149.993 239.292C146.286 242.244 141.206 243.72 134.753 243.72C129.674 243.72 125.349 242.759 121.779 240.837C118.21 238.846 115.464 236.272 113.542 233.114C111.688 229.887 110.624 226.352 110.349 222.508H123.736ZM134.65 203.973C138.22 203.973 141.035 202.875 143.094 200.678C145.153 198.482 146.183 195.53 146.183 191.823C146.183 187.773 145.085 184.649 142.888 182.453C140.76 180.187 137.842 179.055 134.136 179.055C130.429 179.055 127.477 180.222 125.28 182.555C123.152 184.821 122.088 187.841 122.088 191.617C122.088 195.255 123.118 198.241 125.177 200.575C127.305 202.841 130.463 203.973 134.65 203.973ZM167.804 228.995V217.668L201.476 169.478H218.26V216.433H227.321V228.995H218.26V243.617H203.844V228.995H167.804ZM204.771 184.924L183.662 216.433H204.771V184.924ZM231.762 186.983C231.762 181.766 233.273 177.682 236.293 174.73C239.382 171.778 243.329 170.302 248.135 170.302C252.94 170.302 256.853 171.778 259.873 174.73C262.962 177.682 264.507 181.766 264.507 186.983C264.507 192.269 262.962 196.388 259.873 199.34C256.853 202.291 252.94 203.767 248.135 203.767C243.329 203.767 239.382 202.291 236.293 199.34C233.273 196.388 231.762 192.269 231.762 186.983ZM297.869 171.538L257.402 243.617H243.398L283.762 171.538H297.869ZM248.032 178.952C244.256 178.952 242.368 181.629 242.368 186.983C242.368 192.406 244.256 195.118 248.032 195.118C249.885 195.118 251.327 194.466 252.356 193.161C253.386 191.788 253.901 189.729 253.901 186.983C253.901 181.629 251.945 178.952 248.032 178.952ZM276.966 228.068C276.966 222.782 278.476 218.698 281.497 215.815C284.586 212.863 288.533 211.387 293.338 211.387C298.144 211.387 302.022 212.863 304.974 215.815C307.995 218.698 309.505 222.782 309.505 228.068C309.505 233.354 307.995 237.473 304.974 240.425C302.022 243.376 298.144 244.852 293.338 244.852C288.465 244.852 284.517 243.376 281.497 240.425C278.476 237.473 276.966 233.354 276.966 228.068ZM293.235 220.037C289.323 220.037 287.366 222.714 287.366 228.068C287.366 233.491 289.323 236.203 293.235 236.203C297.08 236.203 299.002 233.491 299.002 228.068C299.002 222.714 297.08 220.037 293.235 220.037Z" fill="#EA5036"/>
</svg>
