<svg width="285" height="197" viewBox="0 0 285 197" fill="none" xmlns="http://www.w3.org/2000/svg">
<path d="M196.06 45.2924C195.56 44.9366 194.697 44.1343 194.207 43.6976C194.198 43.6897 194.189 43.6817 194.18 43.6738C194.065 43.571 193.95 43.4721 193.821 43.3622C193.509 43.0981 193.084 42.7367 192.213 41.9644C191.948 41.7533 191.683 41.5419 191.418 41.33C190.428 40.5399 189.442 39.7565 188.452 38.9636C188.366 38.894 188.278 38.8241 188.191 38.7539C186.486 37.3868 184.523 36.293 182.478 35.3401C182.437 35.3223 182.394 35.3042 182.351 35.286C181.517 34.9326 180.463 34.5298 179.808 34.2496C178.976 33.8925 178.407 33.6497 177.94 33.4483C177.844 33.4114 177.747 33.3746 177.651 33.3379C177.525 33.2899 177.399 33.2421 177.273 33.1944C174.923 32.3869 172.166 32.1633 169.525 31.9272C168.617 31.8543 167.704 31.7943 166.791 31.7443C165.951 31.6984 165.109 31.6599 164.267 31.6268C163.774 31.6236 163.307 31.6262 162.876 31.6292C162.265 31.6333 161.725 31.6382 161.277 31.6293C161.261 31.629 161.245 31.6287 161.23 31.6283C161.174 31.6271 161.117 31.6258 161.061 31.6243C160.058 31.5963 158.959 31.5777 158.129 31.5996C157.983 31.6031 157.845 31.6075 157.719 31.6124C157.015 31.6704 156.318 31.7537 155.62 31.8641C155.573 31.8632 155.525 31.8622 155.477 31.8612C154.867 31.852 154.132 31.9678 152.998 32.2375C152.503 32.3567 151.936 32.5065 151.27 32.7039C150.841 32.8319 150.613 32.8687 150.423 32.8992C150.368 32.9082 150.316 32.9168 150.264 32.9273C150.086 32.9634 149.915 33.0522 149.715 33.1591C149.456 33.2978 149.148 33.4668 148.705 33.6012C147.293 34.0374 146.748 34.4281 146.34 34.7062C146.221 34.7892 146.112 34.8649 145.998 34.935C145.627 35.1615 145.066 35.4209 144.633 35.6066C144.289 35.7525 143.658 36.1506 143.194 36.4769C143.018 36.5997 142.769 36.7471 142.477 36.9222C142.39 36.9742 142.299 37.0287 142.205 37.0859L142.295 37.0216C142.267 37.0459 142.238 37.0704 142.21 37.0952C142.024 37.256 141.833 37.4241 141.631 37.6105C140.818 38.362 140.377 38.7551 140.026 39.0696C139.925 39.1603 139.831 39.2436 139.739 39.326C139.44 39.5928 139.073 39.91 138.693 40.2376C138.242 40.6268 137.784 41.0215 137.441 41.3271C136.51 42.0756 135.586 42.8249 134.71 43.6245C134.45 43.8625 134.139 44.1407 133.989 44.2927C133.987 44.2935 133.986 44.2937 133.986 44.2929L133.863 43.8207C133.603 43.7179 133.664 43.798 133.649 43.7867C133.651 43.7914 133.667 43.792 133.684 43.7915C133.719 43.7903 133.763 43.7848 133.807 43.7794C133.895 43.7681 133.986 43.7553 134.071 43.7422C134.532 43.6792 134.751 43.5584 134.749 43.5579C134.747 43.556 134.547 43.688 134.243 44.0395C134.184 44.1041 134.12 44.1732 134.044 44.2417C134.005 44.276 133.964 44.3101 133.911 44.3434C133.885 44.3601 133.857 44.3766 133.815 44.3928C133.761 44.3943 133.763 44.4747 133.509 44.3699C133.389 44.2774 133.327 44.1139 133.409 43.9858C133.413 43.9767 133.417 43.9678 133.422 43.9591C133.626 43.5889 133.851 43.331 134.101 43.0367C134.935 42.089 135.786 41.1873 136.657 40.2857C137.711 39.197 138.796 38.1248 139.922 37.1104C140.353 36.7215 140.796 36.3343 141.241 35.9586C141.27 35.9343 141.299 35.9099 141.328 35.8855C141.348 35.868 141.413 35.8217 141.436 35.8077C141.815 35.582 142.196 35.3592 142.579 35.1398C142.675 35.0852 142.771 35.0309 142.866 34.9768C143.62 34.4878 144.392 34.0199 144.95 33.7138C145.411 33.4607 145.766 33.3129 146.071 33.1887C146.282 33.1034 146.468 33.0296 146.651 32.9422C146.749 32.8953 146.883 32.8306 147.045 32.7537C147.706 32.4379 148.852 31.9328 149.948 31.61C150.434 31.465 151.007 31.3266 151.557 31.2119C152.343 31.0462 153.08 30.9324 153.445 30.8404C154.088 30.6765 154.837 30.5706 155.503 30.5015C156.14 30.4342 156.694 30.3988 157.006 30.3409C157.383 30.2717 157.703 30.2643 158.185 30.2638C158.517 30.2643 158.925 30.2683 159.48 30.2717C160.117 30.2765 160.569 30.3146 160.952 30.35C161.006 30.355 161.058 30.36 161.11 30.365C161.168 30.3705 161.224 30.3759 161.279 30.3809C161.665 30.4164 162.013 30.4379 162.483 30.4231C163.15 30.4025 163.838 30.402 164.386 30.4427C164.632 30.461 164.919 30.4728 165.213 30.4854C165.605 30.5022 166.014 30.5205 166.392 30.558C166.698 30.5885 166.956 30.6394 167.179 30.6844C167.249 30.6984 167.314 30.7118 167.381 30.7241C167.631 30.7381 167.871 30.7517 168.122 30.766C168.162 30.7627 168.205 30.7588 168.249 30.7548C168.469 30.7348 168.746 30.7111 169.08 30.7131C169.615 30.7168 170.075 30.7711 170.567 30.8321C170.943 30.8792 171.344 30.9308 171.8 30.9672C172.112 30.9922 172.468 31.0127 172.82 31.0362C173.346 31.0711 173.865 31.1145 174.22 31.1776C174.354 31.2013 174.469 31.2407 174.578 31.2798C174.579 31.28 174.579 31.2803 174.579 31.2805C174.587 31.2831 174.594 31.2858 174.602 31.2884C175.481 31.4032 176.354 31.5372 177.244 31.7735C177.324 31.7907 177.4 31.8079 177.479 31.8272C177.566 31.8485 177.651 31.8704 177.732 31.8923C177.871 31.9295 178.005 31.9648 178.127 31.9948C178.243 32.0231 178.348 32.0468 178.436 32.0631C178.689 32.1095 179.3 32.3026 179.943 32.5161C180.363 32.6557 180.798 32.8044 181.156 32.9208C181.365 32.9889 181.55 33.088 181.739 33.1911C181.916 33.2872 182.098 33.3868 182.307 33.4684C182.412 33.5094 182.528 33.5479 182.651 33.5895C182.76 33.6262 182.875 33.6654 182.993 33.7108C183.103 33.7531 183.339 33.87 183.639 34.0248C183.824 34.1203 184.034 34.2303 184.254 34.3459C184.854 34.6163 185.447 34.9035 186.033 35.2126C186.163 35.2618 186.281 35.2977 186.38 35.3155C186.451 35.3283 186.516 35.3323 186.583 35.3367C186.673 35.3428 186.767 35.3494 186.885 35.3806C186.976 35.405 187.074 35.4518 187.131 35.4986C187.157 35.5203 187.174 35.5419 187.19 35.5615C187.208 35.5839 187.224 35.6038 187.249 35.619C187.267 35.6299 187.29 35.6356 187.317 35.6428C187.361 35.6542 187.418 35.6693 187.491 35.7144C187.764 35.8827 188.065 36.0866 188.357 36.2946C188.681 36.5253 188.992 36.7609 189.242 36.9465C189.312 36.999 189.389 37.0593 189.47 37.1257C189.552 37.1929 189.638 37.266 189.727 37.3426C189.888 37.4813 190.054 37.6283 190.228 37.7812C190.477 38.0012 190.721 38.2174 190.941 38.4014C191.154 38.5799 191.387 38.7484 191.616 38.9138C191.887 39.1096 192.152 39.3025 192.351 39.4915C192.391 39.5298 192.428 39.5941 192.473 39.6746C192.506 39.7325 192.545 39.799 192.592 39.8697C192.864 40.0901 193.136 40.3125 193.406 40.5358C193.417 40.5407 193.43 40.5458 193.442 40.5509C193.442 40.5509 193.442 40.551 193.442 40.551C193.72 40.6668 194.096 40.8234 194.482 41.2373C194.579 41.3415 194.625 41.4228 194.667 41.4969C194.71 41.5705 194.747 41.6362 194.823 41.707C194.908 41.7874 195.025 41.8623 195.151 41.944C195.332 42.0627 195.53 42.1923 195.69 42.3686C195.702 42.3808 195.714 42.394 195.726 42.4076C195.846 42.5381 196.013 42.7231 196.168 42.9391C196.721 43.4496 197.267 43.9731 197.798 44.5198C198.673 45.4362 199.552 46.3791 200.205 47.5954C200.52 48.1847 200.667 48.9463 200.449 49.4857C200.432 49.5293 200.414 49.5703 200.394 49.6084C200.394 49.6092 200.394 49.6099 200.393 49.6107C200.336 49.7321 200.249 49.8645 200.117 49.9423C199.985 50.0206 199.864 50.0078 199.799 49.9826C199.666 49.9267 199.631 49.8429 199.626 49.7667C199.62 49.6884 199.692 49.6123 199.726 49.5337C199.772 49.4191 199.567 49.5122 199.552 49.4304C199.552 49.43 199.552 49.4295 199.552 49.429C199.545 49.406 199.538 49.3825 199.531 49.3585C199.446 49.0788 199.268 48.7129 198.996 48.2645C198.55 47.5352 197.897 46.8467 197.217 46.1863C197.18 46.1536 197.142 46.1206 197.105 46.0874C196.825 45.8383 196.544 45.6341 196.259 45.4326C196.193 45.3861 196.124 45.337 196.06 45.2924Z" fill="black"/>
<path d="M207.806 84.4704C207.705 84.5494 207.577 84.639 207.44 84.7241C207.22 84.8624 206.963 84.9994 206.687 85.1214C205.839 85.5029 204.834 85.7426 204.186 85.8579C204.168 85.8613 204.15 85.8646 204.132 85.8679C203.897 85.9099 203.676 85.9483 203.417 85.9879C202.871 86.0679 202.15 86.17 200.794 86.1976C200.576 86.2028 200.342 86.1911 200.1 86.1565C200.049 86.1507 199.998 86.144 199.948 86.1364C199.377 86.0511 198.856 85.8564 198.396 85.6316C197.316 85.0898 196.483 84.4377 195.629 83.8588C195.501 83.7709 195.369 83.6915 195.232 83.6209C194.587 83.287 193.826 83.1609 193.058 83.2208C192.95 83.229 192.84 83.2491 192.726 83.2816C191.66 83.5921 190.592 84.9043 189.723 86.1932C189.647 86.3042 189.579 86.4171 189.515 86.5346C189.109 87.2759 188.957 88.1634 188.994 89.1026C188.998 89.1615 189.002 89.2216 189.007 89.2825C189.054 89.8358 189.172 90.4632 189.318 91.0772C189.344 91.1883 189.375 91.2939 189.409 91.3945C189.553 91.8227 189.779 92.1634 190.002 92.4312C190.689 93.2207 191.466 93.6462 192.049 94.0036C193.027 94.5356 194.077 95.0152 195.128 95.5049C195.234 95.5539 195.334 95.6024 195.438 95.655C197.299 96.5182 198.768 98.3843 199.319 100.265C199.359 100.379 199.388 100.495 199.408 100.612C199.547 101.731 199.012 102.487 198.598 103.146C198.549 103.22 198.499 103.289 198.445 103.358C198.363 103.464 198.274 103.565 198.179 103.659C196.978 104.819 195.405 104.878 194.097 104.918C193.85 104.923 193.606 104.922 193.366 104.922C193.297 104.922 193.229 104.921 193.161 104.919C192.191 104.887 191.304 104.701 190.473 104.664C189.867 104.649 189.332 104.725 188.888 104.898C188.858 104.91 188.829 104.922 188.801 104.934C188.791 104.939 188.781 104.943 188.771 104.947C188.176 105.215 187.807 105.703 187.53 106.169C186.922 107.202 186.483 108.688 186.073 109.853C186.063 109.88 186.054 109.907 186.046 109.935C186.023 110.009 186.003 110.084 185.987 110.159C185.949 110.327 185.927 110.494 185.914 110.652C185.877 111.543 186.069 112.513 186.317 113.466C186.326 113.532 186.334 113.598 186.343 113.666C186.453 114.515 186.769 115.523 187.307 117.131C187.534 117.834 187.822 118.639 188.049 119.68C188.049 119.684 188.05 119.688 188.051 119.692C188.058 119.724 188.063 119.756 188.068 119.788C188.153 120.746 187.721 121.09 187.539 121.321C187.469 121.394 187.409 121.452 187.342 121.514C187.121 121.719 186.907 121.943 186.649 122.178C186.311 122.485 185.878 122.819 185.254 123.106C183.256 123.985 182.434 124.395 181.818 124.764C181.638 124.868 181.474 124.963 181.303 125.051C180.748 125.338 179.933 125.67 179.318 125.92C179.053 126.027 178.66 126.225 178.26 126.458C178.19 126.5 178.108 126.552 178.036 126.603C177.812 126.758 177.597 126.939 177.406 127.115C177.193 127.31 176.897 127.568 176.56 127.894C176.21 128.231 175.815 128.641 175.424 129.107C174.439 130.292 173.963 130.972 173.574 131.507C173.463 131.662 173.363 131.804 173.262 131.949C172.944 132.405 172.553 132.973 172.17 133.558C171.712 134.257 171.266 134.979 170.945 135.539C170.539 136.17 170.146 136.809 169.767 137.456C169.757 137.473 169.747 137.489 169.738 137.505C169.655 137.654 169.622 137.778 169.62 137.855C169.621 137.939 169.621 137.975 169.719 138.221L169.658 138.099C169.666 138.113 169.675 138.127 169.683 138.142C169.813 138.358 170.016 138.595 170.247 138.822C170.58 139.151 170.945 139.483 171.268 139.801C171.274 139.805 171.29 139.817 171.295 139.821C171.303 139.83 171.311 139.838 171.319 139.846C171.543 140.082 171.654 140.418 171.719 140.689C171.858 141.428 172.025 141.712 172.035 141.71C172.039 141.712 171.814 141.423 171.167 141.201C170.929 141.111 170.667 141.05 170.441 140.92C170.433 140.915 170.424 140.91 170.416 140.905L170.438 140.922C170.02 140.689 169.567 140.391 169.135 140C168.836 139.726 168.54 139.424 168.282 139.034C168.264 139.008 168.247 138.981 168.23 138.953C168.219 138.933 168.188 138.872 168.179 138.85C168.075 138.624 167.923 138.19 167.95 137.783C167.968 137.372 168.102 137.018 168.251 136.723C168.268 136.691 168.285 136.66 168.302 136.628C168.702 135.894 169.121 135.171 169.558 134.459C170.696 132.604 171.944 130.815 173.342 129.13C174.331 127.954 175.352 126.815 176.632 125.81C176.765 125.708 176.905 125.606 177.046 125.511C177.112 125.462 177.183 125.411 177.251 125.365C177.345 125.301 177.456 125.23 177.558 125.17C178.519 124.602 179.463 124.131 180.156 123.799C180.822 123.48 181.32 123.287 181.743 123.119C182.034 123.004 182.291 122.902 182.543 122.784C182.679 122.72 182.861 122.632 183.082 122.524C183.94 122.088 185.607 121.306 186.376 120.467C186.552 120.263 186.612 120.126 186.613 120.011C186.613 120.004 186.613 119.996 186.612 119.988C186.566 119.697 186.501 119.391 186.43 119.086C186.18 118.04 185.888 117.038 185.713 116.545C185.399 115.678 185.102 114.649 184.899 113.711C184.7 112.818 184.602 112.004 184.538 111.53C184.466 110.966 184.459 110.456 184.658 109.69C184.671 109.645 184.684 109.599 184.699 109.553C184.712 109.51 184.727 109.466 184.743 109.422C184.886 109.03 185.051 108.554 185.27 107.933C185.573 107.079 185.851 106.473 186.135 105.973C186.549 105.28 186.904 104.731 187.705 104.128C187.892 103.994 188.097 103.878 188.31 103.784C188.369 103.759 188.428 103.734 188.489 103.712C189.246 103.426 190.034 103.403 190.634 103.454C191.008 103.484 191.423 103.534 191.839 103.585C192.305 103.643 192.773 103.699 193.198 103.721C193.256 103.724 193.313 103.727 193.369 103.729C193.39 103.73 193.41 103.73 193.43 103.731C193.866 103.747 194.217 103.779 194.528 103.797C194.625 103.803 194.717 103.807 194.807 103.809C195.14 103.784 195.468 103.743 195.782 103.675C195.832 103.658 195.884 103.64 195.937 103.619C196.203 103.517 196.517 103.376 196.838 103.162C197.091 102.992 197.291 102.808 197.455 102.599C197.49 102.555 197.521 102.512 197.552 102.466C197.694 102.255 197.825 102.045 197.933 101.832C198.108 101.492 198.227 101.124 198.175 100.825C198.167 100.778 198.155 100.733 198.138 100.688C198.127 100.659 198.117 100.63 198.105 100.6C197.956 100.202 197.761 99.7735 197.527 99.3837C197.185 98.8015 196.746 98.3227 196.423 98.005C196.303 97.8856 196.206 97.7709 196.108 97.661C196.107 97.6605 196.107 97.66 196.106 97.6595C196.1 97.6519 196.093 97.6444 196.086 97.6369C195.703 97.3462 195.28 97.0994 194.835 96.8921C194.744 96.8501 194.657 96.8113 194.564 96.772C194.011 96.5365 193.457 96.2992 192.905 96.0531C192.805 96.0136 192.701 95.9714 192.602 95.931C192.111 95.732 191.63 95.5215 191.309 95.3949C190.961 95.252 190.109 94.8498 189.262 94.1626C188.708 93.7175 188.191 93.0965 187.897 92.5125C187.806 92.338 187.738 92.1595 187.685 91.9781C187.638 91.814 187.604 91.6484 187.578 91.4803C187.577 91.4767 187.577 91.4731 187.576 91.4694C187.535 91.18 187.496 90.8801 187.434 90.5527C187.403 90.3887 187.365 90.2112 187.329 90.0189C187.297 89.8499 187.268 89.6688 187.246 89.4768C187.227 89.2985 187.209 88.8963 187.249 88.3719C187.274 88.0482 187.324 87.6778 187.412 87.2926C187.514 86.753 187.691 86.2157 187.945 85.7152C188.033 85.5425 188.129 85.3759 188.234 85.2128C188.382 84.9807 188.536 84.7488 188.696 84.5185C188.795 84.3441 188.877 84.188 188.934 84.0561C188.974 83.9616 189.003 83.8758 189.034 83.7875C189.077 83.6675 189.122 83.5428 189.209 83.3867C189.277 83.2647 189.378 83.1346 189.46 83.0602C189.499 83.0257 189.533 83.0031 189.564 82.9827C189.6 82.9594 189.632 82.9387 189.662 82.9061C189.685 82.8825 189.703 82.8529 189.726 82.8169C189.763 82.7596 189.812 82.6845 189.909 82.5909C190.27 82.2427 190.733 81.8657 191.292 81.5727C191.551 81.4369 191.831 81.3212 192.118 81.2388C192.374 81.1645 192.636 81.118 192.885 81.0987C192.998 81.09 193.107 81.084 193.21 81.0802C193.771 81.0558 194.589 81.1488 195.359 81.4401C195.639 81.5441 195.911 81.6706 196.162 81.8096C196.384 81.9327 196.59 82.0658 196.774 82.1981C196.78 82.2023 196.785 82.2066 196.791 82.2108C197.116 82.4455 197.458 82.6724 197.784 82.8836C198.176 83.1375 198.544 83.3647 198.833 83.562C198.892 83.6023 198.953 83.6701 199.031 83.7521C199.087 83.8105 199.151 83.8763 199.228 83.9429C199.572 84.1144 199.907 84.236 200.233 84.2884C200.271 84.2945 200.308 84.2997 200.345 84.304C200.358 84.3017 200.372 84.2993 200.385 84.2968C200.385 84.2967 200.386 84.2966 200.386 84.2966C200.484 84.2776 200.59 84.2504 200.706 84.2183C201.038 84.1467 201.443 84.0857 201.951 84.0859C202.141 84.0858 202.264 84.1056 202.374 84.123C202.483 84.14 202.58 84.1546 202.718 84.142C202.875 84.1275 203.056 84.0833 203.251 84.0316C203.525 83.9589 203.826 83.871 204.136 83.8299C204.157 83.8271 204.179 83.8241 204.203 83.8208C204.428 83.7899 204.758 83.7368 205.091 83.6956C205.386 83.6089 205.676 83.5103 205.956 83.3982C206.17 83.3128 206.379 83.2216 206.583 83.1228C206.954 82.9437 207.332 82.7156 207.704 82.4665C209.09 81.5272 210.398 80.3372 211.588 79.0633C211.698 78.9463 211.793 78.8452 211.904 78.7304C211.963 78.6696 212 78.6283 212.094 78.5441C212.101 78.5377 212.109 78.5311 212.119 78.5236C212.136 78.5155 212.106 78.5139 212.246 78.4528C212.284 78.441 212.345 78.419 212.454 78.4404C212.563 78.4567 212.693 78.5727 212.724 78.6665C212.771 78.8005 212.751 78.8288 212.75 78.8699C212.738 78.9381 212.726 78.9581 212.717 78.9802C212.691 79.0349 212.686 79.0384 212.669 79.0666C212.644 79.1073 212.626 79.1317 212.599 79.1714C212.595 79.1777 212.589 79.1849 212.584 79.1929C212.357 79.555 212.158 80.0069 211.984 80.3355C211.707 80.8728 211.514 81.1674 211.41 81.1368C211.307 81.1077 211.303 80.7446 211.432 80.1387C211.522 79.752 211.617 79.3195 211.883 78.7771C211.891 78.7623 211.899 78.7475 211.908 78.7329C211.928 78.6975 211.941 78.6742 211.952 78.6507C211.958 78.6403 211.964 78.6244 211.952 78.6485C211.947 78.662 211.936 78.6762 211.923 78.7515C211.922 78.7973 211.898 78.8294 211.953 78.9879C211.989 79.099 212.145 79.2378 212.275 79.2573C212.404 79.2827 212.475 79.2565 212.519 79.2432C212.675 79.1745 212.627 79.1828 212.644 79.1761C212.65 79.1719 212.652 79.1696 212.654 79.1686C212.647 79.179 212.586 79.2494 212.542 79.3029C212.447 79.4186 212.359 79.528 212.257 79.6518C211.369 80.7346 210.484 81.8541 209.467 82.8911C209.414 82.9469 209.361 83.0025 209.308 83.0575C208.911 83.466 208.534 83.8542 208.109 84.2216C208.013 84.305 207.91 84.3895 207.806 84.4704Z" fill="black"/>
<path d="M115.295 108.377C115.484 108.362 115.709 108.375 115.934 108.41C116.228 108.454 116.524 108.527 116.781 108.599C116.971 108.652 117.148 108.711 117.287 108.761C117.296 108.764 117.306 108.767 117.315 108.77C117.432 108.813 117.543 108.852 117.674 108.901C117.904 108.989 118.197 109.102 118.66 109.356C118.804 109.435 118.97 109.532 119.152 109.645C119.377 109.764 119.603 109.891 119.82 110.021C122.168 111.446 124.108 113.267 125.952 115.132C125.976 115.154 126.001 115.177 126.026 115.2C126.51 115.647 127.099 116.207 127.437 116.589C127.865 117.073 128.146 117.41 128.376 117.685C128.518 117.836 128.668 117.993 128.805 118.132C128.805 118.133 128.806 118.134 128.807 118.134C130.033 119.38 131.515 120.418 133.103 121.243C133.66 121.531 134.231 121.793 134.813 122.024C135.309 122.222 135.813 122.399 136.323 122.553C136.364 122.566 136.404 122.578 136.445 122.59C136.716 122.654 136.978 122.707 137.224 122.75C137.275 122.759 137.326 122.768 137.375 122.777C137.79 122.848 138.161 122.905 138.466 122.963C139.2 123.104 140.034 123.306 140.661 123.467C140.764 123.493 140.86 123.518 140.95 123.541C141.456 123.638 141.968 123.743 142.484 123.873C142.515 123.89 142.548 123.908 142.58 123.926C142.751 124.021 142.945 124.107 143.173 124.198C143.42 124.298 143.709 124.405 144.052 124.554C144.146 124.594 144.247 124.641 144.348 124.69C144.706 124.864 145.099 125.089 145.531 125.387C145.807 125.58 145.921 125.716 146.014 125.826C146.041 125.859 146.066 125.889 146.093 125.918C146.184 126.019 146.312 126.082 146.463 126.159C146.658 126.259 146.892 126.383 147.12 126.64C147.84 127.46 148.23 127.728 148.54 127.931C148.63 127.991 148.711 128.046 148.787 128.109C149.015 128.298 149.274 128.619 149.46 128.896C149.476 128.92 149.492 128.943 149.506 128.966C149.657 129.196 150.037 129.59 150.328 129.901C150.44 130.021 150.566 130.192 150.713 130.416C150.752 130.475 150.793 130.54 150.832 130.603C150.951 130.796 151.071 131.006 151.195 131.242C151.61 132.044 151.685 132.569 151.735 132.967C151.748 133.082 151.755 133.19 151.76 133.298C151.775 133.637 151.74 134.06 151.658 134.462C151.561 134.945 151.409 135.395 151.302 135.722C151.165 136.038 151.024 136.334 150.901 136.612C150.817 136.803 150.742 136.986 150.683 137.159C150.677 137.18 150.654 137.243 150.645 137.264C150.495 137.581 150.328 137.866 150.133 138.149C150.098 138.199 150.062 138.249 150.023 138.297C149.973 138.36 149.915 138.418 149.85 138.471C149.708 138.585 149.461 138.769 149.131 138.814C148.797 138.857 148.569 138.711 148.452 138.594C148.151 138.233 148.112 138.074 148.09 138.085C148.077 138.086 148.288 138.175 148.588 138.023C148.688 137.971 148.744 137.868 148.696 137.8C148.652 137.736 148.626 137.681 148.672 137.558C148.691 137.505 148.714 137.454 148.742 137.404C148.764 137.366 148.786 137.327 148.809 137.288C148.938 137.071 149.057 136.834 149.148 136.605L149.115 136.694C149.182 136.444 149.263 136.211 149.343 135.988C149.472 135.637 149.604 135.31 149.717 134.996C150.066 134.052 150.189 133.224 149.95 132.415C149.853 132.075 149.7 131.742 149.503 131.412C149.373 131.195 149.214 130.967 149.048 130.743C149.005 130.686 148.961 130.626 148.918 130.571C148.709 130.347 148.492 130.127 148.289 129.926C148.102 129.741 147.924 129.57 147.78 129.429C147.532 129.186 147.37 128.987 147.231 128.819C147.135 128.703 147.049 128.602 146.95 128.511C146.897 128.462 146.823 128.398 146.733 128.32C146.368 128.002 145.733 127.484 145.168 127.013C144.918 126.803 144.631 126.556 144.349 126.338C144.042 126.1 143.738 125.9 143.515 125.794C143.443 125.759 143.377 125.732 143.323 125.714C143.135 125.653 142.936 125.582 142.733 125.51C142.502 125.427 142.267 125.344 142.043 125.27C141.642 125.137 141.281 125.035 141.065 125.02C140.807 125.002 140.597 124.94 140.281 124.848C140.062 124.785 139.791 124.708 139.418 124.622C138.986 124.524 138.683 124.43 138.426 124.35C138.065 124.236 137.793 124.149 137.369 124.095C137.212 124.074 137.053 124.05 136.896 124.022C136.579 123.966 136.276 123.89 136.027 123.802C135.999 123.792 135.971 123.782 135.942 123.773C135.793 123.722 135.628 123.67 135.457 123.613C135.188 123.525 134.906 123.426 134.659 123.311C134.456 123.217 134.299 123.111 134.162 123.017C134.119 122.987 134.078 122.959 134.038 122.932C133.875 122.864 133.711 122.794 133.549 122.723C133.52 122.717 133.49 122.711 133.458 122.705C133.299 122.673 133.103 122.631 132.876 122.546C132.516 122.411 132.226 122.237 131.926 122.047C131.692 121.9 131.452 121.743 131.166 121.58C130.971 121.469 130.745 121.349 130.523 121.225C130.193 121.04 129.872 120.847 129.67 120.683C129.594 120.622 129.541 120.552 129.488 120.484C129.488 120.484 129.488 120.483 129.488 120.483C129.484 120.478 129.481 120.474 129.477 120.469C128.959 120.108 128.456 119.722 127.973 119.303C127.929 119.27 127.884 119.236 127.839 119.203C127.83 119.196 127.821 119.189 127.812 119.182C127.811 119.181 127.81 119.18 127.81 119.18C127.611 119.029 127.414 118.873 127.278 118.793C127.116 118.694 126.785 118.398 126.432 118.082C126.198 117.872 125.963 117.663 125.763 117.499C125.645 117.401 125.561 117.284 125.474 117.162C125.392 117.048 125.308 116.931 125.194 116.828C125.137 116.777 125.069 116.725 124.997 116.67C124.935 116.623 124.869 116.573 124.802 116.517C124.74 116.466 124.619 116.33 124.465 116.16C124.369 116.055 124.26 115.934 124.144 115.812C123.805 115.515 123.469 115.226 123.127 114.937C123.044 114.891 122.965 114.858 122.894 114.843C122.843 114.831 122.794 114.829 122.743 114.826C122.674 114.821 122.603 114.817 122.522 114.793C122.459 114.773 122.399 114.735 122.37 114.695C122.357 114.676 122.35 114.658 122.345 114.641C122.338 114.621 122.332 114.604 122.317 114.591C122.307 114.582 122.291 114.578 122.272 114.573C122.241 114.566 122.201 114.555 122.158 114.519C121.998 114.384 121.82 114.225 121.645 114.072C121.45 113.902 121.258 113.738 121.098 113.617C120.919 113.482 120.683 113.263 120.444 113.049C120.277 112.9 120.109 112.754 119.958 112.636C119.81 112.522 119.642 112.422 119.479 112.329C119.286 112.219 119.094 112.114 118.954 111.998C118.926 111.974 118.903 111.925 118.873 111.864C118.851 111.821 118.826 111.771 118.795 111.72C118.597 111.6 118.395 111.481 118.196 111.37C118.187 111.369 118.178 111.369 118.169 111.368C118.169 111.368 118.169 111.368 118.169 111.368C118.035 111.362 117.871 111.356 117.7 111.298C117.601 111.265 117.498 111.213 117.395 111.135C117.323 111.081 117.285 111.026 117.251 110.976C117.217 110.927 117.187 110.884 117.129 110.853C117.064 110.818 116.979 110.803 116.882 110.787C116.748 110.765 116.607 110.747 116.477 110.674C116.468 110.669 116.458 110.663 116.449 110.658C116.397 110.629 116.333 110.594 116.264 110.553C116.2 110.517 116.133 110.477 116.068 110.431C115.903 110.383 115.741 110.339 115.586 110.304C115.302 110.237 115.016 110.205 114.877 110.223C114.811 110.23 114.8 110.237 114.802 110.225C114.29 110.652 113.797 111.136 113.326 111.64C113.044 111.941 112.735 112.196 112.451 112.349C112.168 112.501 111.946 112.525 111.786 112.449C111.626 112.358 111.592 112.088 111.669 111.762C111.749 111.429 111.944 111.047 112.214 110.698C112.655 110.13 113.121 109.578 113.646 109.052C113.661 109.037 113.675 109.021 113.689 109.005C113.715 108.979 113.742 108.954 113.77 108.93C114.243 108.537 114.701 108.463 115.053 108.404C115.136 108.392 115.217 108.384 115.295 108.377Z" fill="black"/>
<path d="M187.876 45.8837C187.754 46.1387 187.549 46.4087 187.318 46.6367C186.806 47.14 186.196 47.4875 185.819 47.7045C185.809 47.7103 185.799 47.7161 185.788 47.7219C185.743 47.7476 185.699 47.7725 185.654 47.7981C185.565 47.8494 185.473 47.901 185.371 47.9562C185.085 48.1081 184.723 48.2952 184.083 48.5137C183.875 48.5841 183.647 48.6535 183.376 48.7258C183.063 48.8276 182.74 48.9195 182.426 48.9985C178.979 49.8265 175.55 49.7167 172.196 49.4712C172.154 49.4695 172.112 49.4678 172.068 49.466C171.224 49.4321 170.179 49.3697 169.531 49.2851C168.707 49.178 168.152 49.091 167.699 49.0222C167.439 48.9948 167.158 48.9671 166.905 48.9464C166.9 48.946 166.894 48.9455 166.889 48.9451C164.653 48.7697 162.344 49.1066 160.146 49.77C159.375 50.0037 158.615 50.2804 157.874 50.5972C157.241 50.8679 156.623 51.1667 156.02 51.4952C155.972 51.5215 155.924 51.5477 155.876 51.5744C155.675 51.697 155.483 51.8205 155.301 51.9423C155.145 52.0469 154.995 52.1491 154.85 52.2492C154.406 52.5571 154.013 52.8407 153.682 53.0651C152.884 53.6053 151.949 54.1931 151.236 54.6217C151.12 54.6919 151.01 54.7576 150.907 54.8186C150.355 55.1848 149.791 55.545 149.198 55.8791C149.154 55.8936 149.109 55.9079 149.064 55.9221C148.827 55.9964 148.576 56.0945 148.283 56.2125C148.051 56.3061 147.793 56.412 147.493 56.5228C147.269 56.6056 147.019 56.6867 146.747 56.7607C146.262 56.8924 145.697 57.0048 145.032 57.0764C144.605 57.1213 144.382 57.0939 144.201 57.0731C144.148 57.0667 144.099 57.0606 144.049 57.0561C143.876 57.0407 143.7 57.0771 143.488 57.1167C143.215 57.1677 142.883 57.2244 142.448 57.171C141.067 56.992 140.464 57.0067 139.994 57.032C139.855 57.0378 139.734 57.0424 139.605 57.0362C139.227 57.0194 138.708 56.9085 138.297 56.7824C138.262 56.7718 138.228 56.7612 138.195 56.7506C137.858 56.6438 137.164 56.5233 136.62 56.385C136.547 56.3664 136.467 56.3422 136.383 56.3133C136.215 56.2547 136.031 56.1784 135.824 56.078C135.5 55.9213 135.137 55.7116 134.764 55.4502C133.826 54.771 133.486 54.2228 133.212 53.8266C133.136 53.7101 133.07 53.5999 133.005 53.489C132.802 53.1386 132.595 52.6876 132.424 52.2322C132.218 51.6868 132.056 51.1401 131.926 50.7388C131.828 50.3287 131.737 49.9308 131.635 49.5545C131.588 49.383 131.538 49.2143 131.484 49.0554C131.477 49.0368 131.46 48.98 131.455 48.9607C131.341 48.4447 131.27 47.9438 131.237 47.4224C131.232 47.3479 131.23 47.2731 131.229 47.1983C131.229 47.133 131.233 47.0675 131.24 47.0021C131.269 46.7686 131.34 46.4512 131.548 46.1621C131.757 45.8671 132.073 45.7408 132.283 45.7244C132.837 45.7145 133.022 45.8099 133.03 45.784C133.041 45.7752 132.767 45.86 132.596 46.2203C132.465 46.5383 132.702 46.5715 132.762 46.9519C132.772 47.0022 132.781 47.0534 132.788 47.1054C132.795 47.165 132.803 47.2255 132.81 47.2867C132.861 47.7146 132.944 48.1548 133.056 48.5652L133.031 48.4851C133.108 48.6799 133.177 48.8764 133.24 49.0679C133.391 49.5263 133.514 49.9709 133.64 50.4032C134.006 51.6935 134.426 52.8758 135.195 53.7081C135.661 54.2219 136.252 54.6046 136.933 54.8699C137.023 54.9052 137.126 54.9421 137.224 54.9748C137.309 55.0035 137.392 55.0297 137.48 55.056C137.854 55.1381 138.242 55.2017 138.6 55.2524C138.933 55.2995 139.246 55.3361 139.503 55.3663C139.945 55.4177 140.266 55.4791 140.542 55.5292C140.731 55.5633 140.901 55.5916 141.072 55.6024C141.164 55.6081 141.292 55.6142 141.443 55.6195C142.066 55.6439 143.121 55.6438 144.072 55.6214C144.494 55.6132 144.983 55.603 145.444 55.5651C146.105 55.5148 146.702 55.3931 146.974 55.2722C146.988 55.2659 147.003 55.2597 147.017 55.2534C147.237 55.1588 147.471 55.0594 147.707 54.955C147.996 54.828 148.288 54.6938 148.559 54.5601C149.045 54.3206 149.466 54.0849 149.682 53.9123C149.94 53.7056 150.186 53.5692 150.551 53.3611C150.805 53.2165 151.116 53.0365 151.53 52.7728C152.007 52.4683 152.36 52.2696 152.661 52.1028C153.084 51.8679 153.404 51.6927 153.841 51.3658C154.1 51.1729 154.371 50.9829 154.636 50.8125C154.87 50.6615 155.102 50.5277 155.315 50.4213C155.348 50.4047 155.382 50.3874 155.417 50.3697C155.597 50.2776 155.792 50.1742 155.997 50.0698C156.32 49.905 156.663 49.7401 156.989 49.6154C157.256 49.513 157.49 49.4568 157.696 49.4094C157.761 49.3945 157.822 49.3806 157.882 49.3665C158.092 49.2811 158.303 49.1984 158.516 49.1179C158.548 49.0991 158.581 49.0792 158.617 49.0585C158.794 48.9547 159.014 48.8287 159.301 48.7096C159.755 48.5214 160.175 48.4179 160.618 48.3203C160.964 48.2446 161.324 48.1727 161.734 48.0744C162.013 48.0073 162.331 47.9262 162.648 47.8533C163.12 47.7444 163.591 47.6555 163.924 47.6318C164.048 47.6228 164.157 47.6356 164.265 47.6492C164.266 47.6493 164.266 47.6494 164.267 47.6495C164.274 47.6504 164.281 47.6513 164.289 47.6522C165.092 47.5544 165.904 47.5035 166.722 47.5139C166.793 47.5104 166.865 47.5076 166.936 47.5052C166.946 47.5049 166.955 47.5046 166.965 47.5044C166.971 47.5041 166.977 47.5039 166.983 47.5037C167.304 47.4935 167.627 47.4911 167.822 47.4676C168.065 47.4423 168.631 47.4649 169.237 47.489C169.635 47.5047 170.039 47.5193 170.375 47.5208C170.572 47.5217 170.748 47.5597 170.938 47.5989C171.115 47.6354 171.289 47.6719 171.49 47.6791C171.592 47.6827 171.696 47.6792 171.811 47.6754C171.912 47.672 172.019 47.6683 172.131 47.6686C172.236 47.6689 172.46 47.6953 172.758 47.7271C172.939 47.7466 173.144 47.7679 173.362 47.7865C173.934 47.7943 174.512 47.7952 175.081 47.7874C175.201 47.7672 175.305 47.7401 175.387 47.7048C175.445 47.6795 175.495 47.6491 175.546 47.618C175.615 47.5756 175.687 47.5317 175.786 47.4964C175.863 47.4688 175.955 47.4573 176.016 47.4681C176.044 47.4731 176.066 47.4829 176.086 47.4917C176.109 47.5017 176.129 47.5107 176.154 47.5101C176.172 47.5097 176.191 47.5021 176.213 47.493C176.25 47.4784 176.297 47.4595 176.369 47.4576C176.638 47.4507 176.943 47.4485 177.241 47.4424C177.573 47.4359 177.895 47.4243 178.152 47.4018C178.439 47.377 178.85 47.3719 179.258 47.3558C179.546 47.3445 179.828 47.3285 180.073 47.3022C180.311 47.2768 180.554 47.2241 180.787 47.1689C181.065 47.1032 181.334 47.0325 181.564 47.006C181.61 47.0008 181.674 47.0161 181.754 47.0346C181.811 47.0477 181.876 47.0624 181.949 47.0724C182.235 47.0027 182.525 46.9243 182.803 46.8395C182.811 46.8326 182.82 46.8256 182.829 46.8185C182.83 46.8184 182.83 46.8182 182.83 46.8181C182.96 46.7157 183.111 46.5905 183.319 46.4862C183.438 46.4263 183.572 46.3751 183.732 46.3377C183.845 46.3109 183.924 46.3138 183.996 46.3159C184.066 46.3179 184.13 46.3191 184.206 46.2889C184.294 46.2539 184.386 46.1871 184.481 46.1136C184.525 46.0792 184.571 46.0433 184.617 46.0081C184.722 45.9313 184.834 45.8586 184.957 45.8081C184.97 45.803 184.983 45.7975 184.997 45.7917C185.131 45.7361 185.323 45.6531 185.523 45.5895C185.696 45.4759 185.858 45.3578 185.994 45.2382C186.245 45.0189 186.381 44.8109 186.406 44.6613C186.408 44.6513 186.409 44.6413 186.411 44.6313C186.563 43.5641 186.643 42.465 186.68 41.3657C186.698 40.8303 186.768 40.3169 186.884 39.9333C187.001 39.5451 187.151 39.3391 187.323 39.3C187.505 39.2715 187.707 39.4971 187.861 39.884C188.016 40.2723 188.115 40.8035 188.137 41.3605C188.172 42.2686 188.177 43.177 188.134 44.0962C188.134 44.1445 188.134 44.1932 188.133 44.2416C188.13 44.4515 188.133 44.6549 188.138 44.8555C188.131 45.0949 188.085 45.3312 188.014 45.5458C187.975 45.6648 187.928 45.777 187.876 45.8837Z" fill="black"/>
<path d="M117.704 61.7925C117.342 62.7907 116.773 64.2419 116.162 65.7226C116.01 66.0914 115.857 66.4636 115.706 66.8314C115.198 68.0678 114.713 69.2609 114.352 70.1599C114.335 70.2007 114.319 70.2416 114.302 70.2824C114.09 70.8109 113.894 71.3131 113.666 71.9024C113.117 73.3075 112.401 75.2114 110.784 79.1735C110.558 79.7596 110.329 80.3455 110.097 80.9311C110.009 81.154 109.924 81.3807 109.843 81.609C109.732 81.9219 109.627 82.2387 109.53 82.5596C108.719 85.2332 108.333 88.1 108.056 90.9908C107.899 92.65 107.787 94.3239 107.686 96.0078C107.469 99.1537 107.91 102.099 109.1 105.054C109.546 106.228 110.077 107.389 110.654 108.535C112.48 112.139 114.71 115.593 117.036 118.98C117.134 119.117 117.232 119.256 117.333 119.397C117.664 119.862 118.012 120.345 118.369 120.835C118.801 121.43 119.269 122.024 119.754 122.601C121.134 124.247 122.664 125.737 123.808 126.812C126.192 129.035 127.95 130.427 129.385 131.578C129.672 131.799 129.959 132.018 130.249 132.237C130.802 132.657 131.392 133.041 132.006 133.395C135.988 135.638 140.69 136.796 145.258 138.223C145.847 138.403 146.424 138.576 147.001 138.744C149.048 139.34 151.101 139.871 153.169 140.301C155.08 140.701 156.984 140.961 158.938 141.078C159.531 141.117 160.13 141.149 160.736 141.188C162.68 141.337 164.674 140.78 166.763 140.316C167.357 140.182 167.95 140.045 168.543 139.906C168.79 139.848 169.036 139.789 169.283 139.731C172.012 139.08 174.73 138.384 177.419 137.612C179.119 137.098 180.723 136.571 182.18 136.039C182.319 135.988 182.457 135.937 182.591 135.887C183.633 135.498 184.593 135.086 185.469 134.681C186.156 134.364 186.791 134.05 187.371 133.752C190.572 132.133 193.961 129.89 196.505 127.967C196.658 127.853 196.814 127.735 196.96 127.625C196.979 127.61 196.998 127.596 197.018 127.581C197.416 127.277 197.78 126.964 198.107 126.661C199.815 125.017 201.235 123.015 202.623 120.96C202.693 120.857 202.763 120.753 202.832 120.65C202.941 120.511 203.049 120.374 203.161 120.23C203.718 119.525 204.291 118.723 205.051 117.807C206.056 116.627 206.961 114.866 207.918 112.485C208.155 111.897 208.398 111.27 208.651 110.604C208.788 110.242 208.928 109.868 209.072 109.481C209.437 108.504 209.801 107.451 210.154 106.305C210.63 104.743 210.872 103.946 211.075 103.287C211.133 103.094 211.187 102.911 211.237 102.728C211.409 102.096 211.504 101.408 211.583 100.601C211.653 99.8479 211.722 98.9764 211.753 97.974C211.762 97.579 211.779 97.1576 211.805 96.7065C211.806 96.6837 211.808 96.6609 211.809 96.6379C212.128 91.1989 212.127 88.7856 212.133 86.9596C212.136 86.4232 212.142 85.9381 212.163 85.4407C212.187 84.8476 212.237 84.1629 212.304 83.4486C212.353 82.9355 212.407 82.429 212.465 81.9114C212.545 81.1887 212.63 80.4831 212.703 79.856C212.87 78.5045 212.955 75.8498 212.5 73.9315C212.353 73.2324 212.135 72.2889 211.797 71.1875C211.783 71.1434 211.77 71.0987 211.756 71.0536C211.602 70.5566 211.425 70.0263 211.225 69.468C210.946 68.6845 210.628 67.8611 210.265 67.018C208.674 63.3803 207.54 61.6094 206.646 60.175C206.557 60.0363 206.469 59.8988 206.383 59.7673C206.216 59.5084 206.051 59.2555 205.887 59.0057C205.098 57.802 204.114 56.3167 203.077 54.8489C202.631 54.217 202.176 53.5883 201.724 52.9851C200.921 51.9111 200.128 50.9196 199.444 50.1198C197.299 47.4783 194.929 45.012 192.169 43.1815C192.162 43.1771 192.155 43.1726 192.148 43.1682C191.406 42.679 190.701 42.1403 190.027 41.5622C188.274 40.0362 186.948 38.4009 185.672 37.4721C185.667 37.4683 185.662 37.4645 185.658 37.4606C184.453 36.4568 183.681 35.9984 183.674 36.0092C183.67 36.0333 184.492 36.3304 185.956 36.9704C185.962 36.9732 185.968 36.976 185.974 36.9789C187.433 37.6524 189.301 38.8926 191.132 40.0631C191.844 40.5189 192.558 40.9594 193.279 41.411C193.285 41.4151 193.292 41.4192 193.298 41.4233C196.515 43.4551 199.158 46.1637 201.518 49.0101C202.226 49.8678 202.908 50.7438 203.569 51.6322C205.248 53.8867 206.796 56.2194 208.286 58.5726C209.175 59.9705 210.005 61.4301 210.747 62.9222C211.691 64.8186 212.508 66.7728 213.212 68.7654C213.422 69.3624 213.623 69.9623 213.809 70.5719C214.157 71.7128 214.454 72.8951 214.633 74.1132C214.694 74.528 214.741 74.9486 214.774 75.3672C215.019 77.8201 214.79 80.1629 214.662 82.1075C214.622 82.6563 214.585 83.1585 214.548 83.6459C214.532 83.8594 214.517 84.0655 214.503 84.2649C214.372 86.1142 214.262 87.4643 214.172 88.6227C214.111 89.4197 214.062 90.1268 214.037 90.843C214.024 91.2273 214.009 91.7529 213.994 92.3874C213.966 93.5435 213.941 95.0629 213.908 96.7542C213.9 97.1688 213.891 97.5933 213.881 98.0263C213.818 99.9313 213.475 101.82 213.043 103.614C212.609 105.405 211.954 107.435 211.224 109.322C211.115 109.606 211.007 109.88 210.895 110.159C210.741 110.54 210.589 110.916 210.439 111.281C209.682 113.149 208.957 114.767 208.513 115.705C208.008 116.787 207.376 117.941 206.513 118.995C205.756 119.926 205.032 120.998 204.332 121.986C204.309 122.019 204.286 122.052 204.262 122.085C202.988 123.914 201.767 125.482 201.046 126.374C200.236 127.381 199.447 128.206 198.163 129.18C198.068 129.25 197.97 129.324 197.866 129.4C197.811 129.44 197.755 129.482 197.698 129.524C196.763 130.21 195.616 131.042 194.044 132.09C192.113 133.37 190.666 134.157 189.423 134.791C188.277 135.372 187.298 135.823 186.193 136.318C185.611 136.578 184.992 136.849 184.287 137.144C183.925 137.295 183.558 137.442 183.186 137.583C181.256 138.314 179.29 138.927 177.674 139.366C176.798 139.603 175.798 139.879 174.754 140.156C173.374 140.523 171.918 140.892 170.58 141.189C170.264 141.26 169.963 141.323 169.675 141.38C168.958 141.524 168.323 141.634 167.741 141.732C167.524 141.769 167.313 141.804 167.109 141.839C167.075 141.845 167.041 141.851 167.007 141.857C166.136 142.055 165.263 142.265 164.363 142.444C164.219 142.481 164.066 142.52 163.907 142.558C163.107 142.748 162.066 142.963 160.755 142.924C160.713 142.922 160.671 142.921 160.628 142.919C158.773 142.854 157.066 142.733 155.306 142.436C154.507 142.305 153.685 142.144 152.832 141.962C152.195 141.827 151.538 141.677 150.847 141.515C149.73 141.253 148.485 140.943 147.237 140.614C147.001 140.552 146.764 140.489 146.523 140.424C145.917 140.262 145.324 140.097 144.749 139.933C143.848 139.675 143.023 139.437 142.359 139.231C141.893 139.086 141.502 138.937 141.113 138.787C141.111 138.786 141.109 138.786 141.108 138.785C141.081 138.775 141.055 138.765 141.028 138.755C137.989 137.866 134.908 136.973 131.967 135.526C131.71 135.405 131.453 135.278 131.199 135.146C131.152 135.122 131.106 135.098 131.06 135.074C130.326 134.688 129.629 134.261 129.044 133.858C128.699 133.622 128.386 133.41 128.123 133.236C127.348 132.722 125.468 131.337 123.565 129.747C122.317 128.708 121.066 127.576 120.074 126.611C119.493 126.047 118.991 125.461 118.493 124.843C118.306 124.611 118.119 124.373 117.929 124.13C117.648 123.77 117.36 123.397 117.053 123.007C116.86 122.761 116.655 122.5 116.443 122.223C116.374 122.133 116.303 122.041 116.232 121.947C115.981 121.62 115.717 121.274 115.447 120.906C115.196 120.564 114.666 119.783 114.001 118.769C113.591 118.143 113.128 117.428 112.649 116.672C111.338 114.705 110.077 112.695 108.928 110.6C108.722 110.264 108.533 109.965 108.364 109.711C108.32 109.645 108.277 109.582 108.235 109.522C108.093 109.318 107.961 109.146 107.829 108.972C107.647 108.73 107.46 108.48 107.24 108.115C107.066 107.828 106.893 107.475 106.803 107.226C106.761 107.111 106.737 107.018 106.714 106.933C106.689 106.837 106.667 106.751 106.626 106.652C106.597 106.582 106.556 106.509 106.508 106.421C106.463 106.339 106.411 106.243 106.354 106.12C106.313 106.033 106.269 105.931 106.223 105.81C105.809 104.737 105.381 103.439 105.111 102.122C104.802 100.658 104.689 99.2011 104.658 98.0614C104.639 97.426 104.655 96.6664 104.713 95.8426C104.771 95.0408 104.84 94.1708 104.918 93.2985C104.997 92.4224 105.084 91.5419 105.171 90.7269C105.204 90.4227 105.237 90.1265 105.269 89.843C105.384 88.823 105.496 87.7556 105.638 86.7179C105.809 85.4735 106.027 84.2713 106.311 83.2647C106.368 83.062 106.472 82.8162 106.607 82.5122C106.703 82.2959 106.815 82.0486 106.94 81.7671C107.049 81.4102 107.166 81.055 107.292 80.7016C107.384 80.4437 107.481 80.1862 107.583 79.9315C107.824 79.3272 108.063 78.7211 108.301 78.114C108.312 78.0707 108.324 78.026 108.335 77.9812C108.335 77.9805 108.335 77.9797 108.336 77.979C108.595 76.9652 108.944 75.5783 109.753 73.7422C109.959 73.2758 110.118 72.9929 110.261 72.7383C110.402 72.4882 110.528 72.2647 110.669 71.9203C110.828 71.5294 110.982 71.0544 111.151 70.5367C111.388 69.8098 111.656 68.9974 112.008 68.2141C112.032 68.1606 112.058 68.1031 112.085 68.0433C112.34 67.4755 112.72 66.6351 113.146 65.8181C113.149 65.8108 113.152 65.8034 113.155 65.7961C113.311 65.4217 113.468 65.047 113.627 64.6737C114.546 62.559 115.321 60.4678 116.493 58.28C116.709 57.9114 116.918 57.5395 117.333 57.1151C119.181 55.3986 121.01 53.8294 122.857 52.2107C124.127 51.1031 125.415 50.0044 126.699 48.9071C127.503 48.22 128.304 47.5609 129.059 46.9617C129.874 46.315 130.641 45.7412 131.309 45.2812C132.583 44.4058 133.452 43.9815 133.567 44.2134C133.741 44.3647 133.204 45.1166 132.167 46.2635C131.624 46.8623 130.959 47.5474 130.217 48.2743C129.531 48.9477 128.782 49.6627 128.006 50.3797C126.769 51.5242 125.534 52.6786 124.296 53.8176C122.903 55.1003 121.515 56.381 120.143 57.6697C120.02 57.7904 119.87 57.9357 119.744 58.0586C119.48 58.317 119.221 58.574 119.016 58.7967C118.732 59.1478 118.312 60.1503 118.006 60.9726C117.905 61.2416 117.803 61.5183 117.704 61.7925Z" fill="black"/>
<path d="M170.384 88.9439C170.33 89.1552 170.055 89.4225 169.905 89.5676C169.903 89.5703 169.9 89.573 169.897 89.5757C169.861 89.6104 169.831 89.6447 169.794 89.6858C169.707 89.7835 169.59 89.9149 169.306 90.156C169.238 90.2384 169.169 90.3212 169.1 90.4017C168.875 90.6641 168.645 90.9214 168.41 91.1748C168.406 91.1789 168.402 91.1831 168.398 91.1872C168.079 91.5026 167.91 92.0652 167.809 92.7854C167.808 92.7985 167.808 92.8119 167.808 92.8255C167.806 93.0249 167.809 93.2722 167.787 93.4835C167.787 93.4871 167.787 93.4907 167.786 93.4942C167.781 93.5349 167.775 93.5738 167.767 93.609C167.724 93.8069 167.704 93.9652 167.69 94.0971C167.741 94.808 168.019 95.6055 168.374 96.3663C168.376 96.372 168.379 96.3777 168.382 96.3834C168.393 96.4079 168.405 96.4323 168.417 96.4568C168.52 96.6645 168.656 96.8659 168.816 97.0536C168.962 97.2264 169.13 97.3908 169.309 97.5438C169.426 97.6188 169.545 97.6841 169.655 97.7403C169.811 97.8211 169.952 97.8867 170.062 97.9525C170.326 98.1109 170.605 98.3298 170.822 98.4882C170.857 98.5141 170.891 98.5385 170.922 98.5608C171.113 98.6537 171.308 98.7421 171.506 98.827C171.515 98.841 171.524 98.8554 171.533 98.8701C171.645 99.0534 171.851 99.155 172.178 99.3039C172.321 99.3689 172.487 99.4427 172.681 99.5356C172.806 99.5953 172.855 99.6641 172.895 99.7202C172.906 99.7367 172.917 99.7521 172.929 99.7659C172.97 99.813 173.037 99.8082 173.115 99.8022C173.216 99.7944 173.336 99.7843 173.451 99.8836C173.819 100.2 174.049 100.17 174.22 100.148C174.271 100.142 174.316 100.136 174.359 100.139C174.499 100.15 174.667 100.252 174.786 100.351C174.881 100.429 175.114 100.468 175.297 100.477C175.366 100.48 175.451 100.509 175.551 100.543C175.655 100.579 175.776 100.62 175.911 100.643C176.064 100.668 176.185 100.689 176.284 100.706L176.188 100.68C176.191 100.68 176.195 100.681 176.199 100.681C176.308 100.686 176.38 100.721 176.444 100.759C176.478 100.78 176.508 100.802 176.539 100.826C176.635 100.902 176.75 101.036 176.881 101.172C177.037 101.336 177.225 101.481 177.374 101.531C177.461 101.564 177.55 101.575 177.633 101.559C177.635 101.558 177.637 101.558 177.638 101.558C177.92 101.5 178.192 101.405 178.458 101.298C178.636 101.226 178.804 101.152 178.928 101.097C179.052 101.041 179.121 101.01 179.121 101.01C179.121 101.01 179.052 101.041 178.928 101.097C178.804 101.152 178.636 101.226 178.458 101.298C178.192 101.405 177.92 101.5 177.638 101.558C177.637 101.558 177.635 101.558 177.633 101.559C177.538 101.579 177.447 101.623 177.352 101.681C176.947 101.944 176.33 102.512 175.837 102.413C175.833 102.412 175.829 102.411 175.824 102.41C175.803 102.406 175.74 102.389 175.719 102.381C175.696 102.374 175.672 102.366 175.649 102.358C175.334 102.252 175.022 102.14 174.709 102.022C174.677 102.01 174.645 101.997 174.613 101.985C174.33 101.942 174.05 101.892 173.857 101.84C173.698 101.797 173.595 101.729 173.508 101.67C173.447 101.63 173.394 101.594 173.334 101.574C173.302 101.563 173.257 101.549 173.204 101.533C172.984 101.466 172.611 101.348 172.3 101.162C172.163 101.08 172.011 100.966 171.867 100.856C171.662 100.698 171.473 100.547 171.359 100.512C171.156 100.451 170.952 100.322 170.774 100.204C170.603 100.091 170.458 99.9901 170.351 99.9723C170.224 99.9515 170.141 99.8851 170.021 99.7849C169.939 99.7157 169.835 99.6288 169.689 99.5268C169.518 99.4071 169.414 99.3009 169.325 99.2085C169.201 99.0793 169.109 98.9801 168.922 98.8998C168.712 98.8091 168.508 98.6846 168.381 98.5461C168.323 98.4826 168.251 98.4189 168.176 98.3483C168.077 98.2552 167.976 98.1542 167.902 98.0424C167.842 97.9513 167.816 97.8547 167.795 97.7703C167.788 97.7439 167.782 97.7187 167.776 97.6949C167.723 97.6292 167.67 97.5595 167.619 97.4904C167.605 97.483 167.591 97.4754 167.576 97.4672C167.5 97.4265 167.405 97.3713 167.322 97.2801C167.247 97.1978 167.195 97.1078 167.155 97.015C167.153 97.0088 167.15 97.0026 167.148 96.9964C167.125 96.9394 167.106 96.8812 167.087 96.8214C167.049 96.7027 167.011 96.5792 166.941 96.4487C166.893 96.3596 166.829 96.2626 166.767 96.1642C166.674 96.0186 166.586 95.87 166.556 95.7531C166.545 95.7092 166.556 95.6639 166.567 95.6189C166.567 95.6187 166.567 95.6185 166.567 95.6183C166.568 95.6152 166.569 95.6122 166.569 95.6091C166.447 95.3453 166.333 95.0717 166.236 94.7821C166.223 94.758 166.21 94.7336 166.197 94.7093C166.136 94.5901 166.08 94.4699 166.022 94.3924C165.959 94.3092 165.893 94.0783 165.852 93.8149C165.829 93.6774 165.814 93.5316 165.802 93.3987C165.801 93.3952 165.801 93.3916 165.8 93.388C165.797 93.367 165.794 93.3463 165.791 93.3263C165.779 93.2579 165.81 93.1941 165.842 93.1277C165.872 93.0659 165.902 93.0019 165.902 92.9291C165.901 92.8926 165.893 92.8527 165.885 92.8094C165.878 92.7715 165.871 92.7309 165.868 92.6886C165.866 92.6493 165.889 92.5634 165.921 92.4521C165.941 92.3832 165.965 92.3047 165.988 92.2214C166.006 91.9958 166.037 91.7632 166.087 91.5253C166.078 91.471 166.062 91.4208 166.037 91.3766C166.018 91.3449 165.994 91.3151 165.97 91.284C165.936 91.2417 165.903 91.1972 165.883 91.1424C165.867 91.0995 165.872 91.0548 165.893 91.0312C165.903 91.0202 165.917 91.0138 165.929 91.008C165.943 91.0013 165.955 90.9955 165.959 90.9844C165.962 90.9763 165.958 90.9655 165.953 90.9522C165.946 90.9309 165.937 90.9029 165.949 90.8701C165.997 90.748 166.066 90.6122 166.142 90.4815C166.226 90.3359 166.318 90.1971 166.389 90.0836C166.455 89.9763 166.573 89.8477 166.707 89.7276C166.712 89.724 166.716 89.7204 166.72 89.7169C166.734 89.7057 166.748 89.6945 166.763 89.6833C166.844 89.6185 166.925 89.5536 166.989 89.4921C167.05 89.4323 167.098 89.3539 167.142 89.2786C167.196 89.1881 167.249 89.1004 167.322 89.0521C167.337 89.0422 167.374 89.0454 167.42 89.0496C167.453 89.0525 167.49 89.0557 167.528 89.0551C167.598 88.9734 167.67 88.8913 167.741 88.8107C167.741 88.8051 167.74 88.7994 167.74 88.7937C167.74 88.7935 167.74 88.7934 167.74 88.7933C167.724 88.6634 167.704 88.4858 167.873 88.4071C167.917 88.3867 167.962 88.3896 168.004 88.3922C168.044 88.3948 168.08 88.3971 168.105 88.3771C168.133 88.3547 168.146 88.3087 168.159 88.2596C168.178 88.1906 168.198 88.1134 168.27 88.0782C168.274 88.0758 168.28 88.0733 168.285 88.0706C168.336 88.0454 168.412 88.0065 168.513 87.9906C168.675 87.8259 168.838 87.6631 169.002 87.5012C169.274 87.2315 169.548 86.9642 169.811 86.6964C169.938 86.5665 170.11 86.4883 170.297 86.4733C170.483 86.4612 170.672 86.5035 170.847 86.5884C171.024 86.67 171.136 86.8618 171.17 87.0694C171.203 87.2799 171.16 87.4903 171.056 87.6595C170.886 87.9345 170.716 88.1986 170.542 88.4609C170.535 88.4759 170.528 88.4909 170.521 88.5058C170.464 88.6175 170.434 88.7389 170.405 88.86C170.398 88.8879 170.391 88.9159 170.384 88.9439Z" fill="black"/>
<path d="M161.059 64.4876C161.059 64.6404 160.9 64.8264 160.814 64.9341C160.813 64.9361 160.811 64.938 160.809 64.94C160.789 64.965 160.773 64.9907 160.754 65.0211C160.709 65.0933 160.647 65.1893 160.487 65.3776C160.456 65.4414 160.426 65.5037 160.395 65.5671C160.2 65.9649 160.012 66.3646 159.842 66.7741C159.842 66.775 159.842 66.776 159.841 66.777C159.73 67.0397 159.638 67.3176 159.569 67.6089C159.568 67.618 159.568 67.6272 159.567 67.6366C159.555 67.8173 159.556 68.0424 159.524 68.1851C159.482 68.3673 159.451 68.4944 159.424 68.6007C159.388 69.2026 159.443 69.8311 159.591 70.4433C159.638 70.6352 159.694 70.8256 159.759 71.0133C159.819 71.186 159.886 71.357 159.96 71.5253C160.018 71.6175 160.079 71.7019 160.137 71.7798C160.217 71.8897 160.291 71.9844 160.34 72.0691C160.457 72.2716 160.543 72.523 160.611 72.7104C160.622 72.7409 160.633 72.7696 160.643 72.796C160.728 72.9298 160.815 73.0598 160.905 73.1897C160.903 73.2026 160.901 73.2158 160.899 73.2291C160.874 73.3962 160.958 73.54 161.097 73.7615C161.157 73.8566 161.229 73.9686 161.307 74.102C161.358 74.1887 161.351 74.2537 161.346 74.3072C161.344 74.3228 161.343 74.338 161.343 74.3521C161.344 74.4005 161.392 74.4202 161.448 74.4424C161.52 74.4708 161.607 74.5052 161.628 74.6154C161.692 74.9403 161.845 75.0131 161.965 75.0484L161.87 74.9513C161.875 74.9516 161.879 74.9519 161.883 74.9521C161.889 74.9525 161.895 74.9529 161.901 74.9532C161.94 74.9554 161.974 74.9571 162.003 74.9662C162.098 74.9955 162.179 75.1044 162.23 75.2046C162.27 75.2844 162.424 75.3472 162.551 75.3748C162.6 75.3853 162.651 75.4199 162.712 75.46C162.775 75.5015 162.848 75.5491 162.939 75.5815C163.166 75.6627 163.287 75.7035 163.384 75.7368C163.412 75.7461 163.438 75.755 163.463 75.7635C163.512 75.7795 163.566 75.7997 163.624 75.8216C163.625 75.822 163.626 75.8223 163.627 75.8227C163.664 75.8372 163.702 75.8547 163.738 75.8746C163.849 75.9345 163.949 76.0181 164.024 76.0833C164.187 76.3176 164.332 76.602 164.519 76.8347C164.614 76.9553 164.716 77.0714 164.81 77.1155C164.904 77.163 164.965 77.1355 164.963 77.1361C164.962 77.1349 164.918 77.1648 164.814 77.2112C164.711 77.2564 164.55 77.3168 164.38 77.3511C164.039 77.4162 163.683 77.4631 163.352 77.4476C163.163 77.438 162.983 77.4057 162.825 77.3358C162.824 77.3353 162.823 77.3349 162.822 77.3344C162.644 77.2554 162.469 77.1681 162.299 77.071C162.074 76.9422 161.854 76.801 161.642 76.6474C161.62 76.6316 161.598 76.6156 161.577 76.5995C161.367 76.5163 161.16 76.4193 161.026 76.3343C160.953 76.2883 160.903 76.2371 160.864 76.1876C160.862 76.1843 160.859 76.181 160.857 76.1778C160.824 76.1508 160.738 76.0631 160.712 76.0298C160.701 76.0053 160.692 75.9814 160.683 75.9586C160.662 75.9062 160.644 75.8593 160.612 75.8212C160.595 75.8002 160.572 75.7748 160.544 75.7426C160.426 75.6101 160.234 75.3844 160.126 75.1308C160.079 75.0214 160.038 74.8785 160.004 74.7476C159.953 74.5566 159.912 74.3813 159.852 74.3132C159.75 74.196 159.683 74.0279 159.628 73.8818C159.575 73.7408 159.531 73.6182 159.467 73.568C159.391 73.5078 159.371 73.4327 159.343 73.3218C159.323 73.2447 159.299 73.1494 159.252 73.0296C159.197 72.8903 159.178 72.7822 159.163 72.6909C159.142 72.5619 159.127 72.4657 159.031 72.3533C158.924 72.2276 158.834 72.086 158.803 71.958C158.789 71.8999 158.764 71.8372 158.738 71.7713C158.704 71.6843 158.67 71.5919 158.658 71.501C158.648 71.426 158.665 71.3559 158.68 71.2942C158.685 71.275 158.689 71.2566 158.693 71.239C158.675 71.1835 158.657 71.1278 158.639 71.0721C158.63 71.0648 158.621 71.0572 158.611 71.0492C158.563 71.0093 158.505 70.9594 158.463 70.8878C158.396 70.7744 158.388 70.66 158.381 70.5401C158.376 70.4465 158.371 70.3499 158.342 70.2442C158.322 70.1721 158.29 70.092 158.259 70.0118C158.213 69.8925 158.171 69.7727 158.171 69.6847C158.171 69.6517 158.189 69.6202 158.208 69.5894C158.208 69.5893 158.208 69.5891 158.208 69.589C158.21 69.5869 158.211 69.5848 158.212 69.5827C158.164 69.377 158.12 69.1686 158.084 68.9576C158.077 68.9396 158.07 68.9214 158.063 68.9033C158.028 68.8148 157.997 68.7278 157.956 68.6714C157.912 68.6102 157.883 68.4509 157.859 68.2805C157.843 68.1686 157.83 68.0523 157.812 67.956C157.801 67.8996 157.828 67.8476 157.856 67.7949C157.881 67.7458 157.909 67.696 157.908 67.6391C157.908 67.6106 157.901 67.579 157.895 67.5452C157.889 67.5154 157.883 67.4838 157.881 67.4511C157.879 67.4207 157.899 67.3558 157.928 67.2734C157.945 67.2224 157.965 67.1648 157.985 67.1043C157.999 66.9379 158.02 66.7711 158.049 66.6043C158.038 66.5652 158.02 66.529 157.994 66.4966C157.975 66.4734 157.951 66.4513 157.926 66.4285C157.893 66.3974 157.859 66.3648 157.836 66.326C157.817 66.2957 157.815 66.2652 157.831 66.2499C157.839 66.2428 157.85 66.239 157.86 66.2355C157.871 66.2315 157.881 66.228 157.883 66.2205C157.885 66.2151 157.88 66.2075 157.874 66.1982C157.866 66.185 157.855 66.1682 157.857 66.1493C157.857 66.148 157.858 66.1467 157.858 66.1454C157.858 66.1444 157.858 66.1435 157.859 66.1425C157.88 66.0667 157.913 65.9845 157.946 65.9044C157.984 65.8144 158.021 65.7292 158.042 65.6565C158.066 65.5754 158.133 65.4734 158.202 65.3725C158.249 65.303 158.298 65.2325 158.333 65.1706C158.367 65.1103 158.383 65.0374 158.399 64.968C158.419 64.8852 158.439 64.8034 158.489 64.7515C158.499 64.7409 158.532 64.7375 158.573 64.7336C158.601 64.7307 158.635 64.727 158.667 64.7206C158.705 64.6424 158.745 64.5667 158.787 64.4903C158.785 64.4859 158.783 64.4813 158.781 64.4767C158.781 64.4766 158.781 64.4765 158.781 64.4764C158.734 64.3734 158.674 64.2265 158.804 64.1412C158.837 64.1191 158.878 64.1165 158.914 64.1143C158.95 64.1121 158.982 64.1104 158.999 64.0914C159.019 64.0699 159.02 64.0312 159.021 63.9888C159.023 63.9291 159.025 63.864 159.081 63.8281C159.085 63.8256 159.089 63.8231 159.093 63.8203C159.133 63.7943 159.192 63.7581 159.278 63.7379C159.389 63.5916 159.507 63.4475 159.629 63.3092C159.834 63.0792 160.052 62.8584 160.292 62.6463C160.41 62.543 160.581 62.4873 160.765 62.5064C160.944 62.5224 161.162 62.6131 161.189 62.8011C161.235 62.9807 161.382 63.0951 161.416 63.2419C161.462 63.3821 161.451 63.5144 161.389 63.6149C161.287 63.7787 161.187 63.9587 161.093 64.1381C161.089 64.1488 161.086 64.1596 161.083 64.1702C161.056 64.2498 161.057 64.3384 161.058 64.4267C161.058 64.4469 161.059 64.4673 161.059 64.4876Z" fill="black"/>
<path d="M143.386 82.3162C143.357 82.5972 143.102 83.0463 142.966 83.292C142.963 83.2966 142.961 83.3012 142.958 83.3058C142.925 83.3661 142.898 83.4211 142.866 83.4881C142.789 83.6487 142.685 83.8638 142.426 84.2964C142.37 84.4288 142.312 84.5637 142.254 84.6971C141.809 85.7187 141.348 86.7355 140.895 87.7576C140.84 87.8826 140.784 88.0086 140.728 88.1356C140.62 88.3736 140.53 88.6299 140.459 88.8956C140.456 88.9126 140.453 88.9299 140.451 88.9475C140.396 89.2845 140.374 89.7169 140.336 89.995C140.285 90.3466 140.258 90.5969 140.237 90.8016C140.245 91.9747 140.464 93.1883 140.821 94.3619C140.933 94.7302 141.06 95.0954 141.199 95.456C141.328 95.7875 141.467 96.1174 141.615 96.4417C141.718 96.6249 141.821 96.7925 141.92 96.9505C142.057 97.1693 142.183 97.3642 142.274 97.5288C142.289 97.5559 142.304 97.5833 142.319 97.6109C142.522 97.9915 142.711 98.4235 142.862 98.7506C142.887 98.8062 142.913 98.8623 142.936 98.9118C143.03 99.0634 143.127 99.2185 143.223 99.3656L143.002 99.1205C143.107 99.1888 143.212 99.2552 143.317 99.3214C143.329 99.3397 143.341 99.3584 143.353 99.3775C143.501 99.6141 143.768 99.7948 144.193 100.059C144.378 100.174 144.595 100.305 144.848 100.461C145.011 100.561 145.076 100.647 145.129 100.718C145.144 100.739 145.159 100.759 145.174 100.776C145.228 100.838 145.315 100.851 145.416 100.866C145.548 100.884 145.705 100.905 145.858 101.038C146.347 101.462 146.652 101.474 146.874 101.483C146.94 101.485 146.997 101.486 147.055 101.497C147.238 101.533 147.462 101.664 147.628 101.782C147.759 101.877 148.065 101.941 148.303 101.96C148.393 101.967 148.505 102.001 148.64 102.038C148.776 102.076 148.938 102.118 149.112 102.135C149.253 102.148 149.372 102.156 149.472 102.16C149.688 102.17 149.828 102.174 149.944 102.176C149.993 102.177 150.039 102.177 150.082 102.177C150.087 102.177 150.091 102.177 150.096 102.177L149.992 102.178C150.138 102.162 150.306 102.148 150.471 102.129C150.674 102.106 150.876 102.074 151.029 102.036C151.452 102.009 151.922 101.908 152.408 101.727C152.658 101.636 152.921 101.548 153.101 101.461C153.284 101.376 153.363 101.305 153.364 101.305C153.364 101.307 153.301 101.389 153.214 101.57C153.126 101.748 153.015 102.007 152.851 102.249C152.524 102.731 152.087 103.19 151.523 103.513C151.087 103.767 150.58 103.922 150.108 103.986C150.087 103.985 150.024 103.989 150.003 103.987C149.72 103.992 149.448 103.968 149.185 103.923C149.176 103.922 149.168 103.92 149.16 103.919C148.662 103.83 148.188 103.696 147.733 103.539C147.686 103.523 147.637 103.505 147.59 103.488C147.184 103.409 146.786 103.304 146.514 103.209C146.289 103.131 146.143 103.035 146.019 102.952C145.935 102.895 145.859 102.844 145.777 102.808C145.733 102.788 145.672 102.763 145.598 102.731C145.297 102.605 144.791 102.376 144.38 102.083C144.197 101.954 143.997 101.784 143.81 101.62C143.542 101.386 143.299 101.162 143.153 101.086C142.894 100.954 142.636 100.746 142.411 100.558C142.309 100.473 142.214 100.392 142.128 100.324C142.077 100.287 141.964 100.163 141.933 100.108C141.879 100.005 141.826 99.9181 141.774 99.8633C141.658 99.7409 141.604 99.6074 141.528 99.4133C141.476 99.2778 141.411 99.1113 141.309 98.8928C141.191 98.642 141.129 98.4507 141.079 98.2915C141.072 98.2698 141.065 98.2485 141.059 98.2277C140.995 98.0296 140.941 97.8751 140.8 97.6765C140.629 97.4345 140.474 97.1673 140.394 96.9382C140.358 96.8345 140.308 96.7191 140.256 96.5983C140.188 96.44 140.117 96.2702 140.074 96.1085C140.039 95.9751 140.036 95.8542 140.034 95.7478C140.034 95.7147 140.033 95.6829 140.032 95.6525C139.994 95.5506 139.956 95.4483 139.918 95.3459C139.906 95.3314 139.893 95.3164 139.879 95.3006C139.812 95.2214 139.73 95.1231 139.661 94.9889C139.552 94.7768 139.51 94.5717 139.469 94.3555C139.438 94.1872 139.407 94.0116 139.347 93.8176C139.306 93.6856 139.25 93.536 139.196 93.3877C139.117 93.1669 139.044 92.9463 139.025 92.7848C139.018 92.7245 139.033 92.6685 139.047 92.6134C139.047 92.6132 139.047 92.6129 139.047 92.6127C139.048 92.6089 139.049 92.6052 139.05 92.6015C138.956 92.2212 138.873 91.8358 138.807 91.4435C138.797 91.41 138.787 91.376 138.777 91.3424C138.729 91.1789 138.687 91.0148 138.638 90.91C138.585 90.7971 138.542 90.5007 138.515 90.182C138.497 89.9744 138.487 89.7554 138.474 89.5759C138.466 89.4717 138.5 89.3718 138.536 89.273C138.57 89.1801 138.606 89.0872 138.615 88.9791C138.619 88.9252 138.618 88.866 138.616 88.8026C138.615 88.7467 138.615 88.6885 138.62 88.6263C138.624 88.5689 138.661 88.4457 138.716 88.2913C138.749 88.1953 138.79 88.0862 138.833 87.9732C138.872 87.8069 138.919 87.6386 138.972 87.4737C139.012 87.3479 139.053 87.2231 139.093 87.0991C139.093 87.088 139.093 87.077 139.092 87.0661C139.09 87.0164 139.081 86.969 139.065 86.9269C139.05 86.8901 139.03 86.8555 139.008 86.8199C138.98 86.7716 138.95 86.7216 138.934 86.6624C138.921 86.6161 138.927 86.5696 138.949 86.5455C138.959 86.5343 138.973 86.528 138.985 86.5222C139 86.5156 139.012 86.5097 139.016 86.4982C139.019 86.4897 139.016 86.4782 139.011 86.4641C139.004 86.4416 138.995 86.4123 139.008 86.3782C139.055 86.2508 139.116 86.1133 139.178 85.9749C139.247 85.8211 139.312 85.6759 139.357 85.5514C139.406 85.4134 139.51 85.2342 139.616 85.0523C139.69 84.9269 139.764 84.8004 139.82 84.6888C139.874 84.5799 139.909 84.4578 139.943 84.338C139.984 84.1951 140.024 84.0589 140.095 83.9572C140.109 83.9368 140.15 83.9212 140.2 83.9019C140.236 83.8882 140.276 83.8724 140.317 83.852C140.378 83.7115 140.441 83.5711 140.505 83.4333C140.503 83.4266 140.501 83.4197 140.5 83.4128C140.5 83.4127 140.5 83.4126 140.5 83.4125C140.462 83.2559 140.409 83.0472 140.582 82.8568C140.626 82.8091 140.676 82.7897 140.721 82.7723C140.765 82.7556 140.805 82.7388 140.829 82.7005C140.857 82.6567 140.864 82.5935 140.871 82.5252C140.88 82.4305 140.893 82.32 140.965 82.2404C140.97 82.235 140.975 82.2292 140.981 82.2231C141.033 82.1659 141.111 82.0791 141.219 82.0083C141.374 81.7209 141.533 81.4365 141.697 81.1521C141.969 80.6823 142.253 80.2122 142.543 79.7501C142.684 79.5247 142.886 79.3422 143.106 79.2491C143.325 79.1575 143.548 79.1534 143.719 79.2551C143.894 79.3484 144.009 79.535 144.055 79.7624C144.101 79.9914 144.068 80.2521 143.969 80.4901C143.808 80.8778 143.649 81.2709 143.494 81.6603C143.488 81.6815 143.482 81.7029 143.476 81.7242C143.428 81.8853 143.414 82.0429 143.397 82.2063C143.394 82.2427 143.39 82.2794 143.386 82.3162Z" fill="black"/>
<path d="M86.8546 137.072L116.229 120.657C118.641 123.897 124.566 131.046 128.972 133.724L103.27 146.359L86.8546 151.111C83.1468 151.651 75.4721 152.623 74.4354 152.191C73.3987 151.759 71.9155 148.123 71.3036 146.359L69.6837 137.072C69.7917 133.472 67.675 125.776 68.2798 123.789C68.4958 121.953 70.6556 121.413 72.1675 121.953C73.6794 122.493 74.7594 125.84 78.1072 131.24C80.4123 134.958 84.7667 136.928 86.8546 137.072Z" stroke="black" stroke-width="1.07993"/>
<path d="M66.2855 108.453C72.7651 110.354 96.2717 108.669 107.215 107.589C105.228 104.306 105.667 95.422 106.135 91.3903C97.8196 92.4342 80.2383 94.6516 76.437 95.17C72.6356 95.6884 70.9653 93.2261 70.6053 91.9302C70.5693 89.4464 70.3893 83.9171 69.9574 81.6709C69.4174 78.863 66.2855 78.5391 64.3417 78.5391C62.7866 78.5391 61.9659 80.6269 61.7499 81.6709C60.166 86.9265 56.8253 98.0426 56.1342 100.462C55.443 102.881 55.8462 104.421 56.1342 104.889C56.8181 105.285 59.806 106.552 66.2855 108.453Z" stroke="black" stroke-width="1.07993"/>
<path d="M128 196.154C128.846 192.77 131.204 185.59 133.869 183.94C133.869 190.444 132.441 193.775 133.869 196.154C136.089 191.395 136.407 188.064 138.151 187.43C138.151 192.823 137.041 194.25 138.151 196.154" stroke="black" stroke-width="0.793075"/>
<path d="M189.556 13.2134C190.402 9.82957 192.76 2.6496 195.425 1C195.425 7.50322 193.997 10.8341 195.425 13.2134C197.646 8.45491 197.963 5.12399 199.708 4.48953C199.708 9.88244 198.597 11.31 199.708 13.2134" stroke="black" stroke-width="0.793075"/>
<path d="M1 143.777C1.84595 140.393 4.20402 133.213 6.86876 131.563C6.86876 138.067 5.44122 141.398 6.86876 143.777C9.08937 139.018 9.4066 135.687 11.1514 135.053C11.1514 140.446 10.0411 141.873 11.1514 143.777" stroke="black" stroke-width="0.793075"/>
<path d="M60.0723 52.7238C60.9994 49.0151 63.5839 41.1459 66.5044 39.3379C66.5044 46.4654 64.9399 50.1161 66.5044 52.7238C68.9382 47.5085 69.2859 43.8578 71.1982 43.1624C71.1982 49.0731 69.9813 50.6377 71.1982 52.7238C71.5749 51.391 72.6237 48.5342 73.8058 47.7693C73.8058 51.7676 72.8497 51.7676 73.8058 53.593" stroke="black" stroke-width="0.869214"/>
<path d="M270.659 125.835C271.586 122.126 274.171 114.257 277.091 112.449C277.091 119.576 275.527 123.227 277.091 125.835C279.525 120.619 279.873 116.969 281.785 116.273C281.785 122.184 280.568 123.749 281.785 125.835C282.162 124.502 283.211 121.645 284.393 120.88C284.393 124.878 283.436 124.878 284.393 126.704" stroke="black" stroke-width="0.869214"/>
<path d="M212.343 130.7C212.688 124.653 210.615 117.813 209.535 115.149L208.455 113.637L198.519 126.38C199.527 129.404 201.63 136.359 201.975 139.988C202.407 144.523 199.815 146.899 198.519 146.899C197.483 146.899 189.16 139.268 185.128 135.452L173.033 139.988L188.368 156.187C191.248 157.986 198.476 161.673 204.351 162.018C211.695 162.45 210.615 160.29 212.343 156.187C215.15 151.867 211.911 138.26 212.343 130.7Z" stroke="black" stroke-width="1.07993"/>
<path d="M137.611 12.5551C139.167 15.3197 148.339 26.2342 152.73 31.3459L144.523 35.0177C143.803 34.5137 141.413 32.7282 137.611 29.618C133.81 26.5078 132.14 30.9139 131.78 33.5058L133.292 44.737L119.901 56.6163C120.404 46.3929 121.974 23.268 124.22 12.5551C128.324 1.75573 135.668 9.09927 137.611 12.5551Z" stroke="black" stroke-width="1.07993"/>
<path d="M140.959 87.2866C140.599 84.6947 138.799 78.3879 134.48 73.8954C134.48 73.4203 132.68 71.8616 131.78 71.1416" stroke="black" stroke-width="1.07993"/>
<path d="M134.696 74.2195C135.074 74.0215 135.883 73.4204 136.099 72.5996" stroke="black" stroke-width="1.07993"/>
<path d="M133.832 73.6255C133.011 74.2303 131.978 74.3094 131.564 74.2734" stroke="black" stroke-width="1.07993"/>
<path d="M133.076 71.8436C133.544 71.5916 134.458 70.8933 134.372 70.1157" stroke="black" stroke-width="1.07993"/>
</svg>
