<svg width="842" height="687" viewBox="0 0 842 687" fill="none" xmlns="http://www.w3.org/2000/svg">
<path d="M54.2783 32.6201C53.7314 32.6885 52.9909 32.8024 52.0566 32.9619C51.1452 33.0986 50.4046 33.3037 49.835 33.5771C49.1514 33.9189 48.6615 34.4089 48.3652 35.0469C48.0918 35.6621 47.9551 36.3913 47.9551 37.2344V40.9941C47.9551 43.7285 47.9665 45.5742 47.9893 46.5312C48.0348 47.4883 48.0804 48.2744 48.126 48.8896C45.0954 50.2568 42.0762 51.305 39.0684 52.0342C36.0605 52.7633 33.1097 53.1279 30.2158 53.1279C27.1169 53.1279 24.1318 52.5469 21.2607 51.3848C18.3896 50.2227 15.8831 48.5706 13.7412 46.4287C11.5765 44.264 9.85612 41.6322 8.58008 38.5332C7.30404 35.4342 6.66602 31.9707 6.66602 28.1426C6.66602 24.4512 7.26986 21.0332 8.47754 17.8887C9.70801 14.7214 11.4398 11.9756 13.6729 9.65137C15.8376 7.37272 18.4124 5.60677 21.3975 4.35352C24.4053 3.07747 27.6182 2.43945 31.0361 2.43945C33.7705 2.43945 36.1517 2.76986 38.1797 3.43066C40.2077 4.09147 41.9964 4.889 43.5459 5.82324L44.9473 3.49902H47.6816L47.9893 20.4521H45.1865C44.708 18.5837 44.1156 16.7493 43.4092 14.9492C42.7028 13.1263 41.7913 11.4971 40.6748 10.0615C39.5583 8.62598 38.1911 7.48665 36.5732 6.64355C34.9782 5.77767 33.0641 5.34473 30.8311 5.34473C28.3929 5.34473 26.2168 5.84603 24.3027 6.84863C22.3887 7.82845 20.7253 9.29818 19.3125 11.2578C17.9225 13.1491 16.8516 15.5075 16.0996 18.333C15.3477 21.1585 14.9717 24.3145 14.9717 27.8008C14.9717 30.877 15.3363 33.7822 16.0654 36.5166C16.8174 39.2282 17.8997 41.5752 19.3125 43.5576C20.7253 45.5856 22.4912 47.1807 24.6104 48.3428C26.7295 49.5049 29.1335 50.0859 31.8223 50.0859C33.8275 50.0859 35.6504 49.7783 37.291 49.1631C38.9544 48.5479 40.1279 47.8984 40.8115 47.2148C40.9938 46.0299 41.085 44.8337 41.085 43.626C41.1077 42.4183 41.1191 41.3929 41.1191 40.5498V37.8838C41.1191 36.9268 40.9824 36.0837 40.709 35.3545C40.4583 34.6025 39.9229 34.0557 39.1025 33.7139C38.3506 33.3721 37.3252 33.1214 36.0264 32.9619C34.7503 32.7796 33.7477 32.6657 33.0186 32.6201V30.125H54.2783V32.6201ZM86.4934 44.0703C85.0806 46.7591 83.1893 48.901 80.8195 50.4961C78.4497 52.0911 75.7268 52.8887 72.6506 52.8887C69.939 52.8887 67.5578 52.4102 65.507 51.4531C63.479 50.4961 61.8042 49.1973 60.4826 47.5566C59.161 45.916 58.1698 44.002 57.509 41.8145C56.871 39.627 56.552 37.3141 56.552 34.876C56.552 32.6885 56.8937 30.5465 57.5773 28.4502C58.2837 26.3311 59.3091 24.4284 60.6535 22.7422C61.9523 21.1243 63.5588 19.8255 65.4729 18.8457C67.4097 17.8431 69.5744 17.3418 71.967 17.3418C74.4279 17.3418 76.5357 17.7292 78.2902 18.5039C80.0448 19.2786 81.4689 20.3382 82.5627 21.6826C83.6109 22.9587 84.3856 24.4626 84.8869 26.1943C85.411 27.9261 85.673 29.806 85.673 31.834V34.0898H63.3537C63.3537 36.3001 63.5588 38.3053 63.9689 40.1055C64.4019 41.9056 65.0741 43.4893 65.9855 44.8564C66.8742 46.1781 68.0363 47.2262 69.4719 48.001C70.9074 48.7529 72.6164 49.1289 74.5988 49.1289C76.6268 49.1289 78.37 48.6618 79.8283 47.7275C81.3094 46.7705 82.7336 45.0615 84.1008 42.6006L86.4934 44.0703ZM78.9396 31.2188C78.9396 29.9427 78.8257 28.5755 78.5979 27.1172C78.3928 25.6589 78.051 24.4398 77.5725 23.46C77.0484 22.4118 76.3306 21.5573 75.4191 20.8965C74.5077 20.2357 73.3342 19.9053 71.8986 19.9053C69.5061 19.9053 67.5122 20.9079 65.9172 22.9131C64.3449 24.8955 63.4904 27.6641 63.3537 31.2188H78.9396ZM122.537 34.8076C122.537 37.1774 122.161 39.513 121.409 41.8145C120.657 44.0931 119.586 46.0299 118.196 47.625C116.623 49.4479 114.801 50.8037 112.727 51.6924C110.653 52.5811 108.329 53.0254 105.754 53.0254C103.612 53.0254 101.573 52.6266 99.6361 51.8291C97.6993 51.0088 95.9789 49.8239 94.475 48.2744C92.9939 46.7477 91.809 44.8906 90.9203 42.7031C90.0544 40.4928 89.6215 38.0205 89.6215 35.2861C89.6215 30.0225 91.1482 25.7158 94.2016 22.3662C97.2777 19.0166 101.3 17.3418 106.267 17.3418C110.984 17.3418 114.869 18.9368 117.922 22.127C120.998 25.2943 122.537 29.5212 122.537 34.8076ZM115.461 34.876C115.461 33.167 115.29 31.3669 114.949 29.4756C114.607 27.5615 114.094 25.9437 113.411 24.6221C112.681 23.2093 111.724 22.0814 110.539 21.2383C109.355 20.3724 107.908 19.9395 106.199 19.9395C104.444 19.9395 102.94 20.3724 101.687 21.2383C100.456 22.1042 99.4538 23.2891 98.6791 24.793C97.9499 26.1829 97.4372 27.7666 97.141 29.5439C96.8448 31.3213 96.6967 33.0417 96.6967 34.7051C96.6967 36.8926 96.8676 38.9206 97.2094 40.7891C97.574 42.6348 98.1436 44.2868 98.9184 45.7451C99.6931 47.2035 100.662 48.3542 101.824 49.1973C103.009 50.0176 104.467 50.4277 106.199 50.4277C109.047 50.4277 111.303 49.0492 112.966 46.292C114.63 43.5348 115.461 39.7295 115.461 34.876ZM152.53 22.6396C152.53 23.8018 152.245 24.8385 151.675 25.75C151.106 26.6387 150.228 27.083 149.044 27.083C147.768 27.083 146.788 26.7526 146.104 26.0918C145.443 25.431 145.113 24.7018 145.113 23.9043C145.113 23.403 145.147 22.9473 145.215 22.5371C145.307 22.127 145.386 21.7168 145.455 21.3066C144.384 21.3066 143.13 21.7396 141.695 22.6055C140.259 23.4714 139.04 24.7018 138.038 26.2969V45.916C138.038 46.7135 138.186 47.363 138.482 47.8643C138.801 48.3656 139.291 48.7415 139.952 48.9922C140.521 49.2201 141.251 49.391 142.139 49.5049C143.051 49.6188 143.837 49.6986 144.498 49.7441V52H126.724V49.7441C127.248 49.6986 127.784 49.653 128.331 49.6074C128.9 49.5618 129.39 49.4707 129.8 49.334C130.438 49.1289 130.906 48.7757 131.202 48.2744C131.521 47.7503 131.68 47.0781 131.68 46.2578V25.4424C131.68 24.736 131.509 24.041 131.168 23.3574C130.849 22.6738 130.393 22.127 129.8 21.7168C129.367 21.4434 128.855 21.2497 128.262 21.1357C127.67 20.999 127.032 20.9079 126.348 20.8623V18.6406L137.559 17.8887L138.038 18.3672V23.1182H138.209C139.621 21.2725 141.194 19.8711 142.925 18.9141C144.657 17.957 146.241 17.4785 147.676 17.4785C149.112 17.4785 150.274 17.9456 151.163 18.8799C152.074 19.8141 152.53 21.0674 152.53 22.6396ZM183.617 48.5137C184.528 49.3796 185.246 50.3594 185.77 51.4531C186.294 52.5469 186.556 53.9027 186.556 55.5205C186.556 57.1383 186.203 58.6536 185.497 60.0664C184.79 61.502 183.72 62.7438 182.284 63.792C180.757 64.863 178.934 65.6947 176.815 66.2871C174.696 66.8796 172.076 67.1758 168.954 67.1758C163.85 67.1758 160.033 66.4238 157.504 64.9199C154.974 63.4388 153.71 61.2627 153.71 58.3916C153.71 56.0674 154.621 54.2331 156.444 52.8887C158.267 51.5443 160.591 50.8151 163.417 50.7012V50.2227C162.733 50.0176 162.027 49.7669 161.298 49.4707C160.568 49.1517 159.942 48.7871 159.418 48.377C158.825 47.8984 158.347 47.3402 157.982 46.7021C157.618 46.0413 157.435 45.2324 157.435 44.2754C157.435 43.0677 157.857 41.9626 158.7 40.96C159.566 39.9346 160.865 39.0573 162.596 38.3281V37.8154C160.409 36.79 158.711 35.4798 157.504 33.8848C156.296 32.2669 155.692 30.3984 155.692 28.2793C155.692 25.0892 156.877 22.4688 159.247 20.418C161.639 18.3672 164.693 17.3418 168.407 17.3418C169.432 17.3418 170.446 17.4443 171.449 17.6494C172.474 17.8545 173.511 18.1165 174.559 18.4355H186.317V21.7168H178.387V21.9219C179.231 22.9017 179.857 23.984 180.267 25.1689C180.678 26.3538 180.883 27.516 180.883 28.6553C180.883 31.6175 179.675 34.124 177.26 36.1748C174.867 38.2256 172.076 39.251 168.886 39.251H164.75C164.226 39.4333 163.679 39.7637 163.109 40.2422C162.54 40.7207 162.255 41.3701 162.255 42.1904C162.255 43.0335 162.494 43.6829 162.972 44.1387C163.451 44.5716 164.032 44.8678 164.716 45.0273C165.376 45.2096 166.14 45.3236 167.006 45.3691C167.894 45.4147 168.806 45.4489 169.74 45.4717C170.743 45.4945 172.11 45.5628 173.842 45.6768C175.596 45.7907 176.838 45.859 177.567 45.8818C178.615 45.9274 179.664 46.1781 180.712 46.6338C181.783 47.0895 182.751 47.7161 183.617 48.5137ZM174.388 28.5186C174.388 25.8525 173.842 23.7334 172.748 22.1611C171.677 20.5661 170.162 19.7686 168.202 19.7686C167.131 19.7686 166.208 19.9964 165.433 20.4521C164.681 20.8851 164.066 21.5117 163.588 22.332C163.132 23.084 162.802 23.9954 162.596 25.0664C162.414 26.1146 162.323 27.1969 162.323 28.3135C162.323 30.8428 162.87 32.9049 163.964 34.5C165.08 36.0951 166.516 36.8926 168.27 36.8926C170.23 36.8926 171.734 36.1064 172.782 34.5342C173.853 32.9391 174.388 30.9339 174.388 28.5186ZM180.951 56.7852C180.951 55.5091 180.655 54.4609 180.062 53.6406C179.47 52.8203 178.57 52.262 177.362 51.9658C176.724 51.8747 175.414 51.7721 173.431 51.6582C171.449 51.5443 169.148 51.4873 166.527 51.4873C164.066 51.9658 162.312 52.7633 161.263 53.8799C160.238 55.0192 159.725 56.4775 159.725 58.2549C159.725 59.0524 159.896 59.8158 160.238 60.5449C160.58 61.2741 161.172 61.9463 162.015 62.5615C162.813 63.154 163.884 63.6325 165.228 63.9971C166.573 64.3844 168.213 64.5781 170.15 64.5781C173.5 64.5781 176.132 63.9287 178.046 62.6299C179.983 61.3538 180.951 59.4056 180.951 56.7852ZM206.091 52H189.787V49.7441C190.311 49.6986 190.847 49.653 191.394 49.6074C191.963 49.5618 192.453 49.4707 192.863 49.334C193.501 49.1289 193.968 48.7757 194.265 48.2744C194.584 47.7503 194.743 47.0781 194.743 46.2578V25.4424C194.743 24.7132 194.572 24.0524 194.23 23.46C193.911 22.8447 193.456 22.332 192.863 21.9219C192.43 21.6484 191.804 21.4206 190.983 21.2383C190.163 21.0332 189.411 20.9079 188.728 20.8623V18.6406L200.622 17.8887L201.101 18.3672V45.8477C201.101 46.6452 201.249 47.306 201.545 47.8301C201.864 48.3542 202.354 48.7415 203.015 48.9922C203.516 49.1973 204.006 49.3682 204.484 49.5049C204.963 49.6188 205.498 49.6986 206.091 49.7441V52ZM201.784 4.59277C201.784 5.8916 201.351 7.03092 200.485 8.01074C199.642 8.96777 198.594 9.44629 197.341 9.44629C196.179 9.44629 195.165 8.99056 194.299 8.0791C193.456 7.14486 193.034 6.08529 193.034 4.90039C193.034 3.64714 193.456 2.55339 194.299 1.61914C195.165 0.684896 196.179 0.217773 197.341 0.217773C198.64 0.217773 199.699 0.662109 200.52 1.55078C201.363 2.41667 201.784 3.43066 201.784 4.59277ZM241.45 51.3848C240.379 51.7721 239.434 52.0798 238.613 52.3076C237.816 52.5583 236.904 52.6836 235.879 52.6836C234.102 52.6836 232.678 52.2734 231.607 51.4531C230.558 50.61 229.886 49.391 229.59 47.7959H229.385C227.904 49.4365 226.309 50.6898 224.6 51.5557C222.914 52.4215 220.874 52.8545 218.482 52.8545C215.952 52.8545 213.867 52.0798 212.227 50.5303C210.609 48.9808 209.8 46.9528 209.8 44.4463C209.8 43.1475 209.982 41.9854 210.347 40.96C210.711 39.9346 211.258 39.0117 211.988 38.1914C212.557 37.5078 213.309 36.904 214.243 36.3799C215.178 35.833 216.055 35.4001 216.875 35.0811C217.901 34.6937 219.974 33.9759 223.096 32.9277C226.24 31.8796 228.36 31.0592 229.453 30.4668V27.083C229.453 26.7868 229.385 26.2171 229.248 25.374C229.134 24.5309 228.872 23.7334 228.462 22.9814C228.006 22.1383 227.357 21.4092 226.514 20.7939C225.694 20.1559 224.52 19.8369 222.993 19.8369C221.945 19.8369 220.965 20.0192 220.054 20.3838C219.165 20.7256 218.539 21.0902 218.174 21.4775C218.174 21.9333 218.277 22.6055 218.482 23.4941C218.71 24.3828 218.823 25.2031 218.823 25.9551C218.823 26.7526 218.459 27.4818 217.73 28.1426C217.023 28.8034 216.032 29.1338 214.756 29.1338C213.617 29.1338 212.774 28.735 212.227 27.9375C211.703 27.1172 211.441 26.2057 211.441 25.2031C211.441 24.1549 211.805 23.1523 212.534 22.1953C213.286 21.2383 214.255 20.3838 215.44 19.6318C216.465 18.9938 217.707 18.4583 219.165 18.0254C220.624 17.5697 222.048 17.3418 223.438 17.3418C225.352 17.3418 227.015 17.4785 228.428 17.752C229.863 18.0026 231.162 18.5609 232.324 19.4268C233.487 20.2699 234.364 21.4206 234.956 22.8789C235.571 24.3145 235.879 26.1715 235.879 28.4502C235.879 31.7087 235.845 34.6025 235.777 37.1318C235.708 39.6383 235.674 42.3841 235.674 45.3691C235.674 46.2578 235.822 46.9642 236.118 47.4883C236.437 48.0124 236.916 48.4567 237.554 48.8213C237.896 49.0264 238.431 49.1403 239.16 49.1631C239.912 49.1859 240.676 49.1973 241.45 49.1973V51.3848ZM229.522 33.3379C227.585 33.9076 225.887 34.4658 224.429 35.0127C222.971 35.5596 221.615 36.2432 220.362 37.0635C219.222 37.8382 218.322 38.7611 217.661 39.832C217.001 40.8802 216.67 42.1335 216.67 43.5918C216.67 45.4831 217.16 46.873 218.14 47.7617C219.142 48.6504 220.407 49.0947 221.934 49.0947C223.552 49.0947 224.976 48.7074 226.206 47.9326C227.437 47.1351 228.474 46.2008 229.317 45.1299L229.522 33.3379Z" fill="black"/>
<line x1="4" y1="80" x2="842" y2="80" stroke="black" stroke-width="2"/>
<path d="M142.77 401H85.0547V394.066C90.1328 393.741 94.332 393.09 97.6523 392.113C101.038 391.137 102.73 389.932 102.73 388.5C102.73 387.914 102.665 387.198 102.535 386.352C102.405 385.505 102.21 384.757 101.949 384.105L90.4258 353.051H41.8906C40.0677 357.608 38.5703 361.579 37.3984 364.965C36.2917 368.35 35.2826 371.475 34.3711 374.34C33.5247 377.139 32.9388 379.418 32.6133 381.176C32.2878 382.934 32.125 384.366 32.125 385.473C32.125 388.077 34.1758 390.095 38.2773 391.527C42.3789 392.96 47.0013 393.806 52.1445 394.066V401H-0.00390625V394.066C1.6888 393.936 3.80469 393.578 6.34375 392.992C8.88281 392.341 10.9661 391.495 12.5938 390.453C15.1979 388.695 17.2161 386.872 18.6484 384.984C20.0807 383.031 21.4805 380.362 22.8477 376.977C29.8138 359.594 37.4961 340.062 45.8945 318.383C54.293 296.703 61.7799 277.4 68.3555 260.473H76.168L122.359 380.004C123.336 382.543 124.443 384.594 125.68 386.156C126.917 387.719 128.642 389.249 130.855 390.746C132.353 391.658 134.306 392.439 136.715 393.09C139.124 393.676 141.142 394.001 142.77 394.066V401ZM86.9102 344.359L65.9141 290.648L45.3086 344.359H86.9102ZM234.422 399.242C231.362 400.349 228.66 401.228 226.316 401.879C224.038 402.595 221.434 402.953 218.504 402.953C213.426 402.953 209.357 401.781 206.297 399.438C203.302 397.029 201.382 393.546 200.535 388.988H199.949C195.717 393.676 191.16 397.257 186.277 399.73C181.46 402.204 175.633 403.441 168.797 403.441C161.57 403.441 155.613 401.228 150.926 396.801C146.303 392.374 143.992 386.579 143.992 379.418C143.992 375.707 144.513 372.387 145.555 369.457C146.596 366.527 148.159 363.891 150.242 361.547C151.87 359.594 154.018 357.868 156.688 356.371C159.357 354.809 161.863 353.572 164.207 352.66C167.137 351.553 173.061 349.503 181.98 346.508C190.965 343.513 197.02 341.169 200.145 339.477V329.809C200.145 328.962 199.949 327.335 199.559 324.926C199.233 322.517 198.484 320.238 197.312 318.09C196.01 315.681 194.155 313.598 191.746 311.84C189.402 310.017 186.049 309.105 181.688 309.105C178.693 309.105 175.893 309.626 173.289 310.668C170.75 311.645 168.96 312.686 167.918 313.793C167.918 315.095 168.211 317.016 168.797 319.555C169.448 322.094 169.773 324.438 169.773 326.586C169.773 328.865 168.732 330.948 166.648 332.836C164.63 334.724 161.798 335.668 158.152 335.668C154.897 335.668 152.488 334.529 150.926 332.25C149.428 329.906 148.68 327.302 148.68 324.438C148.68 321.443 149.721 318.578 151.805 315.844C153.953 313.109 156.72 310.668 160.105 308.52C163.035 306.697 166.583 305.167 170.75 303.93C174.917 302.628 178.986 301.977 182.957 301.977C188.426 301.977 193.178 302.367 197.215 303.148C201.316 303.865 205.027 305.46 208.348 307.934C211.668 310.342 214.174 313.63 215.867 317.797C217.625 321.898 218.504 327.204 218.504 333.715C218.504 343.025 218.406 351.293 218.211 358.52C218.016 365.681 217.918 373.526 217.918 382.055C217.918 384.594 218.341 386.612 219.188 388.109C220.099 389.607 221.466 390.876 223.289 391.918C224.266 392.504 225.796 392.829 227.879 392.895C230.027 392.96 232.208 392.992 234.422 392.992V399.242ZM200.34 347.68C194.806 349.307 189.956 350.902 185.789 352.465C181.622 354.027 177.749 355.98 174.168 358.324C170.913 360.538 168.341 363.174 166.453 366.234C164.565 369.229 163.621 372.81 163.621 376.977C163.621 382.38 165.021 386.352 167.82 388.891C170.685 391.43 174.298 392.699 178.66 392.699C183.283 392.699 187.352 391.592 190.867 389.379C194.383 387.1 197.345 384.431 199.754 381.371L200.34 347.68Z" fill="black"/>
<path d="M31.5065 459.399L29.9904 459.403C29.8574 458.876 29.6143 458.254 29.2611 457.537C28.9225 456.805 28.5401 456.118 28.1138 455.474C27.6728 454.801 27.1881 454.216 26.6596 453.719C26.1458 453.208 25.6471 452.916 25.1635 452.844C24.7093 452.786 24.1379 452.744 23.4493 452.716C22.7608 452.688 22.1236 452.675 21.5376 452.676L20.2632 452.679L20.3199 477.618C20.321 478.102 20.4246 478.548 20.6306 478.958C20.8365 479.353 21.1961 479.66 21.7093 479.878C21.9732 479.98 22.5229 480.118 23.3582 480.292C24.2082 480.466 24.8676 480.56 25.3364 480.573L25.3399 482.133L10.6183 482.167L10.6148 480.607C11.0248 480.576 11.6473 480.516 12.482 480.427C13.3314 480.337 13.9171 480.226 14.2391 480.093C14.722 479.901 15.073 479.63 15.2919 479.278C15.5255 478.911 15.6415 478.427 15.6402 477.827L15.583 452.69L14.3086 452.693C13.8545 452.694 13.2906 452.71 12.6168 452.741C11.9431 452.757 11.2986 452.802 10.6836 452.877C10.2003 452.937 9.69559 453.231 9.16945 453.759C8.65792 454.273 8.18318 454.86 7.74522 455.52C7.30727 456.18 6.92068 456.884 6.58547 457.632C6.25022 458.366 6.01723 458.974 5.88649 459.458L4.34841 459.461L4.32918 451.002L31.4873 450.94L31.5065 459.399ZM56.5964 482.062L45.9617 482.086L45.9584 480.636C46.2952 480.606 46.6687 480.576 47.0788 480.546C47.4889 480.515 47.8256 480.456 48.0891 480.368C48.499 480.235 48.7987 480.007 48.9884 479.684C49.1927 479.347 49.2943 478.915 49.2931 478.387L49.2678 467.247C49.2643 465.709 48.8954 464.523 48.1611 463.69C47.4414 462.857 46.5615 462.441 45.5215 462.444C44.7598 462.445 44.0496 462.572 43.391 462.822C42.747 463.058 42.1691 463.352 41.6572 463.705C41.16 464.072 40.7799 464.439 40.5171 464.806C40.2543 465.173 40.0499 465.481 39.904 465.73L39.9323 478.189C39.9334 478.687 40.0296 479.097 40.2207 479.419C40.4265 479.741 40.7347 479.989 41.1453 480.164C41.4679 480.309 41.7977 480.419 42.1348 480.491C42.4865 480.563 42.8675 480.614 43.2777 480.642L43.281 482.092L32.6463 482.117L32.643 480.666C32.9798 480.636 33.3313 480.606 33.6975 480.576C34.0636 480.531 34.371 480.472 34.6199 480.398C35.0298 480.265 35.3369 480.038 35.5412 479.715C35.7455 479.378 35.8471 478.945 35.8459 478.418L35.7885 453.193C35.7874 452.695 35.6691 452.198 35.4336 451.7C35.2127 451.202 34.9189 450.83 34.5521 450.581C34.288 450.392 33.819 450.261 33.145 450.189C32.4856 450.103 31.9508 450.045 31.5406 450.017L31.5374 448.611L39.5562 448.087L39.8646 448.416L39.899 463.533L39.9869 463.533C40.4692 463.048 40.9076 462.623 41.3023 462.256C41.697 461.874 42.2161 461.477 42.8597 461.066C43.4155 460.713 44.0667 460.418 44.8132 460.182C45.5744 459.946 46.4238 459.827 47.3613 459.825C49.2949 459.82 50.7831 460.432 51.8259 461.66C52.8687 462.874 53.3927 464.63 53.3979 466.93L53.4236 478.202C53.4247 478.715 53.5136 479.132 53.6901 479.454C53.8812 479.761 54.1894 480.002 54.6146 480.177C54.9518 480.308 55.2523 480.41 55.5161 480.483C55.7946 480.541 56.1536 480.584 56.5931 480.612L56.5964 482.062ZM78.0415 476.916C77.1372 478.646 75.9245 480.026 74.4034 481.055C72.8823 482.084 71.133 482.6 69.1555 482.605C67.4123 482.609 65.8809 482.305 64.5611 481.693C63.256 481.08 62.1774 480.248 61.3254 479.195C60.4734 478.142 59.8334 476.913 59.4054 475.508C58.9921 474.103 58.7836 472.616 58.7801 471.049C58.7769 469.643 58.9935 468.265 59.4299 466.917C59.8809 465.553 60.5373 464.329 61.399 463.243C62.2316 462.201 63.2625 461.363 64.4915 460.731C65.7351 460.083 67.126 459.758 68.6641 459.754C70.2461 459.751 71.6017 459.997 72.7307 460.492C73.8598 460.988 74.7768 461.667 75.4819 462.529C76.1576 463.348 76.6579 464.314 76.9827 465.426C77.3221 466.539 77.4933 467.747 77.4963 469.051L77.4996 470.501L63.1515 470.534C63.1547 471.954 63.2895 473.243 63.5558 474.4C63.8367 475.556 64.2712 476.574 64.8591 477.451C65.4323 478.299 66.1809 478.972 67.1049 479.467C68.0288 479.949 69.128 480.188 70.4024 480.185C71.7061 480.182 72.8261 479.879 73.7622 479.277C74.7129 478.659 75.626 477.558 76.5013 475.974L78.0415 476.916ZM73.1668 468.665C73.1649 467.845 73.0897 466.966 72.9411 466.029C72.8071 465.092 72.5856 464.308 72.2765 463.679C71.9381 463.006 71.4754 462.458 70.8885 462.035C70.3016 461.611 69.5467 461.4 68.6239 461.402C67.0858 461.406 65.8055 462.053 64.7831 463.345C63.7752 464.621 63.23 466.403 63.1473 468.688L73.1668 468.665ZM114.309 491.687L102.598 491.713L102.594 490.241C103.048 490.211 103.495 490.173 103.934 490.128C104.374 490.083 104.769 490.009 105.12 489.906C105.574 489.758 105.888 489.501 106.063 489.135C106.238 488.768 106.325 488.336 106.324 487.838L106.306 479.84L106.174 479.796C105.94 480.06 105.604 480.369 105.165 480.721C104.741 481.059 104.295 481.339 103.827 481.559C103.242 481.868 102.678 482.104 102.137 482.266C101.595 482.443 100.914 482.533 100.094 482.535C98.7754 482.538 97.5297 482.269 96.3566 481.73C95.1981 481.176 94.1856 480.395 93.319 479.386C92.4525 478.392 91.7613 477.17 91.2453 475.721C90.7439 474.257 90.4912 472.654 90.4873 470.911C90.4835 469.256 90.773 467.753 91.3559 466.405C91.9388 465.041 92.7124 463.853 93.6769 462.84C94.5976 461.885 95.7018 461.129 96.9896 460.569C98.2921 459.995 99.5805 459.706 100.855 459.703C101.807 459.701 102.65 459.794 103.382 459.983C104.13 460.157 104.768 460.368 105.295 460.616C105.75 460.805 106.205 461.053 106.659 461.36C107.114 461.652 107.437 461.849 107.628 461.951L109.489 459.09L110.742 459.263C110.685 460.347 110.608 461.681 110.509 463.263C110.425 464.845 110.384 466.229 110.387 467.416L110.432 487.455C110.433 487.968 110.53 488.407 110.721 488.773C110.912 489.153 111.22 489.438 111.646 489.627C111.997 489.773 112.445 489.897 112.987 489.998C113.529 490.114 113.969 490.186 114.306 490.215L114.309 491.687ZM106.302 477.928L106.272 464.986C106.154 464.62 105.955 464.218 105.676 463.779C105.397 463.326 105.066 462.931 104.685 462.595C104.274 462.244 103.768 461.952 103.167 461.719C102.58 461.486 101.899 461.371 101.122 461.373C99.4085 461.376 97.9676 462.266 96.7998 464.041C95.6466 465.816 95.0735 468.256 95.0806 471.362C95.0834 472.592 95.1958 473.705 95.4178 474.701C95.6544 475.697 96.052 476.626 96.6106 477.489C97.1398 478.308 97.8078 478.966 98.6146 479.462C99.4214 479.943 100.44 480.183 101.67 480.18C102.725 480.178 103.626 479.956 104.372 479.515C105.118 479.059 105.761 478.53 106.302 477.928ZM138.467 481.481L131.415 481.98L131.085 481.673L131.079 478.927L130.947 478.927C130.596 479.294 130.201 479.69 129.763 480.116C129.324 480.527 128.82 480.902 128.249 481.24C127.591 481.637 126.955 481.939 126.34 482.145C125.725 482.352 124.854 482.456 123.726 482.459C121.807 482.463 120.341 481.844 119.327 480.601C118.328 479.344 117.826 477.521 117.82 475.133L117.797 464.762C117.796 464.235 117.692 463.796 117.486 463.445C117.295 463.079 117.009 462.765 116.627 462.502C116.363 462.327 116.033 462.203 115.637 462.131C115.242 462.044 114.824 461.986 114.385 461.958L114.381 460.529L121.609 459.986L121.939 460.292L121.974 475.344C121.977 476.911 122.331 478.09 123.036 478.879C123.741 479.668 124.585 480.062 125.566 480.06C126.372 480.058 127.089 479.932 127.718 479.681C128.348 479.431 128.874 479.137 129.298 478.799C129.693 478.49 130.037 478.167 130.329 477.83C130.636 477.477 130.869 477.155 131.03 476.861L131.002 464.579C131.001 464.095 130.897 463.671 130.691 463.305C130.486 462.924 130.199 462.603 129.832 462.34C129.568 462.165 129.173 462.063 128.645 462.035C128.132 461.992 127.554 461.957 126.909 461.929L126.906 460.501L134.771 459.956L135.101 460.263L135.14 477.467C135.141 477.965 135.245 478.39 135.451 478.741C135.657 479.092 135.943 479.392 136.31 479.64C136.574 479.8 136.889 479.909 137.255 479.967C137.622 480.01 138.024 480.039 138.464 480.052L138.467 481.481ZM151.202 481.847L140.721 481.871L140.717 480.421C141.054 480.391 141.398 480.361 141.75 480.331C142.116 480.3 142.431 480.241 142.694 480.153C143.104 480.02 143.404 479.792 143.594 479.469C143.798 479.132 143.9 478.7 143.898 478.172L143.868 464.791C143.867 464.322 143.756 463.898 143.535 463.517C143.329 463.122 143.036 462.793 142.654 462.531C142.376 462.355 141.972 462.21 141.445 462.094C140.917 461.963 140.434 461.884 139.994 461.855L139.991 460.427L147.636 459.926L147.944 460.233L147.985 477.899C147.986 478.412 148.082 478.837 148.273 479.173C148.479 479.51 148.795 479.758 149.22 479.918C149.542 480.049 149.857 480.158 150.165 480.245C150.473 480.318 150.817 480.369 151.198 480.397L151.202 481.847ZM148.364 451.377C148.366 452.212 148.089 452.945 147.534 453.577C146.993 454.193 146.32 454.502 145.514 454.504C144.767 454.506 144.115 454.214 143.557 453.63C143.014 453.03 142.741 452.35 142.739 451.588C142.737 450.782 143.007 450.079 143.547 449.477C144.103 448.875 144.754 448.573 145.501 448.571C146.336 448.57 147.018 448.854 147.546 449.424C148.09 449.979 148.362 450.63 148.364 451.377ZM163.431 482.391C160.296 482.398 157.84 481.363 156.063 479.287C154.286 477.211 153.393 474.423 153.385 470.922C153.382 469.398 153.613 467.977 154.079 466.657C154.559 465.323 155.252 464.113 156.158 463.027C157.02 461.985 158.102 461.148 159.404 460.515C160.707 459.867 162.127 459.542 163.665 459.538C165.789 459.534 167.519 460.042 168.854 461.065C170.189 462.072 170.859 463.455 170.863 465.213C170.864 465.945 170.69 466.598 170.34 467.17C169.99 467.727 169.412 468.007 168.606 468.009C167.742 468.011 167.067 467.792 166.583 467.354C166.113 466.916 165.878 466.426 165.877 465.884C165.875 465.224 165.961 464.55 166.136 463.861C166.31 463.158 166.411 462.645 166.44 462.323C166.175 461.869 165.779 461.57 165.251 461.425C164.738 461.265 164.181 461.185 163.581 461.187C162.878 461.188 162.204 461.344 161.56 461.653C160.931 461.947 160.317 462.498 159.718 463.305C159.178 464.038 158.741 465.028 158.407 466.274C158.073 467.52 157.908 469.007 157.911 470.736C157.918 473.46 158.523 475.685 159.728 477.411C160.948 479.122 162.539 479.976 164.502 479.971C165.923 479.968 167.109 479.621 168.06 478.93C169.025 478.24 169.916 477.205 170.733 475.826L172.141 476.746C171.179 478.477 169.907 479.849 168.328 480.863C166.748 481.878 165.116 482.387 163.431 482.391ZM196.356 481.744L189.808 481.759C188.662 480.107 187.435 478.337 186.127 476.45C184.819 474.564 183.46 472.728 182.049 470.944L180.251 472.64L180.263 477.782C180.264 478.309 180.361 478.749 180.552 479.1C180.743 479.436 181.051 479.685 181.476 479.845C181.828 479.99 182.165 480.1 182.488 480.172C182.81 480.245 183.184 480.295 183.609 480.323L183.612 481.773L172.977 481.798L172.974 480.347C173.311 480.317 173.662 480.287 174.029 480.257C174.395 480.212 174.702 480.153 174.951 480.079C175.361 479.947 175.668 479.719 175.872 479.396C176.077 479.059 176.178 478.626 176.177 478.099L176.12 452.918C176.118 452.376 176 451.871 175.765 451.403C175.544 450.92 175.25 450.555 174.883 450.306C174.575 450.073 174.091 449.92 173.432 449.848C172.787 449.777 172.267 449.726 171.872 449.698L171.868 448.292L179.887 447.768L180.196 448.097L180.248 471.014C181.388 469.869 182.615 468.643 183.931 467.337C185.261 466.015 186.379 464.841 187.285 463.813C187.402 463.681 187.526 463.513 187.657 463.307C187.803 463.087 187.876 462.911 187.876 462.779C187.875 462.384 187.552 462.092 186.907 461.903C186.276 461.714 185.668 461.583 185.082 461.511L185.079 460.105L194.615 460.083L194.618 461.446C193.389 461.815 192.298 462.279 191.347 462.837C190.411 463.381 189.694 463.874 189.197 464.314C188.847 464.608 188.35 465.085 187.707 465.746C187.063 466.407 186.165 467.273 185.01 468.345C186.214 469.822 187.566 471.591 189.065 473.653C190.578 475.715 191.68 477.207 192.371 478.128C193.017 478.991 193.597 479.553 194.111 479.816C194.624 480.079 195.371 480.238 196.353 480.294L196.356 481.744ZM229.445 470.815C229.453 474.067 228.433 476.801 226.388 479.018C224.342 481.234 221.964 482.345 219.254 482.352C218.068 482.354 216.895 482.174 215.737 481.81C214.594 481.447 213.516 480.958 212.504 480.345L210.884 482.876L209.521 482.572C209.591 481.487 209.64 480.184 209.666 478.66C209.691 477.137 209.703 475.664 209.699 474.243L209.651 452.798C209.65 452.3 209.531 451.802 209.296 451.305C209.075 450.807 208.788 450.449 208.436 450.23C208.158 450.04 207.689 449.902 207.029 449.816C206.384 449.715 205.864 449.65 205.469 449.622L205.465 448.215L213.418 447.692L213.727 448.021L213.759 462.303L213.913 462.347C214.819 461.378 215.806 460.65 216.874 460.165C217.957 459.679 219.019 459.435 220.059 459.432C222.725 459.426 224.954 460.476 226.746 462.581C228.538 464.686 229.437 467.431 229.445 470.815ZM224.853 470.979C224.851 469.895 224.731 468.789 224.494 467.662C224.257 466.535 223.889 465.554 223.389 464.72C222.889 463.872 222.235 463.185 221.429 462.659C220.622 462.134 219.654 461.872 218.526 461.875C217.501 461.877 216.601 462.084 215.825 462.496C215.064 462.893 214.377 463.437 213.763 464.127L213.792 476.739C213.881 477.09 214.05 477.5 214.3 477.968C214.565 478.437 214.918 478.882 215.358 479.306C215.798 479.715 216.297 480.051 216.854 480.314C217.412 480.561 218.093 480.684 218.899 480.683C220.686 480.678 222.127 479.811 223.221 478.08C224.316 476.349 224.86 473.982 224.853 470.979ZM248.796 462.751C248.798 463.498 248.616 464.165 248.251 464.751C247.886 465.324 247.323 465.611 246.561 465.612C245.741 465.614 245.111 465.403 244.67 464.979C244.245 464.556 244.031 464.087 244.03 463.575C244.029 463.252 244.051 462.959 244.094 462.696C244.152 462.432 244.203 462.168 244.246 461.904C243.557 461.906 242.752 462.186 241.831 462.745C240.909 463.303 240.127 464.096 239.485 465.123L239.514 477.735C239.515 478.248 239.611 478.665 239.802 478.987C240.008 479.309 240.324 479.55 240.749 479.71C241.115 479.856 241.584 479.964 242.156 480.036C242.742 480.108 243.247 480.158 243.672 480.187L243.676 481.637L232.25 481.663L232.246 480.213C232.583 480.183 232.927 480.153 233.279 480.122C233.645 480.092 233.96 480.033 234.223 479.945C234.633 479.812 234.933 479.584 235.123 479.261C235.327 478.924 235.429 478.492 235.427 477.964L235.397 464.583C235.396 464.129 235.285 463.682 235.064 463.243C234.858 462.804 234.565 462.453 234.183 462.191C233.904 462.016 233.574 461.892 233.193 461.819C232.812 461.732 232.402 461.675 231.963 461.646L231.959 460.218L239.165 459.718L239.474 460.025L239.48 463.08L239.59 463.079C240.496 461.891 241.505 460.988 242.616 460.37C243.728 459.752 244.746 459.442 245.669 459.44C246.591 459.438 247.339 459.736 247.912 460.336C248.499 460.935 248.794 461.74 248.796 462.751ZM271.347 470.522C271.351 472.045 271.112 473.547 270.632 475.028C270.152 476.494 269.467 477.74 268.576 478.768C267.567 479.942 266.398 480.816 265.066 481.391C263.734 481.965 262.241 482.254 260.585 482.258C259.208 482.261 257.897 482.007 256.651 481.498C255.404 480.973 254.297 480.214 253.327 479.22C252.373 478.241 251.609 477.049 251.034 475.644C250.474 474.224 250.192 472.635 250.188 470.877C250.181 467.494 251.156 464.723 253.114 462.565C255.086 460.407 257.669 459.325 260.863 459.318C263.895 459.311 266.395 460.33 268.362 462.377C270.345 464.408 271.34 467.123 271.347 470.522ZM266.799 470.576C266.797 469.477 266.684 468.32 266.462 467.105C266.239 465.875 265.907 464.836 265.466 463.987C264.995 463.08 264.378 462.356 263.615 461.816C262.852 461.261 261.921 460.985 260.823 460.988C259.695 460.99 258.729 461.271 257.924 461.829C257.134 462.388 256.492 463.151 255.996 464.119C255.529 465.013 255.202 466.032 255.014 467.175C254.826 468.318 254.733 469.424 254.736 470.494C254.739 471.9 254.852 473.203 255.074 474.404C255.311 475.59 255.68 476.651 256.18 477.588C256.68 478.524 257.305 479.262 258.053 479.803C258.816 480.328 259.754 480.59 260.867 480.587C262.698 480.583 264.146 479.693 265.212 477.919C266.277 476.144 266.806 473.696 266.799 470.576ZM306.296 461.236C305.681 461.296 305.015 461.554 304.298 462.009C303.596 462.465 303.085 463.147 302.765 464.056C302.037 466.211 301.346 468.256 300.692 470.191C300.051 472.112 299.331 474.274 298.531 476.678C298.269 477.441 298 478.262 297.724 479.141C297.462 480.021 297.222 480.863 297.004 481.67L295.115 481.674L289.256 465.735L283.425 481.7L281.623 481.704C280.517 478.455 279.433 475.235 278.371 472.044C277.324 468.838 276.395 466.05 275.584 463.679C275.348 462.991 274.9 462.45 274.24 462.056C273.58 461.662 272.942 461.429 272.327 461.357L272.323 459.907L281.991 459.885L281.995 461.423C281.511 461.439 280.984 461.52 280.413 461.668C279.857 461.816 279.579 462.058 279.58 462.395C279.58 462.454 279.602 462.578 279.647 462.769C279.706 462.959 279.772 463.164 279.846 463.383C280.318 464.92 280.849 466.64 281.44 468.543C282.045 470.432 282.819 472.891 283.764 475.921L289.265 460.308L291.375 460.303L297.057 475.671C297.682 473.707 298.3 471.808 298.911 469.976C299.537 468.129 300.082 466.399 300.547 464.786C300.649 464.405 300.744 464.061 300.831 463.753C300.933 463.431 300.983 463.116 300.982 462.808C300.982 462.544 300.864 462.31 300.629 462.106C300.394 461.901 300.108 461.733 299.771 461.602C299.478 461.486 299.155 461.398 298.804 461.341C298.467 461.283 298.218 461.254 298.056 461.254L298.053 459.848L306.293 459.83L306.296 461.236ZM330.721 481.439L320.109 481.463L320.105 480.013C320.442 479.983 320.808 479.953 321.204 479.923C321.614 479.892 321.951 479.833 322.214 479.745C322.624 479.612 322.924 479.384 323.113 479.061C323.318 478.724 323.419 478.292 323.418 477.764L323.393 466.624C323.389 465.086 323.02 463.9 322.286 463.067C321.566 462.234 320.686 461.818 319.646 461.821C318.87 461.822 318.16 461.949 317.516 462.199C316.872 462.435 316.301 462.729 315.804 463.082C315.321 463.42 314.934 463.787 314.642 464.183C314.365 464.565 314.16 464.873 314.029 465.107L314.057 477.566C314.058 478.064 314.162 478.474 314.368 478.796C314.573 479.117 314.882 479.366 315.292 479.541C315.6 479.686 315.93 479.795 316.282 479.868C316.648 479.94 317.022 479.991 317.403 480.019L317.406 481.469L306.793 481.493L306.79 480.043C307.127 480.013 307.471 479.983 307.822 479.953C308.188 479.923 308.503 479.864 308.767 479.775C309.177 479.642 309.476 479.415 309.666 479.092C309.87 478.755 309.972 478.322 309.971 477.795L309.94 464.414C309.939 463.915 309.828 463.462 309.608 463.052C309.402 462.628 309.108 462.284 308.726 462.021C308.448 461.846 308.118 461.722 307.737 461.65C307.356 461.563 306.945 461.505 306.506 461.477L306.503 460.049L313.709 459.549L314.017 459.856L314.024 462.91L314.134 462.91C314.484 462.557 314.923 462.139 315.449 461.654C315.975 461.155 316.473 460.751 316.941 460.443C317.482 460.09 318.126 459.795 318.872 459.559C319.619 459.323 320.461 459.204 321.398 459.202C323.478 459.197 325.018 459.846 326.017 461.147C327.031 462.434 327.54 464.154 327.545 466.307L327.57 477.579C327.572 478.092 327.66 478.509 327.837 478.831C328.013 479.138 328.314 479.379 328.739 479.554C329.091 479.7 329.392 479.801 329.641 479.86C329.905 479.918 330.264 479.961 330.718 479.989L330.721 481.439ZM359.391 449.975C359.392 450.634 359.218 451.191 358.867 451.646C358.517 452.101 357.983 452.329 357.265 452.331C356.811 452.332 356.408 452.238 356.056 452.048C355.718 451.858 355.403 451.603 355.109 451.281C354.816 450.959 354.544 450.594 354.294 450.184C354.044 449.775 353.831 449.446 353.654 449.197C352.673 449.243 351.913 449.933 351.374 451.268C350.849 452.587 350.591 454.697 350.597 457.597L350.602 459.817L356.183 459.804L356.188 461.913L350.607 461.926L350.642 477.483C350.644 477.995 350.74 478.413 350.931 478.734C351.137 479.056 351.452 479.297 351.877 479.457C352.229 479.588 352.698 479.697 353.284 479.784C353.87 479.856 354.376 479.906 354.801 479.934L354.804 481.384L343.378 481.41L343.375 479.96C343.712 479.93 344.056 479.9 344.408 479.87C344.774 479.84 345.089 479.78 345.352 479.692C345.762 479.559 346.062 479.331 346.251 479.009C346.456 478.671 346.557 478.239 346.556 477.712L346.52 461.935L342.235 461.945L342.231 459.836L346.515 459.826L346.512 458.442C346.505 455.146 347.348 452.478 349.043 450.438C350.752 448.383 352.888 447.353 355.452 447.347C356.756 447.344 357.738 447.598 358.398 448.109C359.058 448.621 359.389 449.242 359.391 449.975ZM378.609 470.278C378.612 471.801 378.374 473.303 377.894 474.784C377.414 476.25 376.728 477.497 375.837 478.524C374.829 479.698 373.659 480.572 372.327 481.147C370.996 481.721 369.502 482.01 367.847 482.014C366.47 482.017 365.158 481.764 363.912 481.254C362.666 480.729 361.558 479.97 360.589 478.976C359.635 477.997 358.87 476.805 358.296 475.4C357.736 473.98 357.454 472.391 357.45 470.634C357.442 467.25 358.417 464.479 360.375 462.321C362.348 460.164 364.931 459.081 368.124 459.074C371.156 459.067 373.656 460.087 375.624 462.133C377.606 464.165 378.601 466.88 378.609 470.278ZM374.061 470.332C374.058 469.234 373.946 468.077 373.723 466.861C373.501 465.631 373.169 464.592 372.727 463.743C372.256 462.836 371.639 462.113 370.877 461.572C370.114 461.017 369.183 460.741 368.084 460.744C366.956 460.746 365.99 461.027 365.186 461.585C364.396 462.144 363.753 462.907 363.257 463.875C362.791 464.769 362.463 465.788 362.275 466.931C362.088 468.074 361.995 469.18 361.997 470.25C362.001 471.656 362.113 472.96 362.336 474.16C362.573 475.346 362.941 476.407 363.442 477.344C363.942 478.28 364.566 479.018 365.314 479.559C366.077 480.084 367.015 480.346 368.129 480.343C369.96 480.339 371.408 479.45 372.473 477.675C373.538 475.9 374.068 473.452 374.061 470.332ZM402.2 481.277L392.268 481.299L392.265 479.849C392.924 479.774 393.48 479.7 393.934 479.625C394.403 479.551 394.637 479.36 394.636 479.053C394.636 478.921 394.562 478.716 394.415 478.438C394.268 478.16 394.121 477.904 393.974 477.67C393.606 477.099 393.099 476.339 392.453 475.388C391.821 474.423 391.042 473.275 390.116 471.944C389.356 472.898 388.655 473.829 388.013 474.739C387.37 475.634 386.698 476.588 385.998 477.6C385.895 477.747 385.786 477.93 385.669 478.15C385.567 478.37 385.516 478.546 385.517 478.678C385.517 479 385.723 479.271 386.134 479.489C386.559 479.694 387.189 479.831 388.024 479.903L388.028 481.309L380.008 481.327L380.004 479.965C381 479.67 381.797 479.316 382.397 478.905C383.011 478.478 383.574 477.957 384.085 477.341C384.538 476.754 385.166 475.947 385.97 474.919C386.788 473.892 387.839 472.498 389.124 470.737C388.375 469.67 387.456 468.368 386.369 466.833C385.296 465.282 384.407 463.995 383.701 462.971C383.319 462.416 382.879 461.97 382.38 461.634C381.896 461.284 381.207 461.109 380.313 461.111L380.31 459.661L389.736 459.64L389.739 461.09C389.271 461.091 388.809 461.121 388.355 461.181C387.901 461.241 387.675 461.373 387.675 461.578C387.675 461.71 387.72 461.856 387.808 462.017C387.896 462.178 388.006 462.354 388.139 462.544C388.462 463.041 388.962 463.809 389.638 464.848C390.329 465.886 391.071 466.983 391.865 468.138C392.376 467.434 392.967 466.613 393.639 465.673C394.325 464.734 394.953 463.839 395.523 462.989C395.581 462.886 395.639 462.761 395.698 462.615C395.756 462.453 395.785 462.299 395.784 462.153C395.784 461.845 395.527 461.604 395.014 461.43C394.515 461.24 394.039 461.11 393.585 461.037L393.581 459.631L401.579 459.613L401.582 460.975C400.455 461.271 399.577 461.624 398.948 462.036C398.319 462.433 397.786 462.895 397.347 463.424C396.865 464.026 396.288 464.767 395.617 465.647C394.959 466.527 394.032 467.76 392.834 469.345C394.172 471.217 395.259 472.752 396.097 473.952C396.935 475.151 397.78 476.387 398.632 477.659C399.058 478.303 399.528 478.814 400.042 479.194C400.57 479.559 401.288 479.77 402.197 479.826L402.2 481.277ZM13.6922 548.842C13.6959 550.453 13.4649 551.962 12.9994 553.369C12.5339 554.791 11.914 555.965 11.1397 556.889C10.307 557.873 9.36385 558.622 8.31033 559.137C7.2715 559.667 6.1222 559.933 4.86243 559.936C3.55873 559.939 2.57668 559.677 1.91631 559.152C1.25596 558.64 0.924992 558.033 0.923394 557.33C0.921962 556.7 1.09648 556.143 1.44694 555.659C1.79744 555.189 2.3096 554.954 2.98342 554.952C3.43752 554.951 3.84057 555.046 4.19257 555.235C4.54456 555.425 4.85274 555.673 5.11711 555.98C5.35209 556.243 5.58719 556.565 5.82243 556.945C6.07236 557.34 6.3076 557.721 6.52816 558.086C7.64143 558.084 8.43092 557.408 8.8966 556.059C9.37694 554.711 9.61372 552.55 9.60696 549.576L9.56991 533.272C9.56884 532.803 9.45064 532.357 9.2153 531.933C8.99457 531.494 8.70081 531.143 8.334 530.88C8.09926 530.719 7.53493 530.56 6.64101 530.4C5.76174 530.241 5.095 530.14 4.6408 530.097L4.6377 528.735L13.3378 528.232L13.6461 528.539L13.6922 548.842ZM13.9555 519.661C13.9574 520.496 13.6807 521.229 13.1255 521.86C12.5849 522.477 11.9118 522.786 11.1061 522.788C10.3591 522.789 9.70655 522.498 9.14858 521.913C8.60522 521.314 8.33268 520.633 8.33095 519.872C8.32912 519.066 8.59851 518.362 9.13914 517.76C9.69441 517.159 10.3456 516.857 11.0927 516.855C11.9276 516.853 12.6094 517.137 13.1381 517.707C13.6813 518.263 13.9538 518.914 13.9555 519.661ZM41.7208 549.701L34.6687 550.2L34.3384 549.893L34.3322 547.147L34.2003 547.147C33.8496 547.514 33.455 547.91 33.0165 548.336C32.578 548.747 32.0735 549.122 31.5029 549.46C30.8447 549.857 30.2081 550.159 29.5934 550.365C28.9786 550.572 28.1073 550.676 26.9793 550.679C25.0604 550.683 23.5941 550.064 22.5806 548.821C21.5816 547.564 21.0794 545.741 21.074 543.354L21.0504 532.982C21.0492 532.455 20.9457 532.016 20.7398 531.665C20.5486 531.299 20.2622 530.985 19.8807 530.722C19.6167 530.547 19.2868 530.423 18.8911 530.351C18.4954 530.264 18.0778 530.206 17.6383 530.178L17.635 528.749L24.8628 528.206L25.1931 528.513L25.2273 543.564C25.2309 545.131 25.5851 546.31 26.29 547.099C26.995 547.888 27.8382 548.282 28.8196 548.28C29.6253 548.278 30.3427 548.152 30.9721 547.901C31.6014 547.651 32.1281 547.357 32.5521 547.019C32.9469 546.71 33.2904 546.387 33.5826 546.05C33.8894 545.697 34.1231 545.375 34.2835 545.081L34.2556 532.799C34.2545 532.315 34.151 531.891 33.9451 531.525C33.7392 531.145 33.4528 530.823 33.086 530.56C32.8219 530.385 32.4262 530.283 31.8988 530.255C31.386 530.212 30.8073 530.177 30.1627 530.149L30.1594 528.721L38.0244 528.176L38.3547 528.483L38.3938 545.687C38.3949 546.185 38.4984 546.61 38.7043 546.961C38.9102 547.312 39.1965 547.612 39.5633 547.86C39.8273 548.02 40.1425 548.13 40.5089 548.187C40.8752 548.23 41.2781 548.259 41.7176 548.272L41.7208 549.701ZM81.0421 550.007L70.4733 550.031L70.47 548.581C70.8068 548.551 71.1437 548.52 71.4805 548.49C71.832 548.46 72.1395 548.401 72.403 548.313C72.8128 548.18 73.1126 547.952 73.3023 547.629C73.5066 547.292 73.6082 546.86 73.607 546.332L73.5816 535.148C73.5781 533.625 73.2239 532.454 72.5189 531.635C71.8285 530.802 70.9633 530.386 69.9233 530.388C69.2055 530.39 68.5319 530.501 67.9025 530.723C67.2732 530.944 66.6952 531.253 66.1688 531.649C65.7447 531.973 65.3866 532.325 65.0945 532.707C64.8171 533.073 64.6054 533.382 64.4594 533.631L64.4879 546.133C64.489 546.646 64.5779 547.071 64.7544 547.407C64.9309 547.729 65.2318 547.977 65.657 548.152C65.9942 548.283 66.2947 548.385 66.5586 548.458C66.837 548.516 67.196 548.559 67.6355 548.587L67.6388 550.037L57.2897 550.061L57.2864 548.611C57.6233 548.581 57.9455 548.55 58.253 548.52C58.5752 548.49 58.8681 548.431 59.1315 548.343C59.5414 548.21 59.8412 547.982 60.0309 547.66C60.2352 547.322 60.3367 546.89 60.3355 546.362L60.3101 535.178C60.3066 533.655 59.9524 532.484 59.2474 531.665C58.5571 530.832 57.6919 530.416 56.6518 530.419C55.9341 530.42 55.2605 530.539 54.6311 530.775C54.0018 530.996 53.4238 531.305 52.8974 531.702C52.4733 532.025 52.1153 532.392 51.8232 532.803C51.5312 533.199 51.3121 533.5 51.1661 533.705L51.1943 546.12C51.1955 546.618 51.299 547.035 51.5048 547.371C51.7106 547.708 52.0188 547.963 52.4294 548.138C52.7373 548.284 53.0525 548.393 53.375 548.466C53.6974 548.538 54.0564 548.589 54.452 548.617L54.4553 550.067L43.9304 550.091L43.9271 548.641C44.2639 548.611 44.6081 548.581 44.9596 548.551C45.3258 548.521 45.6406 548.461 45.904 548.373C46.3139 548.24 46.6137 548.012 46.8034 547.69C47.0077 547.352 47.1092 546.92 47.108 546.392L47.0774 532.923C47.0763 532.455 46.9655 532.037 46.745 531.672C46.539 531.291 46.2453 530.97 45.8639 530.707C45.5852 530.532 45.2406 530.393 44.8302 530.292C44.4198 530.175 43.9948 530.103 43.5553 530.075L43.5521 528.647L50.8019 528.147L51.1102 528.454L51.1173 531.552L51.2711 531.551C51.6365 531.184 52.0823 530.751 52.6085 530.252C53.1347 529.753 53.6245 529.349 54.0779 529.04C54.5898 528.687 55.2263 528.393 55.9875 528.157C56.7633 527.921 57.598 527.802 58.4916 527.8C59.8978 527.796 61.1072 528.175 62.1197 528.934C63.1321 529.679 63.8593 530.585 64.3011 531.654C64.8273 531.14 65.2877 530.692 65.6824 530.31C66.0916 529.914 66.6253 529.495 67.2835 529.054C67.8393 528.672 68.4904 528.363 69.237 528.127C69.9982 527.891 70.8402 527.772 71.763 527.77C73.5941 527.765 75.0456 528.363 76.1177 529.561C77.1898 530.76 77.7286 532.605 77.7343 535.095L77.7593 546.103C77.7605 546.616 77.8493 547.04 78.0259 547.377C78.2024 547.699 78.5032 547.947 78.9284 548.122C79.2657 548.253 79.5955 548.355 79.9179 548.427C80.255 548.485 80.6286 548.528 81.0388 548.557L81.0421 550.007ZM102.873 530.863C103.739 531.886 104.409 533.079 104.881 534.44C105.367 535.786 105.612 537.331 105.616 539.074C105.62 540.788 105.338 542.356 104.77 543.779C104.202 545.186 103.45 546.389 102.515 547.387C101.536 548.4 100.446 549.179 99.2463 549.724C98.0464 550.268 96.7726 550.542 95.4249 550.545C94.1212 550.548 93.0515 550.404 92.2159 550.113C91.3803 549.822 90.6984 549.479 90.1701 549.085L89.9943 549.086L90.0091 555.589C90.0103 556.117 90.1139 556.556 90.3197 556.907C90.5256 557.258 90.8411 557.514 91.2663 557.674C91.6182 557.805 92.1165 557.928 92.7613 558.044C93.4208 558.174 93.9629 558.246 94.3878 558.26L94.3911 559.732L82.2842 559.76L82.2809 558.288C82.7349 558.257 83.1743 558.22 83.599 558.175C84.0237 558.13 84.4044 558.056 84.741 557.952C85.1802 557.805 85.4872 557.548 85.6621 557.181C85.8371 556.815 85.924 556.382 85.9229 555.884L85.8705 532.835C85.8695 532.396 85.7587 531.971 85.538 531.561C85.3173 531.152 85.0309 530.823 84.6788 530.575C84.4147 530.399 84.0482 530.268 83.5793 530.182C83.1103 530.08 82.6561 530.015 82.2165 529.987L82.2133 528.559L89.595 528.059L89.9032 528.322L89.9087 530.761L90.0846 530.804C90.8443 529.923 91.7875 529.189 92.9141 528.6C94.0407 528.012 95.1606 527.716 96.2739 527.714C97.6216 527.711 98.8527 527.994 99.9672 528.562C101.096 529.131 102.065 529.898 102.873 530.863ZM99.3268 546.45C99.9106 545.54 100.34 544.484 100.616 543.283C100.892 542.081 101.028 540.74 101.024 539.261C101.022 538.177 100.902 537.071 100.665 535.944C100.428 534.816 100.06 533.836 99.5599 533.002C99.0599 532.153 98.4065 531.466 97.5996 530.941C96.7927 530.415 95.8253 530.154 94.6974 530.156C93.6134 530.159 92.6911 530.403 91.9305 530.888C91.1699 531.358 90.512 531.924 89.9568 532.584L89.986 545.394C90.1187 545.789 90.332 546.199 90.626 546.623C90.9345 547.047 91.2723 547.413 91.6392 547.72C92.0941 548.085 92.5855 548.384 93.1134 548.617C93.6412 548.836 94.286 548.944 95.0477 548.942C95.868 548.94 96.6586 548.726 97.4193 548.3C98.18 547.858 98.8159 547.242 99.3268 546.45ZM122.657 539.299C123.259 539.825 123.722 540.432 124.045 541.12C124.369 541.808 124.532 542.65 124.535 543.646C124.539 545.653 123.788 547.295 122.283 548.573C120.791 549.851 118.852 550.492 116.464 550.498C115.204 550.5 114.039 550.276 112.969 549.824C111.913 549.373 111.158 548.957 110.703 548.577L110.267 550.006L108.619 550.01L108.382 542.474L109.898 542.47C110.016 543.041 110.267 543.707 110.65 544.468C111.032 545.229 111.495 545.917 112.039 546.531C112.611 547.174 113.294 547.714 114.086 548.152C114.892 548.59 115.794 548.807 116.79 548.805C118.196 548.802 119.279 548.484 120.04 547.853C120.8 547.206 121.179 546.29 121.176 545.104C121.175 544.488 121.049 543.961 120.799 543.522C120.563 543.069 120.211 542.674 119.741 542.338C119.257 542.002 118.663 541.703 117.96 541.441C117.256 541.165 116.472 540.895 115.607 540.634C114.918 540.43 114.148 540.154 113.298 539.804C112.462 539.44 111.743 539.017 111.142 538.535C110.496 538.023 109.967 537.395 109.555 536.648C109.143 535.902 108.936 535.024 108.934 534.013C108.93 532.241 109.586 530.738 110.901 529.504C112.217 528.271 113.981 527.652 116.192 527.647C117.042 527.645 117.907 527.753 118.786 527.97C119.68 528.188 120.406 528.45 120.963 528.756L121.466 527.613L123.048 527.609L123.393 534.574L121.877 534.577C121.566 533.025 120.897 531.767 119.869 530.802C118.856 529.823 117.617 529.335 116.152 529.339C114.951 529.341 114.007 529.644 113.32 530.246C112.633 530.848 112.29 531.574 112.292 532.423C112.294 533.083 112.405 533.632 112.626 534.071C112.861 534.51 113.206 534.882 113.661 535.189C114.101 535.481 114.651 535.758 115.311 536.02C115.985 536.268 116.813 536.551 117.795 536.871C118.763 537.177 119.672 537.534 120.523 537.942C121.388 538.35 122.099 538.803 122.657 539.299ZM158.89 538.778C158.893 540.301 158.655 541.803 158.175 543.284C157.695 544.75 157.009 545.996 156.118 547.024C155.11 548.198 153.94 549.072 152.608 549.646C151.276 550.221 149.783 550.51 148.128 550.513C146.751 550.517 145.439 550.263 144.193 549.753C142.947 549.229 141.839 548.47 140.87 547.476C139.915 546.496 139.151 545.304 138.577 543.899C138.017 542.48 137.735 540.891 137.731 539.133C137.723 535.749 138.698 532.979 140.656 530.821C142.629 528.663 145.212 527.581 148.405 527.573C151.437 527.566 153.937 528.586 155.905 530.632C157.887 532.664 158.882 535.379 158.89 538.778ZM154.341 538.832C154.339 537.733 154.226 536.576 154.004 535.361C153.781 534.131 153.449 533.092 153.008 532.243C152.537 531.336 151.92 530.612 151.157 530.072C150.394 529.517 149.464 529.241 148.365 529.243C147.237 529.246 146.271 529.526 145.467 530.085C144.677 530.643 144.034 531.407 143.538 532.374C143.071 533.269 142.744 534.288 142.556 535.431C142.368 536.574 142.276 537.68 142.278 538.749C142.281 540.156 142.394 541.459 142.617 542.66C142.854 543.846 143.222 544.907 143.723 545.843C144.223 546.78 144.847 547.518 145.595 548.058C146.358 548.584 147.296 548.845 148.41 548.843C150.241 548.839 151.689 547.949 152.754 546.174C153.819 544.399 154.349 541.952 154.341 538.832ZM182.962 529.45C182.303 529.569 181.674 529.812 181.074 530.18C180.489 530.533 179.985 531.164 179.562 532.073C178.702 534.038 177.813 536.09 176.895 538.231C175.977 540.357 175.023 542.593 174.032 544.939C173.741 545.614 173.428 546.413 173.093 547.337C172.773 548.26 172.474 549.147 172.198 549.997L170.484 550.001C169.085 546.562 167.796 543.43 166.618 540.606C165.439 537.767 164.217 534.862 162.95 531.891C162.656 531.218 162.179 530.699 161.519 530.334C160.873 529.955 160.221 529.714 159.561 529.613L159.558 528.163L169.578 528.14L169.581 529.679C169.142 529.694 168.593 529.791 167.934 529.968C167.275 530.131 166.946 530.358 166.947 530.651C166.947 530.695 166.984 530.812 167.057 531.003C167.131 531.178 167.205 531.383 167.278 531.617C167.882 533.11 168.737 535.196 169.841 537.874C170.946 540.552 171.845 542.711 172.537 544.35C173.061 543.089 173.717 541.52 174.504 539.643C175.305 537.766 176.165 535.669 177.082 533.353C177.228 532.957 177.366 532.591 177.497 532.253C177.628 531.901 177.693 531.55 177.692 531.198C177.692 530.949 177.567 530.73 177.317 530.54C177.083 530.335 176.797 530.16 176.459 530.014C176.122 529.869 175.792 529.76 175.47 529.687C175.147 529.615 174.884 529.564 174.678 529.535L174.675 528.129L182.959 528.11L182.962 529.45ZM202.761 544.632C201.857 546.363 200.644 547.743 199.123 548.772C197.602 549.8 195.853 550.317 193.875 550.322C192.132 550.326 190.601 550.021 189.281 549.409C187.976 548.797 186.897 547.964 186.045 546.912C185.193 545.859 184.553 544.63 184.125 543.225C183.712 541.819 183.503 540.333 183.5 538.766C183.497 537.359 183.713 535.982 184.15 534.633C184.601 533.27 185.257 532.045 186.119 530.959C186.952 529.917 187.982 529.08 189.211 528.447C190.455 527.8 191.846 527.475 193.384 527.471C194.966 527.468 196.322 527.713 197.451 528.209C198.58 528.704 199.497 529.383 200.202 530.246C200.877 531.065 201.378 532.031 201.703 533.143C202.042 534.256 202.213 535.464 202.216 536.767L202.219 538.218L187.871 538.25C187.875 539.671 188.009 540.96 188.276 542.117C188.557 543.273 188.991 544.29 189.579 545.168C190.152 546.016 190.901 546.688 191.825 547.184C192.749 547.665 193.848 547.905 195.122 547.902C196.426 547.899 197.546 547.596 198.482 546.993C199.433 546.376 200.346 545.275 201.221 543.691L202.761 544.632ZM197.887 536.382C197.885 535.561 197.81 534.683 197.661 533.746C197.527 532.808 197.305 532.025 196.996 531.396C196.658 530.723 196.195 530.175 195.608 529.751C195.021 529.328 194.267 529.117 193.344 529.119C191.806 529.123 190.525 529.77 189.503 531.061C188.495 532.338 187.95 534.119 187.867 536.405L197.887 536.382ZM221.374 530.813C221.376 531.56 221.194 532.227 220.829 532.814C220.465 533.386 219.901 533.673 219.14 533.675C218.319 533.677 217.689 533.466 217.248 533.042C216.823 532.618 216.609 532.15 216.608 531.637C216.607 531.315 216.629 531.022 216.672 530.758C216.73 530.494 216.781 530.23 216.824 529.967C216.135 529.968 215.33 530.248 214.409 530.807C213.487 531.366 212.705 532.159 212.063 533.185L212.092 545.798C212.093 546.31 212.189 546.728 212.38 547.05C212.586 547.371 212.902 547.612 213.327 547.773C213.693 547.918 214.162 548.027 214.734 548.099C215.32 548.171 215.825 548.221 216.25 548.249L216.254 549.699L204.828 549.725L204.825 548.275C205.161 548.245 205.506 548.215 205.857 548.185C206.223 548.155 206.538 548.096 206.801 548.007C207.211 547.874 207.511 547.647 207.701 547.324C207.905 546.986 208.007 546.554 208.005 546.027L207.975 532.645C207.974 532.191 207.863 531.745 207.642 531.306C207.436 530.867 207.143 530.516 206.761 530.253C206.482 530.078 206.153 529.954 205.771 529.882C205.39 529.795 204.98 529.737 204.541 529.709L204.537 528.281L211.743 527.781L212.052 528.088L212.059 531.142L212.168 531.142C213.074 529.953 214.083 529.05 215.194 528.432C216.306 527.815 217.324 527.505 218.247 527.502C219.169 527.5 219.917 527.799 220.49 528.398C221.077 528.998 221.372 529.803 221.374 530.813ZM246.618 548.686C245.667 549.083 244.767 549.415 243.918 549.681C243.069 549.961 242.029 550.102 240.799 550.105C238.983 550.109 237.7 549.658 236.951 548.752C236.216 547.83 235.847 546.535 235.843 544.865L235.81 530.187L231.899 530.196L231.894 528.087L235.893 528.078L235.878 521.332L239.877 521.323L239.892 528.069L246.11 528.054L246.115 530.164L239.941 530.178L239.968 542.285C239.97 543.193 240.001 543.955 240.061 544.57C240.136 545.17 240.298 545.697 240.548 546.151C240.784 546.575 241.136 546.896 241.605 547.115C242.074 547.334 242.704 547.442 243.495 547.44C243.862 547.439 244.396 547.409 245.099 547.349C245.817 547.274 246.322 547.185 246.615 547.082L246.618 548.686ZM271.879 549.573L261.244 549.597L261.241 548.147C261.577 548.117 261.951 548.087 262.361 548.057C262.771 548.026 263.108 547.967 263.371 547.878C263.781 547.746 264.081 547.518 264.271 547.195C264.475 546.858 264.576 546.426 264.575 545.898L264.55 534.758C264.546 533.22 264.178 532.034 263.443 531.201C262.724 530.368 261.844 529.952 260.804 529.955C260.042 529.956 259.332 530.082 258.673 530.333C258.029 530.569 257.451 530.863 256.939 531.216C256.442 531.583 256.062 531.95 255.799 532.317C255.536 532.684 255.332 532.992 255.186 533.241L255.214 545.7C255.216 546.198 255.312 546.608 255.503 546.93C255.709 547.251 256.017 547.5 256.427 547.675C256.75 547.82 257.08 547.929 257.417 548.002C257.769 548.074 258.15 548.125 258.56 548.153L258.563 549.603L247.928 549.627L247.925 548.177C248.262 548.147 248.613 548.117 248.98 548.087C249.346 548.042 249.653 547.983 249.902 547.909C250.312 547.776 250.619 547.549 250.823 547.226C251.028 546.888 251.129 546.456 251.128 545.929L251.071 520.704C251.07 520.206 250.951 519.708 250.716 519.211C250.495 518.713 250.201 518.34 249.834 518.092C249.57 517.902 249.101 517.772 248.427 517.7C247.768 517.614 247.233 517.556 246.823 517.528L246.82 516.122L254.838 515.598L255.147 515.927L255.181 531.044L255.269 531.044C255.751 530.559 256.19 530.134 256.584 529.766C256.979 529.385 257.498 528.988 258.142 528.576C258.698 528.224 259.349 527.929 260.095 527.693C260.857 527.457 261.706 527.338 262.643 527.336C264.577 527.331 266.065 527.943 267.108 529.171C268.151 530.385 268.675 532.141 268.68 534.441L268.706 545.713C268.707 546.226 268.796 546.643 268.972 546.965C269.163 547.272 269.472 547.513 269.897 547.688C270.234 547.819 270.534 547.921 270.798 547.993C271.077 548.051 271.436 548.095 271.875 548.123L271.879 549.573ZM293.324 544.427C292.419 546.157 291.207 547.537 289.686 548.566C288.164 549.595 286.415 550.111 284.438 550.116C282.694 550.12 281.163 549.816 279.843 549.203C278.538 548.591 277.46 547.759 276.608 546.706C275.756 545.653 275.116 544.424 274.688 543.019C274.274 541.613 274.066 540.127 274.062 538.56C274.059 537.153 274.276 535.776 274.712 534.427C275.163 533.064 275.819 531.839 276.681 530.753C277.514 529.712 278.545 528.874 279.774 528.242C281.017 527.594 282.408 527.269 283.946 527.265C285.528 527.262 286.884 527.508 288.013 528.003C289.142 528.499 290.059 529.178 290.764 530.04C291.44 530.859 291.94 531.825 292.265 532.937C292.604 534.05 292.775 535.258 292.778 536.562L292.782 538.012L278.434 538.044C278.437 539.465 278.572 540.754 278.838 541.911C279.119 543.067 279.553 544.084 280.141 544.962C280.714 545.81 281.463 546.482 282.387 546.978C283.311 547.46 284.41 547.699 285.685 547.696C286.988 547.693 288.108 547.39 289.044 546.787C289.995 546.17 290.908 545.069 291.783 543.485L293.324 544.427ZM288.449 536.176C288.447 535.356 288.372 534.477 288.223 533.54C288.089 532.603 287.868 531.819 287.559 531.19C287.22 530.517 286.758 529.969 286.171 529.545C285.584 529.122 284.829 528.911 283.906 528.913C282.368 528.917 281.088 529.564 280.065 530.856C279.057 532.132 278.512 533.913 278.429 536.199L288.449 536.176ZM315.946 549.473L305.377 549.497L305.374 548.047C305.711 548.017 306.069 547.987 306.45 547.956C306.831 547.912 307.146 547.852 307.395 547.778C307.805 547.646 308.112 547.418 308.316 547.095C308.52 546.758 308.622 546.325 308.621 545.798L308.564 520.705C308.562 520.178 308.444 519.688 308.209 519.234C307.988 518.766 307.694 518.4 307.327 518.137C307.063 517.962 306.579 517.802 305.876 517.657C305.173 517.512 304.608 517.426 304.184 517.397L304.18 515.991L312.331 515.467L312.639 515.796L312.707 545.525C312.708 546.038 312.804 546.462 312.995 546.799C313.187 547.121 313.495 547.369 313.92 547.544C314.243 547.69 314.558 547.799 314.866 547.871C315.188 547.944 315.547 547.994 315.943 548.023L315.946 549.473ZM338.742 549.026C338.054 549.276 337.447 549.475 336.92 549.623C336.407 549.785 335.822 549.867 335.162 549.869C334.02 549.871 333.104 549.61 332.414 549.084C331.739 548.543 331.305 547.761 331.112 546.736L330.98 546.736C330.031 547.793 329.007 548.601 327.91 549.16C326.827 549.719 325.517 550 323.979 550.004C322.353 550.008 321.011 549.513 319.954 548.519C318.912 547.525 318.389 546.223 318.385 544.611C318.383 543.776 318.499 543.029 318.732 542.369C318.965 541.71 319.315 541.116 319.782 540.587C320.148 540.147 320.63 539.758 321.23 539.419C321.83 539.066 322.393 538.787 322.92 538.581C323.578 538.33 324.91 537.866 326.916 537.187C328.936 536.509 330.297 535.978 330.999 535.596L330.994 533.421C330.994 533.23 330.949 532.864 330.86 532.322C330.785 531.78 330.616 531.268 330.351 530.785C330.057 530.244 329.638 529.776 329.095 529.382C328.567 528.973 327.812 528.77 326.831 528.772C326.157 528.773 325.527 528.892 324.942 529.128C324.371 529.349 323.969 529.584 323.735 529.834C323.736 530.126 323.803 530.558 323.936 531.129C324.083 531.7 324.158 532.228 324.159 532.711C324.16 533.224 323.927 533.693 323.459 534.119C323.006 534.545 322.369 534.759 321.549 534.76C320.816 534.762 320.274 534.507 319.921 533.995C319.583 533.468 319.413 532.883 319.412 532.238C319.41 531.565 319.643 530.919 320.111 530.303C320.593 529.687 321.214 529.136 321.974 528.651C322.633 528.239 323.43 527.893 324.367 527.613C325.304 527.318 326.219 527.169 327.113 527.167C328.343 527.164 329.413 527.25 330.321 527.424C331.245 527.583 332.08 527.94 332.829 528.494C333.577 529.035 334.143 529.773 334.526 530.71C334.923 531.632 335.124 532.825 335.127 534.29C335.132 536.385 335.114 538.245 335.074 539.871C335.033 541.483 335.015 543.248 335.02 545.167C335.021 545.738 335.117 546.192 335.309 546.528C335.514 546.865 335.823 547.15 336.233 547.383C336.453 547.515 336.798 547.587 337.267 547.601C337.75 547.614 338.241 547.62 338.739 547.619L338.742 549.026ZM331.047 537.441C329.803 537.81 328.712 538.172 327.776 538.526C326.839 538.879 325.968 539.321 325.164 539.85C324.433 540.35 323.855 540.944 323.432 541.634C323.009 542.308 322.798 543.114 322.8 544.052C322.803 545.268 323.12 546.161 323.751 546.73C324.397 547.3 325.211 547.584 326.192 547.582C327.232 547.58 328.147 547.328 328.937 546.829C329.727 546.314 330.392 545.712 330.933 545.022L331.047 537.441ZM357.607 549.378L340.073 549.418L340.07 548.253L352.288 529.505L349.256 529.512C347.982 529.515 346.986 529.539 346.268 529.585C345.55 529.63 344.891 529.778 344.291 530.028C343.882 530.191 343.494 530.653 343.13 531.415C342.78 532.178 342.475 533.175 342.214 534.406L340.874 534.409L340.858 527.751L357.426 527.713L357.428 528.614L345.012 547.627C345.54 547.64 346.119 547.654 346.748 547.667C347.378 547.666 348.059 547.664 348.792 547.662C349.378 547.661 349.986 547.652 350.616 547.636C351.26 547.62 352.08 547.582 353.076 547.521C353.662 547.49 354.101 547.291 354.393 546.925C354.7 546.558 354.933 546.14 355.094 545.67C355.254 545.245 355.443 544.659 355.661 543.911C355.893 543.164 356.097 542.438 356.271 541.735L357.589 541.732L357.607 549.378ZM358.359 556.452C358.358 555.719 358.554 555.118 358.949 554.649C359.358 554.194 359.863 553.965 360.463 553.964C360.932 553.963 361.335 554.05 361.672 554.225C362.01 554.4 362.31 554.626 362.575 554.904C362.795 555.123 363.03 555.423 363.28 555.803C363.53 556.184 363.728 556.498 363.875 556.747C364.607 556.35 365.476 555.315 366.483 553.643C367.505 551.97 368.241 550.504 368.692 549.243C367.293 545.775 366.026 542.672 364.892 539.935C363.758 537.199 362.572 534.367 361.335 531.44C361.055 530.767 360.585 530.248 359.925 529.883C359.265 529.504 358.605 529.264 357.946 529.162L357.943 527.712L367.83 527.69L367.834 529.228C367.394 529.244 366.867 529.34 366.252 529.517C365.637 529.68 365.33 529.871 365.331 530.091C365.331 530.178 365.361 530.325 365.42 530.53C365.493 530.735 365.574 530.947 365.663 531.166C366.223 532.615 367.077 534.708 368.226 537.445C369.375 540.167 370.266 542.347 370.899 543.987C371.555 542.418 372.233 540.798 372.932 539.126C373.646 537.44 374.44 535.453 375.313 533.166C375.415 532.887 375.561 532.506 375.75 532.022C375.94 531.524 376.034 531.099 376.033 530.747C376.032 530.366 375.694 530.016 375.02 529.695C374.36 529.36 373.73 529.156 373.129 529.084L373.126 527.678L381.168 527.66L381.171 529.022C380.731 529.096 380.153 529.354 379.437 529.795C378.72 530.221 378.187 530.83 377.837 531.622C376.103 535.669 374.558 539.357 373.204 542.685C371.864 546.013 370.844 548.462 370.144 550.031C369.226 552.084 368.402 553.682 367.672 554.826C366.957 555.985 366.256 556.895 365.569 557.556C364.897 558.173 364.282 558.584 363.726 558.791C363.185 559.011 362.621 559.123 362.035 559.124C360.892 559.127 359.991 558.858 359.33 558.317C358.685 557.777 358.361 557.155 358.359 556.452ZM415.824 548.85L408.266 549.351L407.936 549.044L407.931 547.023L407.755 546.979C406.996 547.83 406.052 548.528 404.926 549.073C403.814 549.617 402.664 549.891 401.478 549.894C400.247 549.896 399.053 549.628 397.894 549.089C396.751 548.535 395.753 547.761 394.901 546.767C394.034 545.758 393.343 544.543 392.827 543.124C392.326 541.704 392.073 540.137 392.069 538.423C392.066 536.856 392.333 535.369 392.872 533.961C393.411 532.554 394.155 531.321 395.105 530.265C395.996 529.281 397.086 528.495 398.374 527.906C399.676 527.317 401.001 527.021 402.349 527.018C403.359 527.016 404.349 527.145 405.316 527.407C406.298 527.654 407.141 527.974 407.845 528.368L407.828 520.831C407.826 520.216 407.723 519.66 407.516 519.162C407.31 518.65 407.024 518.262 406.657 517.999C406.246 517.722 405.689 517.526 404.986 517.41C404.297 517.28 403.55 517.186 402.744 517.129L402.741 515.767L411.594 515.242L411.925 515.571L411.991 544.794C411.992 545.307 412.089 545.746 412.28 546.112C412.486 546.463 412.779 546.763 413.161 547.011C413.439 547.186 413.843 547.295 414.37 547.338C414.897 547.38 415.381 547.408 415.82 547.422L415.824 548.85ZM407.883 545.067L407.854 532.389C407.736 532.008 407.545 531.599 407.28 531.16C407.015 530.721 406.685 530.319 406.288 529.953C405.863 529.588 405.364 529.289 404.792 529.056C404.22 528.808 403.554 528.685 402.792 528.687C401.913 528.689 401.101 528.918 400.355 529.374C399.623 529.829 398.973 530.483 398.403 531.334C397.863 532.155 397.434 533.204 397.114 534.479C396.809 535.739 396.659 537.138 396.662 538.677C396.665 539.907 396.785 541.027 397.022 542.038C397.258 543.033 397.656 543.962 398.214 544.825C398.729 545.645 399.382 546.302 400.174 546.798C400.981 547.295 401.934 547.542 403.033 547.539C404.204 547.536 405.171 547.278 405.931 546.763C406.706 546.249 407.357 545.684 407.883 545.067ZM438.574 538.142C438.578 539.665 438.34 541.167 437.86 542.648C437.38 544.114 436.694 545.36 435.803 546.388C434.795 547.562 433.625 548.436 432.293 549.011C430.961 549.585 429.468 549.874 427.813 549.878C426.436 549.881 425.124 549.628 423.878 549.118C422.631 548.593 421.524 547.834 420.555 546.84C419.6 545.861 418.836 544.669 418.261 543.264C417.701 541.844 417.42 540.255 417.416 538.498C417.408 535.114 418.383 532.343 420.341 530.185C422.314 528.027 424.897 526.945 428.09 526.938C431.122 526.931 433.622 527.95 435.59 529.997C437.572 532.028 438.567 534.743 438.574 538.142ZM434.026 538.196C434.024 537.097 433.911 535.941 433.689 534.725C433.466 533.495 433.134 532.456 432.693 531.607C432.222 530.7 431.605 529.977 430.842 529.436C430.079 528.881 429.148 528.605 428.05 528.608C426.922 528.61 425.956 528.891 425.151 529.449C424.362 530.008 423.719 530.771 423.223 531.739C422.756 532.633 422.429 533.652 422.241 534.795C422.053 535.938 421.961 537.044 421.963 538.114C421.966 539.52 422.079 540.823 422.302 542.024C422.539 543.21 422.907 544.271 423.407 545.208C423.908 546.144 424.532 546.882 425.28 547.423C426.043 547.948 426.981 548.21 428.094 548.207C429.925 548.203 431.374 547.314 432.439 545.539C433.504 543.764 434.033 541.316 434.026 538.196ZM459.853 546.905C460.441 547.46 460.903 548.089 461.242 548.791C461.581 549.493 461.751 550.365 461.753 551.405C461.756 552.445 461.531 553.419 461.079 554.329C460.627 555.252 459.94 556.052 459.019 556.728C458.039 557.419 456.868 557.956 455.507 558.34C454.145 558.724 452.461 558.918 450.454 558.923C447.173 558.93 444.719 558.453 443.09 557.49C441.462 556.541 440.646 555.144 440.642 553.298C440.638 551.804 441.222 550.624 442.392 549.757C443.562 548.89 445.055 548.418 446.871 548.34L446.87 548.033C446.43 547.902 445.976 547.742 445.507 547.552C445.038 547.348 444.634 547.115 444.297 546.852C443.915 546.545 443.607 546.187 443.371 545.777C443.136 545.353 443.018 544.833 443.016 544.218C443.014 543.442 443.284 542.731 443.824 542.085C444.38 541.425 445.213 540.859 446.325 540.387L446.325 540.058C444.917 539.402 443.824 538.562 443.045 537.538C442.266 536.5 441.875 535.3 441.872 533.938C441.868 531.887 442.625 530.2 444.146 528.879C445.681 527.557 447.642 526.893 450.03 526.888C450.689 526.886 451.341 526.951 451.986 527.081C452.646 527.211 453.312 527.378 453.987 527.582L461.545 527.565L461.55 529.674L456.452 529.686L456.453 529.817C456.996 530.446 457.401 531.141 457.666 531.902C457.931 532.663 458.065 533.41 458.067 534.142C458.071 536.047 457.298 537.66 455.749 538.982C454.213 540.304 452.42 540.967 450.37 540.971L447.711 540.978C447.374 541.095 447.023 541.309 446.658 541.617C446.292 541.926 446.11 542.343 446.111 542.871C446.113 543.413 446.267 543.83 446.576 544.122C446.884 544.4 447.258 544.589 447.697 544.691C448.123 544.807 448.613 544.879 449.17 544.907C449.742 544.935 450.327 544.956 450.928 544.969C451.573 544.982 452.452 545.024 453.565 545.095C454.693 545.166 455.492 545.208 455.96 545.221C456.634 545.249 457.309 545.409 457.983 545.7C458.672 545.992 459.296 546.393 459.853 546.905ZM453.892 534.064C453.888 532.35 453.533 530.989 452.828 529.98C452.137 528.956 451.162 528.445 449.902 528.448C449.213 528.45 448.62 528.597 448.123 528.892C447.64 529.171 447.246 529.575 446.939 530.103C446.647 530.587 446.436 531.173 446.306 531.862C446.19 532.536 446.133 533.232 446.135 533.95C446.139 535.576 446.493 536.901 447.199 537.924C447.919 538.948 448.843 539.459 449.971 539.456C451.231 539.453 452.196 538.946 452.868 537.934C453.554 536.907 453.895 535.617 453.892 534.064ZM458.152 552.226C458.15 551.405 457.958 550.732 457.576 550.206C457.194 549.679 456.614 549.322 455.837 549.133C455.427 549.075 454.585 549.011 453.31 548.941C452.036 548.871 450.556 548.837 448.871 548.841C447.29 549.152 446.163 549.668 445.491 550.387C444.834 551.121 444.506 552.059 444.509 553.202C444.51 553.714 444.621 554.205 444.842 554.673C445.063 555.141 445.444 555.573 445.987 555.967C446.501 556.347 447.19 556.653 448.055 556.885C448.92 557.132 449.975 557.254 451.22 557.251C453.373 557.246 455.064 556.825 456.293 555.987C457.536 555.164 458.155 553.91 458.152 552.226ZM471.312 546.593C471.314 547.413 471.015 548.117 470.416 548.704C469.831 549.277 469.129 549.564 468.308 549.566C467.488 549.568 466.777 549.284 466.175 548.714C465.588 548.129 465.293 547.427 465.291 546.607C465.29 545.786 465.581 545.082 466.166 544.495C466.765 543.893 467.475 543.591 468.295 543.589C469.115 543.588 469.819 543.886 470.406 544.486C471.008 545.07 471.31 545.773 471.312 546.593ZM26.8988 597.608C27.8389 598.733 28.5377 600.057 28.9952 601.58C29.4674 603.088 29.7054 604.669 29.7091 606.324C29.7137 608.316 29.4321 610.104 28.8644 611.688C28.2967 613.256 27.516 614.562 26.5222 615.604C25.4993 616.676 24.2853 617.484 22.8803 618.029C21.4753 618.574 19.9085 618.849 18.18 618.853C16.2903 618.857 14.6051 618.546 13.1241 617.92C11.6432 617.293 10.4401 616.432 9.51473 615.335C8.54534 614.195 7.81722 612.863 7.33036 611.341C6.85811 609.804 6.61997 608.149 6.61595 606.377C6.61198 604.634 6.83539 603.029 7.28616 601.563C7.75158 600.097 8.47366 598.77 9.45241 597.581C10.3873 596.437 11.5938 595.533 13.0717 594.87C14.5497 594.208 16.2409 593.874 18.1452 593.87C20.152 593.866 21.8739 594.199 23.311 594.869C24.7481 595.54 25.944 596.452 26.8988 597.608ZM24.8532 606.335C24.8453 602.849 24.2386 600.148 23.033 598.232C21.8421 596.315 20.2213 595.36 18.1705 595.364C16.0905 595.369 14.452 596.332 13.2552 598.254C12.0584 600.175 11.464 602.879 11.4719 606.366C11.4794 609.676 12.0568 612.341 13.2039 614.36C14.3657 616.364 16.0233 617.364 18.1766 617.359C20.3299 617.354 21.9829 616.347 23.1355 614.337C24.2882 612.313 24.8607 609.646 24.8532 606.335ZM49.347 618.079L34.5374 618.113L34.5339 616.553C34.9733 616.522 35.6543 616.462 36.5769 616.372C37.5142 616.268 38.1585 616.164 38.5098 616.06C38.9636 615.913 39.3073 615.677 39.5409 615.355C39.7892 615.017 39.9126 614.519 39.9111 613.86L39.876 598.435L34.4048 598.447L34.4006 596.602L35.6091 596.599C37.1912 596.595 38.6041 596.299 39.8478 595.71C41.1063 595.122 42.0057 594.49 42.5462 593.815L44.3699 593.81C44.3281 594.763 44.2867 595.876 44.2457 597.151C44.2046 598.425 44.1852 599.568 44.1875 600.578L44.2171 613.608C44.2183 614.121 44.3292 614.582 44.5499 614.992C44.7852 615.387 45.1154 615.679 45.5406 615.868C45.9219 616.029 46.5448 616.174 47.4093 616.304C48.2739 616.433 48.9186 616.505 49.3434 616.519L49.347 618.079ZM73.4623 618.024L52.874 618.071L52.8672 615.083C53.2617 614.628 53.8098 614.121 54.5117 613.563C55.2135 612.99 56.0471 612.373 57.0124 611.711C57.5974 611.315 58.2996 610.881 59.1188 610.41C59.938 609.94 60.8671 609.425 61.9058 608.866C63.0617 608.248 63.9466 607.704 64.5608 607.234C65.1896 606.764 65.7596 606.184 66.2707 605.494C66.6066 605.039 66.8763 604.475 67.0799 603.8C67.2834 603.111 67.3837 602.137 67.3808 600.877C67.3767 599.046 66.8829 597.707 65.8995 596.86C64.9161 595.998 63.6554 595.568 62.1173 595.572C61.1652 595.574 60.2647 595.767 59.416 596.149C58.5672 596.517 57.9312 597.032 57.5079 597.692C57.6115 598.16 57.7372 598.717 57.8852 599.361C58.0478 600.005 58.1298 600.635 58.1312 601.25C58.1324 601.807 57.8992 602.305 57.4315 602.746C56.9783 603.171 56.2977 603.385 55.3895 603.387C54.657 603.389 54.0925 603.141 53.6959 602.644C53.2992 602.132 53.0999 601.452 53.098 600.602C53.0962 599.811 53.3141 599.02 53.7517 598.228C54.1894 597.421 54.8176 596.68 55.6363 596.004C56.4405 595.343 57.4354 594.806 58.621 594.393C59.8066 593.98 61.0878 593.772 62.4648 593.769C65.4677 593.763 67.8496 594.431 69.6105 595.775C71.386 597.104 72.2762 598.889 72.2813 601.13C72.2838 602.199 72.1248 603.174 71.8046 604.053C71.499 604.933 70.9954 605.71 70.2938 606.386C69.5191 607.135 68.6124 607.781 67.5736 608.326C66.5347 608.855 64.9471 609.599 62.8106 610.556C61.5374 611.13 60.3523 611.733 59.2551 612.366C58.1579 612.983 57.2583 613.586 56.5565 614.173L73.4535 614.135L73.4623 618.024ZM85.8626 626.016C84.4856 626.019 83.2254 625.846 82.0821 625.497C80.9387 625.163 79.9562 624.704 79.1346 624.12C78.3129 623.536 77.6742 622.863 77.2184 622.103C76.7772 621.342 76.5557 620.559 76.5539 619.753C76.5522 619.035 76.7265 618.39 77.0768 617.818C77.427 617.231 77.9903 616.937 78.7667 616.935C79.6456 616.933 80.3126 617.152 80.7677 617.59C81.2374 618.014 81.4729 618.504 81.4742 619.061C81.4752 619.529 81.396 620.123 81.2365 620.841C81.0917 621.559 80.9756 622.072 80.8885 622.38C80.9913 622.511 81.1748 622.687 81.439 622.906C81.7178 623.125 82.0551 623.322 82.4511 623.497C82.9203 623.716 83.4114 623.89 83.9244 624.021C84.4374 624.152 85.1627 624.216 86.1002 624.214C86.9791 624.212 87.821 624.063 88.626 623.769C89.4456 623.474 90.1624 623.003 90.7761 622.357C91.4191 621.682 91.9154 620.89 92.2649 619.981C92.629 619.087 92.8095 617.907 92.8061 616.442C92.8043 615.651 92.7147 614.868 92.5371 614.092C92.3742 613.316 92.0651 612.643 91.6097 612.072C91.1543 611.502 90.5307 611.064 89.739 610.758C88.9619 610.438 87.9728 610.279 86.7716 610.282L83.8932 610.288L83.8875 607.761L85.7991 607.757C87.8206 607.752 89.2768 607.192 90.1678 606.077C91.0588 604.962 91.5018 603.283 91.4967 601.042C91.4926 599.211 91.0573 597.835 90.1909 596.914C89.3246 595.979 88.1004 595.513 86.5183 595.516C85.7566 595.518 85.1269 595.615 84.6293 595.806C84.1463 595.983 83.7512 596.16 83.444 596.336C83.0783 596.542 82.7785 596.77 82.5447 597.02C82.3109 597.269 82.1355 597.453 82.0186 597.57C82.1222 598.039 82.248 598.617 82.3961 599.305C82.5441 599.979 82.6188 600.623 82.6202 601.238C82.6214 601.78 82.3882 602.271 81.9204 602.712C81.4673 603.138 80.7939 603.352 79.9004 603.354C79.124 603.356 78.5521 603.078 78.1846 602.523C77.8318 601.967 77.6545 601.323 77.6529 600.59C77.6512 599.829 77.8618 599.052 78.2848 598.26C78.7078 597.468 79.336 596.727 80.1694 596.036C81.0028 595.346 82.0196 594.787 83.2198 594.359C84.42 593.932 85.8038 593.716 87.3712 593.713C89.1729 593.709 90.6603 593.976 91.8334 594.516C93.0212 595.04 93.9528 595.683 94.6284 596.443C95.2892 597.188 95.7451 597.971 95.996 598.791C96.2469 599.611 96.373 600.313 96.3743 600.899C96.376 601.632 96.2751 602.372 96.0718 603.119C95.8684 603.852 95.533 604.534 95.0657 605.165C94.5545 605.855 93.8748 606.486 93.0265 607.059C92.1928 607.618 91.1392 608.074 89.8656 608.429L89.8664 608.78C90.6868 608.852 91.5588 609.033 92.4823 609.324C93.4205 609.615 94.2638 610.045 95.0121 610.614C95.7899 611.213 96.4288 611.988 96.929 612.939C97.4292 613.875 97.681 615.069 97.6843 616.519C97.6906 619.331 96.5679 621.612 94.316 623.36C92.0642 625.123 89.2463 626.008 85.8626 626.016ZM123.337 615.933L118.876 615.943L118.899 625.941L114.68 625.951L114.657 615.953L100.595 615.985L100.587 612.601L115.947 593.78L118.826 593.773L118.87 613.065L123.33 613.055L123.337 615.933ZM114.651 613.075L114.618 598.683L102.786 613.102L114.651 613.075ZM143.016 607.561C143.985 608.32 144.786 609.3 145.418 610.5C146.065 611.699 146.391 613.2 146.395 615.002C146.402 618.151 145.332 620.754 143.183 622.81C141.034 624.865 138.305 625.897 134.994 625.904C132.431 625.91 130.261 625.307 128.486 624.095C126.711 622.884 125.821 621.472 125.818 619.861C125.816 619.114 125.998 618.461 126.363 617.904C126.728 617.346 127.291 617.067 128.053 617.065C128.932 617.063 129.599 617.296 130.054 617.764C130.524 618.217 130.759 618.714 130.76 619.256C130.761 619.725 130.682 620.311 130.523 621.015C130.363 621.718 130.24 622.238 130.153 622.576C130.27 622.678 130.461 622.817 130.725 622.992C130.989 623.167 131.304 623.335 131.671 623.495C132.052 623.655 132.514 623.793 133.056 623.909C133.613 624.04 134.258 624.104 134.99 624.103C135.928 624.1 136.813 623.908 137.647 623.525C138.482 623.143 139.183 622.577 139.753 621.829C140.381 621.007 140.848 620.068 141.153 619.013C141.473 617.972 141.631 616.646 141.627 615.035C141.622 612.969 141.04 611.264 139.88 609.919C138.734 608.559 137.224 607.882 135.349 607.886C134.177 607.889 133.079 608.111 132.054 608.553C131.045 608.994 130.138 609.729 129.335 610.756L127.861 610.188L129.693 594.32L145.425 594.284L145.434 598.195L131.482 598.227L130.36 607.546C131.018 607.075 131.881 606.612 132.95 606.156C134.033 605.684 135.219 605.447 136.508 605.444C137.577 605.442 138.683 605.608 139.827 605.942C140.985 606.262 142.048 606.801 143.016 607.561ZM171.439 607.672C171.442 609.196 171.167 610.624 170.614 611.959C170.075 613.293 169.345 614.43 168.424 615.369C167.357 616.441 166.172 617.235 164.87 617.751C163.582 618.266 162.235 618.526 160.829 618.529C159.203 618.532 157.73 618.235 156.41 617.638C155.09 617.04 153.968 616.193 153.043 615.097C152.103 613.986 151.374 612.625 150.858 611.015C150.342 609.405 150.081 607.596 150.077 605.589C150.065 600.36 151.607 595.947 154.705 592.351C157.817 588.755 161.987 586.592 167.214 585.863L167.614 587.839L165.638 588.195C162.461 589.228 160.004 590.83 158.266 593.002C156.542 595.174 155.428 597.806 154.922 600.898C156.179 599.797 157.423 599.017 158.652 598.56C159.881 598.104 161.177 597.874 162.54 597.87C164.986 597.865 167.075 598.798 168.808 600.669C170.556 602.54 171.432 604.874 171.439 607.672ZM166.672 608.276C166.667 605.903 166.113 604 165.011 602.567C163.924 601.134 162.465 600.419 160.634 600.424C159.535 600.426 158.51 600.634 157.559 601.046C156.622 601.458 155.716 602.149 154.839 603.118C154.825 603.293 154.804 603.704 154.776 604.348C154.748 604.978 154.735 605.476 154.735 605.842C154.743 609.27 155.306 611.957 156.424 613.903C157.556 615.834 159.038 616.797 160.869 616.793C162.612 616.789 164.016 616.031 165.082 614.52C166.148 612.994 166.678 610.913 166.672 608.276ZM195.439 595.598L179.841 625.802L177.095 625.809L191.775 597.87L183.14 597.89C181.865 597.892 180.869 597.909 180.151 597.94C179.434 597.971 178.775 598.112 178.175 598.362C177.721 598.554 177.312 599.045 176.948 599.837C176.598 600.614 176.329 601.611 176.141 602.827L174.801 602.83L174.782 594.217L195.436 594.17L195.439 595.598ZM219.586 609.43C219.592 611.891 218.534 614.01 216.414 615.788C214.294 617.565 211.506 618.457 208.049 618.465C204.812 618.473 202.217 617.666 200.265 616.044C198.313 614.423 197.334 612.33 197.328 609.767C197.324 607.877 197.892 606.301 199.031 605.039C200.186 603.762 201.89 602.681 204.144 601.797C202.281 600.761 200.887 599.622 199.961 598.379C199.035 597.136 198.571 595.73 198.567 594.163C198.562 591.775 199.568 589.774 201.586 588.158C203.618 586.542 206.048 585.731 208.875 585.724C211.702 585.718 213.989 586.474 215.736 587.994C217.497 589.513 218.38 591.423 218.386 593.723C218.389 595.202 217.909 596.609 216.945 597.945C215.981 599.265 214.563 600.352 212.69 601.206C215.124 602.241 216.877 603.387 217.949 604.644C219.036 605.901 219.582 607.497 219.586 609.43ZM214.232 593.49C214.228 591.703 213.69 590.254 212.618 589.143C211.561 588.018 210.205 587.457 208.55 587.461C206.894 587.464 205.541 588.01 204.488 589.096C203.436 590.168 202.912 591.502 202.915 593.099C202.919 594.637 203.523 595.939 204.726 597.006C205.93 598.072 208.071 599.21 211.15 600.419C212.247 599.713 213.036 598.781 213.517 597.623C213.997 596.464 214.236 595.087 214.232 593.49ZM215.194 610.473C215.192 609.55 214.992 608.745 214.595 608.057C214.198 607.355 213.625 606.719 212.877 606.15C212.158 605.595 211.153 605.018 209.863 604.421C208.587 603.808 207.201 603.189 205.706 602.562C204.301 603.327 203.271 604.304 202.614 605.492C201.958 606.665 201.631 608.006 201.634 609.515C201.639 611.668 202.273 613.41 203.536 614.74C204.813 616.056 206.507 616.711 208.616 616.706C210.638 616.702 212.24 616.112 213.424 614.937C214.608 613.763 215.198 612.275 215.194 610.473ZM244.639 606.297C244.645 608.846 244.248 611.249 243.447 613.507C242.646 615.75 241.494 617.723 239.989 619.425C238.513 621.099 236.707 622.487 234.571 623.591C232.45 624.709 230.071 625.447 227.435 625.804L227.035 623.827L229.012 623.471C232.159 622.468 234.616 620.932 236.384 618.862C238.152 616.793 239.288 614.168 239.794 610.988C238.595 612.017 237.396 612.774 236.195 613.26C235.01 613.731 233.67 613.969 232.176 613.972C229.788 613.977 227.706 613.052 225.93 611.196C224.167 609.339 223.283 606.998 223.277 604.17C223.27 601.138 224.282 598.58 226.314 596.495C228.36 594.41 230.884 593.365 233.887 593.358C237.154 593.35 239.756 594.509 241.695 596.834C243.649 599.158 244.63 602.313 244.639 606.297ZM239.98 606.044C239.973 602.616 239.402 599.937 238.27 598.006C237.152 596.06 235.678 595.089 233.847 595.094C232.104 595.098 230.699 595.855 229.633 597.366C228.568 598.863 228.038 600.93 228.044 603.566C228.049 605.939 228.595 607.842 229.682 609.276C230.784 610.709 232.251 611.423 234.082 611.419C235.224 611.416 236.271 611.209 237.223 610.796C238.174 610.37 239.058 609.694 239.877 608.769C239.877 608.71 239.884 608.593 239.898 608.417C239.927 608.241 239.941 607.992 239.94 607.67C239.94 607.465 239.946 607.216 239.96 606.923C239.974 606.63 239.981 606.337 239.98 606.044Z" fill="black"/>
</svg>
