<svg width="554" height="150" viewBox="0 0 554 150" fill="none" xmlns="http://www.w3.org/2000/svg">
<path d="M28.3493 32.2735C35.7715 25.4201 42.0941 21.9934 47.3171 21.9934C51.9904 21.9934 58.1755 24.492 65.8726 29.4893C71.7829 33.3443 75.975 35.2718 78.4491 35.2718C80.6483 35.2718 83.466 33.9868 86.9022 31.4168C91.9877 27.5618 97.0733 25.6343 102.159 25.6343C109.306 25.6343 116.522 29.2751 123.807 36.5568C129.717 42.9819 134.39 51.3344 137.827 61.6145C141.263 71.8946 142.981 83.1027 142.981 95.2389C142.981 111.801 137.62 120.082 126.9 120.082C125.25 120.082 124.013 120.011 123.188 119.868C118.653 119.297 115.285 116.584 113.086 111.73C110.887 106.733 108.619 97.1664 106.282 83.0313L104.014 67.1829L96.3861 78.3196C88.5515 89.4563 80.9919 95.0247 73.7072 95.0247C66.1475 95.0247 59.4813 89.3136 53.7085 77.8913C51.097 73.1796 49.5163 70.8237 48.9665 70.8237C48.1418 70.8237 47.6608 76.3207 47.5233 87.3147C47.5233 98.737 46.1488 107.09 43.3999 112.372C40.6509 117.512 36.1838 120.082 29.9987 120.082C28.4868 120.082 27.3184 120.011 26.4938 119.868C15.4979 118.726 10 109.445 10 92.0264C10 85.173 10.8247 77.106 12.4741 67.8254C14.2609 58.2592 16.1852 51.0489 18.2469 46.1944C20.446 41.3399 23.8135 36.6996 28.3493 32.2735Z" fill="#1E1E1E"/>
<path d="M245.65 49.1928C241.389 46.9083 236.578 45.7661 231.218 45.7661C225.445 45.7661 219.947 47.1225 214.724 49.8353C209.638 52.548 205.927 56.1889 203.591 60.7578C201.117 65.6123 199.88 70.1098 199.88 74.2504C199.88 79.9616 201.804 84.6019 205.652 88.1713C209.501 91.598 214.174 93.3114 219.672 93.3114C228.469 93.3114 236.235 89.0994 242.97 80.6755C249.292 73.1082 252.453 66.3976 252.453 60.5437C252.453 55.832 250.186 52.0483 245.65 49.1928ZM200.086 17.9242C210.394 12.6414 220.153 10 229.362 10C237.059 10 246.268 11.8561 256.989 15.5684C266.885 19.1378 274.376 24.6348 279.462 32.0593C284.548 39.341 287.09 47.765 287.09 57.3311C287.09 68.1823 283.792 79.1763 277.194 90.313C270.597 101.307 261.181 110.802 248.949 118.797C239.19 125.222 228.812 128.435 217.817 128.435C203.522 128.435 191.152 123.438 180.706 113.443C170.26 103.449 165.037 90.8127 165.037 75.5354C165.037 64.2559 168.404 53.1192 175.139 42.1252C181.874 31.1312 190.189 23.0643 200.086 17.9242Z" fill="#1E1E1E"/>
<path d="M371.047 18.3526C373.934 15.3542 377.92 13.855 383.005 13.855C389.191 13.855 393.864 15.7825 397.025 19.6376C399.087 22.2076 400.118 27.9187 400.118 36.771C400.118 52.3339 397.644 68.8248 392.695 86.2438C389.122 99.665 381.287 112.015 369.192 123.295C357.096 134.432 345.62 140 334.761 140C333.249 140 332.081 139.929 331.256 139.786C327.82 139.357 325.415 138.144 324.04 136.145C322.666 134.289 321.772 130.862 321.36 125.865C321.085 123.295 320.948 121.653 320.948 120.939C320.948 117.655 321.635 115.157 323.009 113.443C324.521 111.587 327.133 109.66 330.844 107.661C337.579 103.948 343.489 99.3081 348.575 93.7397C351.599 90.313 353.11 87.9572 353.11 86.6722C353.11 85.5299 352.286 84.4591 350.636 83.4596C348.987 82.3174 345.963 80.6755 341.565 78.5338C331.943 73.8221 324.178 67.2543 318.267 58.8303C312.357 50.2636 309.402 42.1966 309.402 34.6293C309.402 29.4893 310.845 25.3487 313.732 22.2076C316.755 19.0665 321.223 17.4959 327.133 17.4959C332.768 17.4959 337.579 21.4937 341.565 29.4893C344.176 34.6293 347.132 38.8413 350.43 42.1252C353.866 45.2663 356.89 46.8369 359.502 46.8369C361.838 46.8369 363.419 45.5519 364.244 42.9819C365.756 38.5557 366.512 34.201 366.512 29.9176C366.512 25.3487 368.024 21.4937 371.047 18.3526Z" fill="#1E1E1E"/>
<path d="M502.559 49.1928C498.299 46.9083 493.488 45.7661 488.127 45.7661C482.355 45.7661 476.857 47.1225 471.634 49.8353C466.548 52.548 462.837 56.1889 460.5 60.7578C458.026 65.6123 456.789 70.1098 456.789 74.2504C456.789 79.9616 458.714 84.6019 462.562 88.1713C466.411 91.598 471.084 93.3114 476.582 93.3114C485.378 93.3114 493.144 89.0994 499.879 80.6755C506.202 73.1082 509.363 66.3976 509.363 60.5437C509.363 55.832 507.095 52.0483 502.559 49.1928ZM456.995 17.9242C467.304 12.6414 477.063 10 486.272 10C493.969 10 503.178 11.8561 513.899 15.5684C523.795 19.1378 531.286 24.6348 536.372 32.0593C541.457 39.341 544 47.765 544 57.3311C544 68.1823 540.701 79.1763 534.104 90.313C527.506 101.307 518.091 110.802 505.858 118.797C496.099 125.222 485.722 128.435 474.726 128.435C460.432 128.435 448.061 123.438 437.615 113.443C427.169 103.449 421.946 90.8127 421.946 75.5354C421.946 64.2559 425.314 53.1192 432.049 42.1252C438.784 31.1312 447.099 23.0643 456.995 17.9242Z" fill="#1E1E1E"/>
</svg>
