<svg width="1760" height="427" viewBox="0 0 1760 427" fill="none" xmlns="http://www.w3.org/2000/svg">
<line y1="42.5" x2="1760" y2="42.5" stroke="#1E1E1E"/>
<line y1="164.5" x2="1760" y2="164.5" stroke="#1E1E1E"/>
<line y1="286.5" x2="1760" y2="286.5" stroke="#1E1E1E"/>
<line y1="408.5" x2="1760" y2="408.5" stroke="#1E1E1E"/>
<path d="M5.016 0.248V17H1.656V0.248H5.016ZM22.6637 17H19.3037L11.6957 5.504V17H8.33569V0.223999H11.6957L19.3037 11.744V0.223999H22.6637V17ZM37.3841 0.248V2.96H32.9201V17H29.5601V2.96H25.0961V0.248H37.3841ZM48.4757 17L44.7797 10.472H43.1957V17H39.8357V0.248H46.1237C47.4197 0.248 48.5237 0.48 49.4357 0.943999C50.3477 1.392 51.0277 2.008 51.4757 2.792C51.9397 3.56 52.1717 4.424 52.1717 5.384C52.1717 6.488 51.8517 7.488 51.2117 8.384C50.5717 9.264 49.6197 9.872 48.3557 10.208L52.3637 17H48.4757ZM43.1957 7.952H46.0037C46.9157 7.952 47.5957 7.736 48.0437 7.304C48.4917 6.856 48.7157 6.24 48.7157 5.456C48.7157 4.688 48.4917 4.096 48.0437 3.68C47.5957 3.248 46.9157 3.032 46.0037 3.032H43.1957V7.952ZM62.9867 17.168C61.4187 17.168 59.9787 16.8 58.6667 16.064C57.3547 15.328 56.3147 14.312 55.5467 13.016C54.7787 11.704 54.3947 10.224 54.3947 8.576C54.3947 6.944 54.7787 5.48 55.5467 4.184C56.3147 2.872 57.3547 1.848 58.6667 1.112C59.9787 0.375999 61.4187 0.0079999 62.9867 0.0079999C64.5707 0.0079999 66.0107 0.375999 67.3067 1.112C68.6187 1.848 69.6507 2.872 70.4027 4.184C71.1707 5.48 71.5547 6.944 71.5547 8.576C71.5547 10.224 71.1707 11.704 70.4027 13.016C69.6507 14.312 68.6187 15.328 67.3067 16.064C65.9947 16.8 64.5547 17.168 62.9867 17.168ZM62.9867 14.168C63.9947 14.168 64.8827 13.944 65.6507 13.496C66.4187 13.032 67.0187 12.376 67.4507 11.528C67.8827 10.68 68.0987 9.696 68.0987 8.576C68.0987 7.456 67.8827 6.48 67.4507 5.648C67.0187 4.8 66.4187 4.152 65.6507 3.704C64.8827 3.256 63.9947 3.032 62.9867 3.032C61.9787 3.032 61.0827 3.256 60.2987 3.704C59.5307 4.152 58.9307 4.8 58.4987 5.648C58.0667 6.48 57.8507 7.456 57.8507 8.576C57.8507 9.696 58.0667 10.68 58.4987 11.528C58.9307 12.376 59.5307 13.032 60.2987 13.496C61.0827 13.944 61.9787 14.168 62.9867 14.168ZM89.1024 0.248L82.9584 17H78.8784L72.7344 0.248H76.3344L80.9424 13.568L85.5264 0.248H89.1024ZM94.4769 2.96V7.16H100.117V9.824H94.4769V14.264H100.837V17H91.1169V0.223999H100.837V2.96H94.4769ZM112.53 17L108.834 10.472H107.25V17H103.89V0.248H110.178C111.474 0.248 112.578 0.48 113.49 0.943999C114.402 1.392 115.082 2.008 115.53 2.792C115.994 3.56 116.226 4.424 116.226 5.384C116.226 6.488 115.906 7.488 115.266 8.384C114.626 9.264 113.674 9.872 112.41 10.208L116.418 17H112.53ZM107.25 7.952H110.058C110.97 7.952 111.65 7.736 112.098 7.304C112.546 6.856 112.77 6.24 112.77 5.456C112.77 4.688 112.546 4.096 112.098 3.68C111.65 3.248 110.97 3.032 110.058 3.032H107.25V7.952ZM130.665 0.248V2.96H126.201V17H122.841V2.96H118.377V0.248H130.665Z" fill="#1E1E1E"/>
<path d="M11.16 130.408C12.104 130.584 12.88 131.056 13.488 131.824C14.096 132.592 14.4 133.472 14.4 134.464C14.4 135.36 14.176 136.152 13.728 136.84C13.296 137.512 12.664 138.04 11.832 138.424C11 138.808 10.016 139 8.88 139H1.656V122.248H8.568C9.704 122.248 10.68 122.432 11.496 122.8C12.328 123.168 12.952 123.68 13.368 124.336C13.8 124.992 14.016 125.736 14.016 126.568C14.016 127.544 13.752 128.36 13.224 129.016C12.712 129.672 12.024 130.136 11.16 130.408ZM5.016 129.16H8.088C8.888 129.16 9.504 128.984 9.936 128.632C10.368 128.264 10.584 127.744 10.584 127.072C10.584 126.4 10.368 125.88 9.936 125.512C9.504 125.144 8.888 124.96 8.088 124.96H5.016V129.16ZM8.4 136.264C9.216 136.264 9.848 136.072 10.296 135.688C10.76 135.304 10.992 134.76 10.992 134.056C10.992 133.336 10.752 132.776 10.272 132.376C9.792 131.96 9.144 131.752 8.328 131.752H5.016V136.264H8.4ZM20.3899 122.248V132.616C20.3899 133.752 20.6859 134.624 21.2779 135.232C21.8699 135.824 22.7019 136.12 23.7739 136.12C24.8619 136.12 25.7019 135.824 26.2939 135.232C26.8859 134.624 27.1819 133.752 27.1819 132.616V122.248H30.5659V132.592C30.5659 134.016 30.2539 135.224 29.6299 136.216C29.0219 137.192 28.1979 137.928 27.1579 138.424C26.1339 138.92 24.9899 139.168 23.7259 139.168C22.4779 139.168 21.3419 138.92 20.3179 138.424C19.3099 137.928 18.5099 137.192 17.9179 136.216C17.3259 135.224 17.0299 134.016 17.0299 132.592V122.248H20.3899ZM39.5963 139.168C38.4283 139.168 37.3723 138.968 36.4283 138.568C35.5003 138.168 34.7643 137.592 34.2203 136.84C33.6763 136.088 33.3963 135.2 33.3803 134.176H36.9803C37.0283 134.864 37.2683 135.408 37.7003 135.808C38.1483 136.208 38.7563 136.408 39.5243 136.408C40.3083 136.408 40.9243 136.224 41.3723 135.856C41.8203 135.472 42.0443 134.976 42.0443 134.368C42.0443 133.872 41.8923 133.464 41.5883 133.144C41.2843 132.824 40.9003 132.576 40.4363 132.4C39.9883 132.208 39.3643 132 38.5643 131.776C37.4763 131.456 36.5883 131.144 35.9003 130.84C35.2283 130.52 34.6443 130.048 34.1483 129.424C33.6683 128.784 33.4283 127.936 33.4283 126.88C33.4283 125.888 33.6763 125.024 34.1723 124.288C34.6683 123.552 35.3643 122.992 36.2603 122.608C37.1563 122.208 38.1803 122.008 39.3323 122.008C41.0603 122.008 42.4603 122.432 43.5323 123.28C44.6203 124.112 45.2203 125.28 45.3323 126.784H41.6363C41.6043 126.208 41.3563 125.736 40.8923 125.368C40.4443 124.984 39.8443 124.792 39.0923 124.792C38.4363 124.792 37.9083 124.96 37.5083 125.296C37.1243 125.632 36.9323 126.12 36.9323 126.76C36.9323 127.208 37.0763 127.584 37.3643 127.888C37.6683 128.176 38.0363 128.416 38.4683 128.608C38.9163 128.784 39.5403 128.992 40.3403 129.232C41.4283 129.552 42.3163 129.872 43.0043 130.192C43.6923 130.512 44.2843 130.992 44.7803 131.632C45.2763 132.272 45.5243 133.112 45.5243 134.152C45.5243 135.048 45.2923 135.88 44.8282 136.648C44.3643 137.416 43.6843 138.032 42.7883 138.496C41.8923 138.944 40.8283 139.168 39.5963 139.168ZM61.7573 122.248L56.0933 133.168V139H52.7333V133.168L47.0453 122.248H50.8373L54.4373 129.904L58.0133 122.248H61.7573Z" fill="#1E1E1E"/>
<path d="M13.872 249.432C13.872 250.328 13.656 251.168 13.224 251.952C12.808 252.736 12.144 253.368 11.232 253.848C10.336 254.328 9.2 254.568 7.824 254.568H5.016V261H1.656V244.248H7.824C9.12 244.248 10.224 244.472 11.136 244.92C12.048 245.368 12.728 245.984 13.176 246.768C13.64 247.552 13.872 248.44 13.872 249.432ZM7.68 251.856C8.608 251.856 9.296 251.648 9.744 251.232C10.192 250.8 10.416 250.2 10.416 249.432C10.416 247.8 9.504 246.984 7.68 246.984H5.016V251.856H7.68ZM26.5296 257.808H19.8576L18.7536 261H15.2256L21.2496 244.224H25.1616L31.1856 261H27.6336L26.5296 257.808ZM25.6176 255.12L23.1936 248.112L20.7696 255.12H25.6176ZM39.2213 261.168C38.0533 261.168 36.9973 260.968 36.0533 260.568C35.1253 260.168 34.3893 259.592 33.8453 258.84C33.3013 258.088 33.0213 257.2 33.0053 256.176H36.6053C36.6533 256.864 36.8933 257.408 37.3253 257.808C37.7733 258.208 38.3813 258.408 39.1493 258.408C39.9333 258.408 40.5493 258.224 40.9973 257.856C41.4453 257.472 41.6693 256.976 41.6693 256.368C41.6693 255.872 41.5173 255.464 41.2133 255.144C40.9093 254.824 40.5253 254.576 40.0613 254.4C39.6133 254.208 38.9893 254 38.1893 253.776C37.1013 253.456 36.2133 253.144 35.5253 252.84C34.8533 252.52 34.2693 252.048 33.7733 251.424C33.2933 250.784 33.0533 249.936 33.0533 248.88C33.0533 247.888 33.3013 247.024 33.7973 246.288C34.2933 245.552 34.9893 244.992 35.8853 244.608C36.7813 244.208 37.8053 244.008 38.9573 244.008C40.6853 244.008 42.0853 244.432 43.1573 245.28C44.2453 246.112 44.8453 247.28 44.9573 248.784H41.2613C41.2293 248.208 40.9813 247.736 40.5173 247.368C40.0693 246.984 39.4693 246.792 38.7173 246.792C38.0613 246.792 37.5333 246.96 37.1333 247.296C36.7493 247.632 36.5573 248.12 36.5573 248.76C36.5573 249.208 36.7013 249.584 36.9893 249.888C37.2933 250.176 37.6613 250.416 38.0933 250.608C38.5413 250.784 39.1653 250.992 39.9653 251.232C41.0533 251.552 41.9413 251.872 42.6293 252.192C43.3173 252.512 43.9093 252.992 44.4053 253.632C44.9013 254.272 45.1493 255.112 45.1493 256.152C45.1493 257.048 44.9173 257.88 44.4532 258.648C43.9893 259.416 43.3093 260.032 42.4133 260.496C41.5173 260.944 40.4533 261.168 39.2213 261.168ZM53.8463 261.168C52.6783 261.168 51.6223 260.968 50.6783 260.568C49.7503 260.168 49.0143 259.592 48.4703 258.84C47.9263 258.088 47.6463 257.2 47.6303 256.176H51.2303C51.2783 256.864 51.5183 257.408 51.9503 257.808C52.3983 258.208 53.0063 258.408 53.7743 258.408C54.5583 258.408 55.1743 258.224 55.6223 257.856C56.0703 257.472 56.2943 256.976 56.2943 256.368C56.2943 255.872 56.1423 255.464 55.8383 255.144C55.5343 254.824 55.1503 254.576 54.6863 254.4C54.2383 254.208 53.6143 254 52.8143 253.776C51.7263 253.456 50.8383 253.144 50.1503 252.84C49.4783 252.52 48.8943 252.048 48.3983 251.424C47.9183 250.784 47.6783 249.936 47.6783 248.88C47.6783 247.888 47.9263 247.024 48.4223 246.288C48.9183 245.552 49.6143 244.992 50.5103 244.608C51.4063 244.208 52.4303 244.008 53.5823 244.008C55.3103 244.008 56.7103 244.432 57.7823 245.28C58.8703 246.112 59.4703 247.28 59.5823 248.784H55.8863C55.8543 248.208 55.6063 247.736 55.1423 247.368C54.6943 246.984 54.0943 246.792 53.3423 246.792C52.6863 246.792 52.1583 246.96 51.7583 247.296C51.3743 247.632 51.1823 248.12 51.1823 248.76C51.1823 249.208 51.3263 249.584 51.6143 249.888C51.9183 250.176 52.2863 250.416 52.7183 250.608C53.1663 250.784 53.7903 250.992 54.5903 251.232C55.6783 251.552 56.5663 251.872 57.2543 252.192C57.9423 252.512 58.5343 252.992 59.0303 253.632C59.5263 254.272 59.7743 255.112 59.7743 256.152C59.7743 257.048 59.5423 257.88 59.0782 258.648C58.6143 259.416 57.9343 260.032 57.0383 260.496C56.1423 260.944 55.0783 261.168 53.8463 261.168ZM66.0473 244.248V261H62.6873V244.248H66.0473ZM84.4149 244.248L78.2709 261H74.1909L68.0469 244.248H71.6469L76.2549 257.568L80.8389 244.248H84.4149ZM89.7894 246.96V251.16H95.4294V253.824H89.7894V258.264H96.1494V261H86.4294V244.224H96.1494V246.96H89.7894Z" fill="#1E1E1E"/>
<path d="M5.016 366.248V383H1.656V366.248H5.016ZM22.6637 383H19.3037L11.6957 371.504V383H8.33569V366.224H11.6957L19.3037 377.744V366.224H22.6637V383ZM31.8401 366.248C33.6001 366.248 35.1441 366.592 36.4721 367.28C37.8161 367.968 38.8481 368.952 39.5681 370.232C40.3041 371.496 40.6721 372.968 40.6721 374.648C40.6721 376.328 40.3041 377.8 39.5681 379.064C38.8481 380.312 37.8161 381.28 36.4721 381.968C35.1441 382.656 33.6001 383 31.8401 383H25.9841V366.248H31.8401ZM31.7201 380.144C33.4801 380.144 34.8401 379.664 35.8001 378.704C36.7601 377.744 37.2401 376.392 37.2401 374.648C37.2401 372.904 36.7601 371.544 35.8001 370.568C34.8401 369.576 33.4801 369.08 31.7201 369.08H29.3441V380.144H31.7201ZM46.5473 368.96V373.16H52.1873V375.824H46.5473V380.264H52.9073V383H43.1873V366.224H52.9073V368.96H46.5473ZM68.1767 371.432C68.1767 372.328 67.9607 373.168 67.5287 373.952C67.1127 374.736 66.4487 375.368 65.5367 375.848C64.6407 376.328 63.5047 376.568 62.1287 376.568H59.3207V383H55.9607V366.248H62.1287C63.4247 366.248 64.5287 366.472 65.4407 366.92C66.3527 367.368 67.0327 367.984 67.4807 368.768C67.9447 369.552 68.1767 370.44 68.1767 371.432ZM61.9847 373.856C62.9127 373.856 63.6007 373.648 64.0487 373.232C64.4967 372.8 64.7207 372.2 64.7207 371.432C64.7207 369.8 63.8087 368.984 61.9847 368.984H59.3207V373.856H61.9847ZM73.9223 368.96V373.16H79.5623V375.824H73.9223V380.264H80.2823V383H70.5623V366.224H80.2823V368.96H73.9223ZM97.6637 383H94.3037L86.6957 371.504V383H83.3357V366.224H86.6957L94.3037 377.744V366.224H97.6637V383ZM106.84 366.248C108.6 366.248 110.144 366.592 111.472 367.28C112.816 367.968 113.848 368.952 114.568 370.232C115.304 371.496 115.672 372.968 115.672 374.648C115.672 376.328 115.304 377.8 114.568 379.064C113.848 380.312 112.816 381.28 111.472 381.968C110.144 382.656 108.6 383 106.84 383H100.984V366.248H106.84ZM106.72 380.144C108.48 380.144 109.84 379.664 110.8 378.704C111.76 377.744 112.24 376.392 112.24 374.648C112.24 372.904 111.76 371.544 110.8 370.568C109.84 369.576 108.48 369.08 106.72 369.08H104.344V380.144H106.72ZM121.547 368.96V373.16H127.187V375.824H121.547V380.264H127.907V383H118.187V366.224H127.907V368.96H121.547ZM145.289 383H141.929L134.321 371.504V383H130.961V366.224H134.321L141.929 377.744V366.224H145.289V383ZM160.009 366.248V368.96H155.545V383H152.185V368.96H147.721V366.248H160.009Z" fill="#1E1E1E"/>
<path d="M1628.66 2.96V7.16H1634.3V9.824H1628.66V14.264H1635.02V17H1625.3V0.223999H1635.02V2.96H1628.66ZM1648.1 17L1644.48 11.36L1641.19 17H1637.4L1642.68 8.552L1637.33 0.248H1641.19L1644.81 5.864L1648.08 0.248H1651.87L1646.61 8.672L1651.97 17H1648.1ZM1665.92 0.248V2.96H1661.46V17H1658.1V2.96H1653.64V0.248H1665.92ZM1677.01 17L1673.32 10.472H1671.73V17H1668.37V0.248H1674.66C1675.96 0.248 1677.06 0.48 1677.97 0.943999C1678.89 1.392 1679.57 2.008 1680.01 2.792C1680.48 3.56 1680.71 4.424 1680.71 5.384C1680.71 6.488 1680.39 7.488 1679.75 8.384C1679.11 9.264 1678.16 9.872 1676.89 10.208L1680.9 17H1677.01ZM1671.73 7.952H1674.54C1675.45 7.952 1676.13 7.736 1676.58 7.304C1677.03 6.856 1677.25 6.24 1677.25 5.456C1677.25 4.688 1677.03 4.096 1676.58 3.68C1676.13 3.248 1675.45 3.032 1674.54 3.032H1671.73V7.952ZM1691.53 17.168C1689.96 17.168 1688.52 16.8 1687.21 16.064C1685.89 15.328 1684.85 14.312 1684.09 13.016C1683.32 11.704 1682.93 10.224 1682.93 8.576C1682.93 6.944 1683.32 5.48 1684.09 4.184C1684.85 2.872 1685.89 1.848 1687.21 1.112C1688.52 0.375999 1689.96 0.0079999 1691.53 0.0079999C1693.11 0.0079999 1694.55 0.375999 1695.85 1.112C1697.16 1.848 1698.19 2.872 1698.94 4.184C1699.71 5.48 1700.09 6.944 1700.09 8.576C1700.09 10.224 1699.71 11.704 1698.94 13.016C1698.19 14.312 1697.16 15.328 1695.85 16.064C1694.53 16.8 1693.09 17.168 1691.53 17.168ZM1691.53 14.168C1692.53 14.168 1693.42 13.944 1694.19 13.496C1694.96 13.032 1695.56 12.376 1695.99 11.528C1696.42 10.68 1696.64 9.696 1696.64 8.576C1696.64 7.456 1696.42 6.48 1695.99 5.648C1695.56 4.8 1694.96 4.152 1694.19 3.704C1693.42 3.256 1692.53 3.032 1691.53 3.032C1690.52 3.032 1689.62 3.256 1688.84 3.704C1688.07 4.152 1687.47 4.8 1687.04 5.648C1686.61 6.48 1686.39 7.456 1686.39 8.576C1686.39 9.696 1686.61 10.68 1687.04 11.528C1687.47 12.376 1688.07 13.032 1688.84 13.496C1689.62 13.944 1690.52 14.168 1691.53 14.168ZM1717.64 0.248L1711.5 17H1707.42L1701.27 0.248H1704.87L1709.48 13.568L1714.07 0.248H1717.64ZM1723.02 2.96V7.16H1728.66V9.824H1723.02V14.264H1729.38V17H1719.66V0.223999H1729.38V2.96H1723.02ZM1741.07 17L1737.37 10.472H1735.79V17H1732.43V0.248H1738.72C1740.01 0.248 1741.12 0.48 1742.03 0.943999C1742.94 1.392 1743.62 2.008 1744.07 2.792C1744.53 3.56 1744.77 4.424 1744.77 5.384C1744.77 6.488 1744.45 7.488 1743.81 8.384C1743.17 9.264 1742.21 9.872 1740.95 10.208L1744.96 17H1741.07ZM1735.79 7.952H1738.6C1739.51 7.952 1740.19 7.736 1740.64 7.304C1741.09 6.856 1741.31 6.24 1741.31 5.456C1741.31 4.688 1741.09 4.096 1740.64 3.68C1740.19 3.248 1739.51 3.032 1738.6 3.032H1735.79V7.952ZM1759.2 0.248V2.96H1754.74V17H1751.38V2.96H1746.92V0.248H1759.2Z" fill="#1E1E1E"/>
<path d="M1654.77 122.248V124.96H1650.3V139H1646.94V124.96H1642.48V122.248H1654.77ZM1660.58 122.248V139H1657.22V122.248H1660.58ZM1682.16 122.248V139H1678.8V128.104L1674.31 139H1671.77L1667.26 128.104V139H1663.9V122.248H1667.71L1673.04 134.704L1678.37 122.248H1682.16ZM1688.84 124.96V129.16H1694.48V131.824H1688.84V136.264H1695.2V139H1685.48V122.224H1695.2V124.96H1688.84ZM1712.62 139L1708.92 132.472H1707.34V139H1703.98V122.248H1710.26C1711.56 122.248 1712.66 122.48 1713.58 122.944C1714.49 123.392 1715.17 124.008 1715.62 124.792C1716.08 125.56 1716.31 126.424 1716.31 127.384C1716.31 128.488 1715.99 129.488 1715.35 130.384C1714.71 131.264 1713.76 131.872 1712.5 132.208L1716.5 139H1712.62ZM1707.34 129.952H1710.14C1711.06 129.952 1711.74 129.736 1712.18 129.304C1712.63 128.856 1712.86 128.24 1712.86 127.456C1712.86 126.688 1712.63 126.096 1712.18 125.68C1711.74 125.248 1711.06 125.032 1710.14 125.032H1707.34V129.952ZM1722.71 122.248V139H1719.35V122.248H1722.71ZM1725.22 130.6C1725.22 128.952 1725.58 127.48 1726.32 126.184C1727.07 124.872 1728.09 123.856 1729.37 123.136C1730.66 122.4 1732.11 122.032 1733.71 122.032C1735.58 122.032 1737.22 122.512 1738.63 123.472C1740.04 124.432 1741.02 125.76 1741.58 127.456H1737.72C1737.34 126.656 1736.79 126.056 1736.09 125.656C1735.4 125.256 1734.6 125.056 1733.69 125.056C1732.71 125.056 1731.84 125.288 1731.07 125.752C1730.32 126.2 1729.73 126.84 1729.3 127.672C1728.88 128.504 1728.67 129.48 1728.67 130.6C1728.67 131.704 1728.88 132.68 1729.3 133.528C1729.73 134.36 1730.32 135.008 1731.07 135.472C1731.84 135.92 1732.71 136.144 1733.69 136.144C1734.6 136.144 1735.4 135.944 1736.09 135.544C1736.79 135.128 1737.34 134.52 1737.72 133.72H1741.58C1741.02 135.432 1740.04 136.768 1738.63 137.728C1737.24 138.672 1735.6 139.144 1733.71 139.144C1732.11 139.144 1730.66 138.784 1729.37 138.064C1728.09 137.328 1727.07 136.312 1726.32 135.016C1725.58 133.72 1725.22 132.248 1725.22 130.6ZM1758.35 122.248V139H1754.99V131.872H1747.81V139H1744.45V122.248H1747.81V129.136H1754.99V122.248H1758.35Z" fill="#1E1E1E"/>
<path d="M1685.96 257.808H1679.29L1678.18 261H1674.66L1680.68 244.224H1684.59L1690.62 261H1687.06L1685.96 257.808ZM1685.05 255.12L1682.62 248.112L1680.2 255.12H1685.05ZM1692.05 252.6C1692.05 250.952 1692.42 249.48 1693.15 248.184C1693.91 246.872 1694.92 245.856 1696.2 245.136C1697.5 244.4 1698.95 244.032 1700.55 244.032C1702.42 244.032 1704.06 244.512 1705.47 245.472C1706.87 246.432 1707.86 247.76 1708.42 249.456H1704.55C1704.17 248.656 1703.63 248.056 1702.92 247.656C1702.23 247.256 1701.43 247.056 1700.52 247.056C1699.55 247.056 1698.67 247.288 1697.91 247.752C1697.15 248.2 1696.56 248.84 1696.13 249.672C1695.71 250.504 1695.51 251.48 1695.51 252.6C1695.51 253.704 1695.71 254.68 1696.13 255.528C1696.56 256.36 1697.15 257.008 1697.91 257.472C1698.67 257.92 1699.55 258.144 1700.52 258.144C1701.43 258.144 1702.23 257.944 1702.92 257.544C1703.63 257.128 1704.17 256.52 1704.55 255.72H1708.42C1707.86 257.432 1706.87 258.768 1705.47 259.728C1704.07 260.672 1702.43 261.144 1700.55 261.144C1698.95 261.144 1697.5 260.784 1696.2 260.064C1694.92 259.328 1693.91 258.312 1693.15 257.016C1692.42 255.72 1692.05 254.248 1692.05 252.6ZM1722.69 244.248V246.96H1718.22V261H1714.86V246.96H1710.4V244.248H1722.69ZM1728.5 244.248V261H1725.14V244.248H1728.5ZM1746.87 244.248L1740.72 261H1736.64L1730.5 244.248H1734.1L1738.71 257.568L1743.29 244.248H1746.87ZM1752.24 246.96V251.16H1757.88V253.824H1752.24V258.264H1758.6V261H1748.88V244.224H1758.6V246.96H1752.24Z" fill="#1E1E1E"/>
<path d="M1615.74 366.248V368.96H1611.28V383H1607.92V368.96H1603.46V366.248H1615.74ZM1621.56 368.96V373.16H1627.2V375.824H1621.56V380.264H1627.92V383H1618.2V366.224H1627.92V368.96H1621.56ZM1641.24 379.808H1634.57L1633.46 383H1629.94L1635.96 366.224H1639.87L1645.9 383H1642.34L1641.24 379.808ZM1640.33 377.12L1637.9 370.112L1635.48 377.12H1640.33ZM1666.41 366.248V383H1663.05V372.104L1658.56 383H1656.02L1651.51 372.104V383H1648.15V366.248H1651.96L1657.29 378.704L1662.62 366.248H1666.41ZM1687.67 371.432C1687.67 372.328 1687.45 373.168 1687.02 373.952C1686.6 374.736 1685.94 375.368 1685.03 375.848C1684.13 376.328 1683 376.568 1681.62 376.568H1678.81V383H1675.45V366.248H1681.62C1682.92 366.248 1684.02 366.472 1684.93 366.92C1685.84 367.368 1686.52 367.984 1686.97 368.768C1687.44 369.552 1687.67 370.44 1687.67 371.432ZM1681.48 373.856C1682.4 373.856 1683.09 373.648 1683.54 373.232C1683.99 372.8 1684.21 372.2 1684.21 371.432C1684.21 369.8 1683.3 368.984 1681.48 368.984H1678.81V373.856H1681.48ZM1693.41 380.336H1698.93V383H1690.05V366.248H1693.41V380.336ZM1711.34 379.808H1704.67L1703.57 383H1700.04L1706.06 366.224H1709.97L1716 383H1712.45L1711.34 379.808ZM1710.43 377.12L1708.01 370.112L1705.58 377.12H1710.43ZM1731.57 366.248L1725.91 377.168V383H1722.55V377.168L1716.86 366.248H1720.65L1724.25 373.904L1727.83 366.248H1731.57ZM1736.87 368.96V373.16H1742.51V375.824H1736.87V380.264H1743.23V383H1733.51V366.224H1743.23V368.96H1736.87ZM1754.92 383L1751.23 376.472H1749.64V383H1746.28V366.248H1752.57C1753.87 366.248 1754.97 366.48 1755.88 366.944C1756.79 367.392 1757.47 368.008 1757.92 368.792C1758.39 369.56 1758.62 370.424 1758.62 371.384C1758.62 372.488 1758.3 373.488 1757.66 374.384C1757.02 375.264 1756.07 375.872 1754.8 376.208L1758.81 383H1754.92ZM1749.64 373.952H1752.45C1753.36 373.952 1754.04 373.736 1754.49 373.304C1754.94 372.856 1755.16 372.24 1755.16 371.456C1755.16 370.688 1754.94 370.096 1754.49 369.68C1754.04 369.248 1753.36 369.032 1752.45 369.032H1749.64V373.952Z" fill="#1E1E1E"/>
<rect x="282" y="147" width="54" height="35" rx="17.5" fill="#1E1E1E"/>
<rect x="282" y="147" width="54" height="35" rx="17.5" stroke="#1E1E1E" stroke-width="2"/>
<rect x="1259" y="269" width="54" height="35" rx="17.5" fill="#1E1E1E"/>
<rect x="1259" y="269" width="54" height="35" rx="17.5" stroke="#1E1E1E" stroke-width="2"/>
<rect x="937" y="391" width="53" height="35" rx="17.5" fill="#1E1E1E"/>
<rect x="937" y="391" width="53" height="35" rx="17.5" stroke="#1E1E1E" stroke-width="2"/>
<rect x="598" y="25" width="53" height="35" rx="17.5" fill="#1E1E1E"/>
<rect x="598" y="25" width="53" height="35" rx="17.5" stroke="#1E1E1E" stroke-width="2"/>
</svg>
