<svg width="844" height="689" viewBox="0 0 844 689" fill="none" xmlns="http://www.w3.org/2000/svg">
<path d="M40.01 19.49C40.01 23.55 38.61 26.9333 35.81 29.64C33.0567 32.3 28.8333 33.63 23.14 33.63H13.76V54H7.39V5.21H23.14C28.6467 5.21 32.8233 6.54 35.67 9.2C38.5633 11.86 40.01 15.29 40.01 19.49ZM23.14 28.38C26.6867 28.38 29.3 27.61 30.98 26.07C32.66 24.53 33.5 22.3367 33.5 19.49C33.5 13.47 30.0467 10.46 23.14 10.46H13.76V28.38H23.14ZM63.9571 54.63C60.3638 54.63 57.0971 53.8133 54.1571 52.18C51.2638 50.5467 48.9771 48.2367 47.2971 45.25C45.6638 42.2167 44.8471 38.7167 44.8471 34.75C44.8471 30.83 45.6871 27.3767 47.3671 24.39C49.0938 21.3567 51.4271 19.0467 54.3671 17.46C57.3071 15.8267 60.5971 15.01 64.2371 15.01C67.8771 15.01 71.1671 15.8267 74.1071 17.46C77.0471 19.0467 79.3571 21.3333 81.0371 24.32C82.7638 27.3067 83.6271 30.7833 83.6271 34.75C83.6271 38.7167 82.7404 42.2167 80.9671 45.25C79.2404 48.2367 76.8838 50.5467 73.8971 52.18C70.9104 53.8133 67.5971 54.63 63.9571 54.63ZM63.9571 49.03C66.2438 49.03 68.3904 48.4933 70.3971 47.42C72.4038 46.3467 74.0138 44.7367 75.2271 42.59C76.4871 40.4433 77.1171 37.83 77.1171 34.75C77.1171 31.67 76.5104 29.0567 75.2971 26.91C74.0838 24.7633 72.4971 23.1767 70.5371 22.15C68.5771 21.0767 66.4538 20.54 64.1671 20.54C61.8338 20.54 59.6871 21.0767 57.7271 22.15C55.8138 23.1767 54.2738 24.7633 53.1071 26.91C51.9404 29.0567 51.3571 31.67 51.3571 34.75C51.3571 37.8767 51.9171 40.5133 53.0371 42.66C54.2038 44.8067 55.7438 46.4167 57.6571 47.49C59.5704 48.5167 61.6704 49.03 63.9571 49.03ZM97.6725 22.71C98.9325 20.5167 100.799 18.6967 103.272 17.25C105.792 15.7567 108.709 15.01 112.023 15.01C115.429 15.01 118.509 15.8267 121.262 17.46C124.062 19.0933 126.256 21.4033 127.843 24.39C129.429 27.33 130.222 30.76 130.222 34.68C130.222 38.5533 129.429 42.0067 127.843 45.04C126.256 48.0733 124.062 50.43 121.262 52.11C118.509 53.79 115.429 54.63 112.023 54.63C108.756 54.63 105.862 53.9067 103.342 52.46C100.869 50.9667 98.9792 49.1233 97.6725 46.93V72.2H91.3025V15.64H97.6725V22.71ZM123.712 34.68C123.712 31.7867 123.129 29.2667 121.963 27.12C120.796 24.9733 119.209 23.34 117.203 22.22C115.243 21.1 113.072 20.54 110.692 20.54C108.359 20.54 106.189 21.1233 104.182 22.29C102.222 23.41 100.636 25.0667 99.4225 27.26C98.2558 29.4067 97.6725 31.9033 97.6725 34.75C97.6725 37.6433 98.2558 40.1867 99.4225 42.38C100.636 44.5267 102.222 46.1833 104.182 47.35C106.189 48.47 108.359 49.03 110.692 49.03C113.072 49.03 115.243 48.47 117.203 47.35C119.209 46.1833 120.796 44.5267 121.963 42.38C123.129 40.1867 123.712 37.62 123.712 34.68ZM144.277 22.71C145.537 20.5167 147.404 18.6967 149.877 17.25C152.397 15.7567 155.314 15.01 158.627 15.01C162.034 15.01 165.114 15.8267 167.867 17.46C170.667 19.0933 172.861 21.4033 174.447 24.39C176.034 27.33 176.827 30.76 176.827 34.68C176.827 38.5533 176.034 42.0067 174.447 45.04C172.861 48.0733 170.667 50.43 167.867 52.11C165.114 53.79 162.034 54.63 158.627 54.63C155.361 54.63 152.467 53.9067 149.947 52.46C147.474 50.9667 145.584 49.1233 144.277 46.93V72.2H137.907V15.64H144.277V22.71ZM170.317 34.68C170.317 31.7867 169.734 29.2667 168.567 27.12C167.401 24.9733 165.814 23.34 163.807 22.22C161.847 21.1 159.677 20.54 157.297 20.54C154.964 20.54 152.794 21.1233 150.787 22.29C148.827 23.41 147.241 25.0667 146.027 27.26C144.861 29.4067 144.277 31.9033 144.277 34.75C144.277 37.6433 144.861 40.1867 146.027 42.38C147.241 44.5267 148.827 46.1833 150.787 47.35C152.794 48.47 154.964 49.03 157.297 49.03C159.677 49.03 161.847 48.47 163.807 47.35C165.814 46.1833 167.401 44.5267 168.567 42.38C169.734 40.1867 170.317 37.62 170.317 34.68ZM187.802 9.41C186.589 9.41 185.562 8.99 184.722 8.15C183.882 7.31 183.462 6.28333 183.462 5.07C183.462 3.85666 183.882 2.83 184.722 1.99C185.562 1.15 186.589 0.729997 187.802 0.729997C188.969 0.729997 189.949 1.15 190.742 1.99C191.582 2.83 192.002 3.85666 192.002 5.07C192.002 6.28333 191.582 7.31 190.742 8.15C189.949 8.99 188.969 9.41 187.802 9.41ZM190.882 15.64V54H184.512V15.64H190.882ZM219.728 14.94C224.395 14.94 228.175 16.3633 231.068 19.21C233.962 22.01 235.408 26.07 235.408 31.39V54H229.108V32.3C229.108 28.4733 228.152 25.5567 226.238 23.55C224.325 21.4967 221.712 20.47 218.398 20.47C215.038 20.47 212.355 21.52 210.348 23.62C208.388 25.72 207.408 28.7767 207.408 32.79V54H201.038V15.64H207.408V21.1C208.668 19.14 210.372 17.6233 212.518 16.55C214.712 15.4767 217.115 14.94 219.728 14.94ZM258.694 54.63C255.754 54.63 253.117 54.14 250.784 53.16C248.45 52.1333 246.607 50.7333 245.254 48.96C243.9 47.14 243.154 45.0633 243.014 42.73H249.594C249.78 44.6433 250.667 46.2067 252.254 47.42C253.887 48.6333 256.01 49.24 258.624 49.24C261.05 49.24 262.964 48.7033 264.364 47.63C265.764 46.5567 266.464 45.2033 266.464 43.57C266.464 41.89 265.717 40.6533 264.224 39.86C262.73 39.02 260.42 38.2033 257.294 37.41C254.447 36.6633 252.114 35.9167 250.294 35.17C248.52 34.3767 246.98 33.2333 245.674 31.74C244.414 30.2 243.784 28.1933 243.784 25.72C243.784 23.76 244.367 21.9633 245.534 20.33C246.7 18.6967 248.357 17.4133 250.504 16.48C252.65 15.5 255.1 15.01 257.854 15.01C262.1 15.01 265.53 16.0833 268.144 18.23C270.757 20.3767 272.157 23.3167 272.344 27.05H265.974C265.834 25.0433 265.017 23.4333 263.524 22.22C262.077 21.0067 260.117 20.4 257.644 20.4C255.357 20.4 253.537 20.89 252.184 21.87C250.83 22.85 250.154 24.1333 250.154 25.72C250.154 26.98 250.55 28.03 251.344 28.87C252.184 29.6633 253.21 30.3167 254.424 30.83C255.684 31.2967 257.41 31.8333 259.604 32.44C262.357 33.1867 264.597 33.9333 266.324 34.68C268.05 35.38 269.52 36.4533 270.734 37.9C271.994 39.3467 272.647 41.2367 272.694 43.57C272.694 45.67 272.11 47.56 270.944 49.24C269.777 50.92 268.121 52.25 265.974 53.23C263.874 54.1633 261.447 54.63 258.694 54.63Z" fill="black"/>
<line x1="2" y1="82" x2="844" y2="82" stroke="black" stroke-width="2"/>
<path d="M99.8 373H39L27.8 404H8.6L59 265.4H80L130.2 404H111L99.8 373ZM94.6 358.2L69.4 287.8L44.2 358.2H94.6ZM143.366 348.8C143.366 337.6 145.632 327.8 150.166 319.4C154.699 310.867 160.899 304.267 168.766 299.6C176.766 294.933 185.632 292.6 195.366 292.6C204.966 292.6 213.299 294.667 220.366 298.8C227.432 302.933 232.699 308.133 236.166 314.4V294.4H254.566V404H236.166V383.6C232.566 390 227.166 395.333 219.966 399.6C212.899 403.733 204.632 405.8 195.166 405.8C185.432 405.8 176.632 403.4 168.766 398.6C160.899 393.8 154.699 387.067 150.166 378.4C145.632 369.733 143.366 359.867 143.366 348.8ZM236.166 349C236.166 340.733 234.499 333.533 231.166 327.4C227.832 321.267 223.299 316.6 217.566 313.4C211.966 310.067 205.766 308.4 198.966 308.4C192.166 308.4 185.966 310 180.366 313.2C174.766 316.4 170.299 321.067 166.966 327.2C163.632 333.333 161.966 340.533 161.966 348.8C161.966 357.2 163.632 364.533 166.966 370.8C170.299 376.933 174.766 381.667 180.366 385C185.966 388.2 192.166 389.8 198.966 389.8C205.766 389.8 211.966 388.2 217.566 385C223.299 381.667 227.832 376.933 231.166 370.8C234.499 364.533 236.166 357.267 236.166 349Z" fill="black"/>
<path d="M24.7691 452.895L24.7767 456.225L16.2267 456.244L16.2904 484.279L12.1954 484.288L12.1317 456.254L3.53673 456.273L3.52916 452.943L24.7691 452.895ZM41.614 459.111C43.474 459.107 45.1549 459.508 46.6567 460.315C48.1585 461.092 49.3312 462.274 50.1748 463.862C51.0484 465.45 51.4878 467.384 51.493 469.664L51.526 484.199L47.476 484.208L47.4443 470.258C47.4387 467.798 46.8195 465.925 45.5866 464.637C44.3536 463.32 42.6721 462.664 40.5421 462.669C38.3821 462.674 36.6586 463.353 35.3717 464.706C34.1148 466.059 33.4892 468.025 33.4951 470.605L33.5261 484.24L29.4311 484.249L29.3554 450.949L33.4504 450.94L33.478 463.09C34.2851 461.828 35.3929 460.851 36.8013 460.157C38.2398 459.464 39.844 459.116 41.614 459.111ZM80.235 470.859C80.2367 471.639 80.1936 472.464 80.1056 473.334L60.3956 473.379C60.5512 475.808 61.3805 477.712 62.8836 479.088C64.4167 480.435 66.2632 481.106 68.4232 481.101C70.1932 481.097 71.6623 480.688 72.8304 479.876C74.0285 479.033 74.866 477.921 75.3429 476.54L79.7529 476.53C79.0982 478.901 77.7826 480.839 75.8061 482.344C73.8294 483.818 71.3711 484.559 68.4311 484.566C66.0911 484.571 63.9899 484.051 62.1275 483.005C60.2951 481.959 58.8518 480.477 57.7974 478.56C56.743 476.612 56.2129 474.363 56.2071 471.813C56.2013 469.263 56.7062 467.027 57.7218 465.105C58.7375 463.183 60.1591 461.709 61.9868 460.685C63.8444 459.631 65.9732 459.101 68.3732 459.096C70.7132 459.09 72.7843 459.596 74.5867 460.612C76.389 461.627 77.7722 463.034 78.7363 464.832C79.7303 466.6 80.2298 468.609 80.235 470.859ZM76.003 470.013C75.9995 468.453 75.6515 467.119 74.9589 466.011C74.2663 464.872 73.3194 464.019 72.1181 463.452C70.9467 462.855 69.6411 462.558 68.2011 462.561C66.1311 462.566 64.3626 463.23 62.8956 464.553C61.4586 465.876 60.6378 467.708 60.4331 470.049L76.003 470.013ZM95.2092 471.68C95.2035 469.16 95.7085 466.954 96.7242 465.061C97.7398 463.139 99.1314 461.651 100.899 460.597C102.697 459.543 104.705 459.013 106.925 459.008C109.055 459.003 110.917 459.479 112.509 460.435C114.131 461.362 115.318 462.514 116.072 463.892L116.061 459.392L120.201 459.383L120.284 495.743L116.144 495.752L116.107 479.507C115.33 480.889 114.133 482.062 112.515 483.025C110.897 483.989 109.008 484.473 106.848 484.478C104.688 484.483 102.722 483.948 100.95 482.872C99.1772 481.796 97.7788 480.284 96.7543 478.336C95.7299 476.389 95.2149 474.17 95.2092 471.68ZM116.089 471.677C116.085 469.817 115.706 468.198 114.953 466.82C114.2 465.442 113.178 464.394 111.886 463.677C110.624 462.93 109.229 462.558 107.699 462.561C106.169 462.565 104.774 462.928 103.516 463.651C102.258 464.374 101.255 465.426 100.508 466.808C99.7613 468.189 99.39 469.81 99.3942 471.67C99.3985 473.56 99.7772 475.209 100.53 476.618C101.284 477.996 102.291 479.059 103.553 479.806C104.814 480.523 106.21 480.88 107.74 480.876C109.27 480.873 110.664 480.51 111.923 479.787C113.211 479.034 114.229 477.966 114.975 476.585C115.722 475.173 116.093 473.537 116.089 471.677ZM148.541 459.318L148.597 483.978L144.502 483.988L144.494 480.343C143.717 481.604 142.624 482.597 141.216 483.32C139.838 484.013 138.308 484.362 136.628 484.366C134.708 484.37 132.982 483.984 131.451 483.207C129.919 482.401 128.701 481.204 127.797 479.616C126.924 478.028 126.484 476.094 126.479 473.814L126.446 459.369L130.496 459.359L130.528 473.264C130.534 475.694 131.153 477.568 132.386 478.885C133.619 480.172 135.3 480.814 137.43 480.809C139.62 480.804 141.344 480.125 142.601 478.772C143.858 477.419 144.483 475.453 144.477 472.873L144.446 459.328L148.541 459.318ZM157.111 455.294C156.331 455.296 155.671 455.027 155.13 454.488C154.588 453.95 154.317 453.29 154.315 452.51C154.313 451.73 154.582 451.07 155.121 450.528C155.659 449.987 156.319 449.716 157.099 449.714C157.849 449.712 158.479 449.981 158.991 450.52C159.532 451.058 159.803 451.718 159.805 452.498C159.807 453.278 159.538 453.938 159 454.48C158.491 455.021 157.861 455.292 157.111 455.294ZM159.101 459.294L159.157 483.954L155.062 483.964L155.006 459.304L159.101 459.294ZM164.128 471.568C164.122 469.018 164.627 466.797 165.643 464.905C166.658 462.982 168.065 461.494 169.862 460.44C171.69 459.386 173.774 458.856 176.114 458.851C179.144 458.844 181.635 459.573 183.589 461.039C185.572 462.504 186.882 464.541 187.518 467.15L183.108 467.16C182.684 465.661 181.857 464.478 180.625 463.611C179.423 462.743 177.922 462.312 176.122 462.316C173.782 462.321 171.894 463.135 170.457 464.759C169.021 466.352 168.306 468.619 168.313 471.559C168.319 474.529 169.045 476.822 170.488 478.439C171.932 480.055 173.824 480.861 176.164 480.856C177.964 480.852 179.463 480.428 180.661 479.585C181.859 478.743 182.681 477.541 183.128 475.98L187.538 475.97C186.883 478.491 185.568 480.519 183.592 482.054C181.615 483.558 179.142 484.314 176.172 484.321C173.832 484.326 171.746 483.806 169.913 482.76C168.111 481.714 166.697 480.232 165.673 478.315C164.649 476.397 164.134 474.148 164.128 471.568ZM206.34 483.847L196.64 472.979L196.665 483.869L192.57 483.878L192.494 450.579L196.589 450.569L196.634 470.144L206.104 459.188L211.819 459.175L200.237 471.486L211.92 483.834L206.34 483.847ZM230.875 463.721C231.712 462.249 232.939 461.047 234.557 460.113C236.175 459.179 238.019 458.71 240.089 458.705C242.309 458.7 244.305 459.221 246.077 460.267C247.85 461.313 249.248 462.795 250.273 464.712C251.297 466.6 251.812 468.804 251.818 471.324C251.823 473.814 251.318 476.035 250.303 477.987C249.287 479.94 247.881 481.458 246.083 482.542C244.316 483.626 242.337 484.17 240.147 484.175C238.017 484.18 236.141 483.719 234.519 482.793C232.927 481.867 231.724 480.684 230.911 479.246L230.921 483.791L226.826 483.801L226.75 450.501L230.845 450.491L230.875 463.721ZM247.633 471.333C247.628 469.473 247.25 467.854 246.497 466.476C245.743 465.098 244.721 464.05 243.429 463.333C242.168 462.616 240.772 462.259 239.242 462.262C237.742 462.266 236.348 462.644 235.06 463.397C233.801 464.12 232.784 465.187 232.007 466.599C231.26 467.98 230.889 469.586 230.893 471.416C230.897 473.276 231.276 474.91 232.029 476.319C232.812 477.697 233.834 478.76 235.096 479.507C236.388 480.224 237.784 480.581 239.284 480.577C240.814 480.574 242.208 480.211 243.466 479.488C244.754 478.735 245.772 477.667 246.519 476.286C247.266 474.874 247.637 473.223 247.633 471.333ZM260.834 463.068C261.551 461.657 262.568 460.559 263.887 459.776C265.235 458.993 266.869 458.599 268.789 458.595L268.798 462.825L267.718 462.828C263.129 462.838 260.839 465.333 260.85 470.313L260.881 483.723L256.786 483.732L256.73 459.073L260.825 459.063L260.834 463.068ZM283.879 484.076C281.569 484.081 279.468 483.561 277.575 482.515C275.713 481.469 274.24 479.988 273.155 478.07C272.101 476.123 271.571 473.874 271.565 471.324C271.559 468.804 272.094 466.583 273.17 464.66C274.275 462.708 275.772 461.219 277.66 460.195C279.547 459.141 281.661 458.611 284.001 458.606C286.341 458.6 288.457 459.12 290.35 460.166C292.242 461.182 293.73 462.648 294.815 464.566C295.929 466.483 296.489 468.717 296.495 471.267C296.501 473.817 295.936 476.068 294.8 478.021C293.695 479.944 292.183 481.432 290.265 482.486C288.348 483.541 286.219 484.071 283.879 484.076ZM283.871 480.476C285.341 480.473 286.72 480.124 288.008 479.431C289.297 478.739 290.329 477.701 291.106 476.319C291.913 474.938 292.314 473.257 292.31 471.277C292.305 469.297 291.912 467.618 291.128 466.239C290.345 464.861 289.323 463.843 288.061 463.186C286.8 462.499 285.434 462.157 283.964 462.161C282.464 462.164 281.085 462.512 279.826 463.205C278.598 463.868 277.61 464.89 276.863 466.272C276.117 467.653 275.745 469.334 275.75 471.314C275.754 473.324 276.118 475.019 276.841 476.397C277.595 477.775 278.587 478.808 279.819 479.495C281.05 480.152 282.401 480.479 283.871 480.476ZM334.251 458.896L326.612 483.574L322.382 483.583L316.398 464.022L310.502 483.61L306.272 483.62L298.476 458.978L302.661 458.968L308.378 479.655L314.451 458.941L318.636 458.932L324.668 479.663L330.201 458.906L334.251 458.896ZM349.879 458.411C352.879 458.404 355.311 459.313 357.175 461.139C359.039 462.935 359.975 465.543 359.983 468.963L360.016 483.498L355.966 483.507L355.934 469.557C355.929 467.097 355.31 465.223 354.077 463.936C352.844 462.619 351.162 461.963 349.032 461.968C346.872 461.973 345.149 462.652 343.862 464.005C342.605 465.357 341.979 467.324 341.985 469.904L342.016 483.539L337.921 483.548L337.865 458.888L341.96 458.879L341.968 462.389C342.775 461.127 343.868 460.149 345.246 459.456C346.655 458.763 348.199 458.415 349.879 458.411ZM387.789 462.15L382.614 462.161L382.662 483.446L378.567 483.456L378.519 462.171L375.324 462.178L375.316 458.803L378.511 458.796L378.507 457.041C378.501 454.281 379.201 452.269 380.608 451.006C382.046 449.713 384.339 449.062 387.489 449.055L387.497 452.475C385.697 452.479 384.423 452.842 383.674 453.564C382.956 454.256 382.599 455.411 382.602 457.031L382.606 458.786L387.781 458.775L387.789 462.15ZM402.918 483.805C400.608 483.811 398.507 483.29 396.614 482.245C394.752 481.199 393.278 479.717 392.194 477.8C391.14 475.852 390.609 473.603 390.604 471.053C390.598 468.533 391.133 466.312 392.209 464.39C393.314 462.437 394.811 460.949 396.698 459.924C398.586 458.87 400.7 458.34 403.04 458.335C405.38 458.33 407.496 458.85 409.388 459.896C411.281 460.911 412.769 462.378 413.853 464.295C414.968 466.213 415.528 468.447 415.534 470.997C415.539 473.547 414.975 475.798 413.839 477.75C412.733 479.673 411.222 481.161 409.304 482.216C407.386 483.27 405.258 483.8 402.918 483.805ZM402.91 480.205C404.38 480.202 405.759 479.854 407.047 479.161C408.336 478.468 409.368 477.431 410.145 476.049C410.952 474.667 411.353 472.986 411.349 471.006C411.344 469.026 410.95 467.347 410.167 465.969C409.384 464.591 408.362 463.573 407.1 462.916C405.839 462.229 404.473 461.887 403.003 461.89C401.503 461.893 400.124 462.242 398.865 462.934C397.637 463.597 396.649 464.62 395.902 466.001C395.155 467.383 394.784 469.064 394.789 471.044C394.793 473.054 395.157 474.748 395.88 476.126C396.633 477.505 397.626 478.537 398.857 479.225C400.089 479.882 401.44 480.209 402.91 480.205ZM433.366 483.331L427.495 474.164L421.891 483.357L417.616 483.367L425.553 471.109L417.56 458.707L422.195 458.696L428.066 467.818L433.625 458.67L437.9 458.661L430.008 470.874L438.001 483.321L433.366 483.331ZM7.82985 523.633C7.04985 523.635 6.38924 523.367 5.84801 522.828C5.33679 522.289 5.08029 521.63 5.07851 520.85C5.07674 520.07 5.33024 519.409 5.83901 518.868C6.37778 518.327 7.03717 518.055 7.81716 518.053C8.59716 518.052 9.24278 518.32 9.754 518.859C10.2952 519.398 10.5667 520.057 10.5685 520.837C10.5703 521.617 10.3018 522.278 9.763 522.819C9.25423 523.36 8.60985 523.632 7.82985 523.633ZM9.93217 557.649C9.93715 559.839 9.3858 561.445 8.27812 562.468C7.17044 563.49 5.5516 564.004 3.42161 564.009L1.03661 564.014L1.02874 560.549L2.73873 560.545C3.87873 560.543 4.67322 560.316 5.12219 559.865C5.60117 559.414 5.83943 558.648 5.83698 557.568L5.76896 527.643L9.86395 527.634L9.93217 557.649ZM38.216 527.569L38.272 552.229L34.177 552.239L34.1688 548.594C33.3916 549.855 32.2989 550.848 30.8905 551.571C29.5121 552.264 27.9829 552.613 26.3029 552.617C24.3829 552.621 22.657 552.235 21.1252 551.458C19.5934 550.652 18.3757 549.455 17.4721 547.867C16.5985 546.279 16.1591 544.345 16.1539 542.065L16.121 527.62L20.171 527.61L20.2026 541.515C20.2082 543.945 20.8274 545.819 22.0604 547.136C23.2933 548.423 24.9748 549.065 27.1048 549.06C29.2948 549.055 31.0183 548.376 32.2752 547.023C33.5321 545.67 34.1576 543.704 34.1518 541.124L34.121 527.579L38.216 527.569ZM74.334 527.037C76.254 527.033 77.965 527.434 79.4668 528.241C80.9686 529.017 82.1563 530.2 83.0299 531.788C83.9035 533.376 84.3429 535.31 84.3481 537.59L84.3811 552.125L80.3311 552.134L80.2994 538.184C80.2938 535.724 79.6745 533.85 78.4416 532.563C77.2386 531.246 75.6021 530.589 73.5321 530.594C71.4021 530.599 69.7087 531.293 68.4518 532.676C67.1949 534.029 66.5694 535.995 66.5753 538.575L66.6061 552.165L62.5562 552.174L62.5244 538.224C62.5189 535.764 61.8996 533.891 60.6667 532.603C59.4637 531.286 57.8272 530.63 55.7572 530.635C53.6272 530.639 51.9338 531.333 50.6769 532.716C49.42 534.069 48.7944 536.035 48.8003 538.615L48.8312 552.205L44.7362 552.215L44.6801 527.555L48.7751 527.545L48.7832 531.1C49.5903 529.809 50.668 528.816 52.0165 528.123C53.3949 527.43 54.9091 527.081 56.5591 527.078C58.6291 527.073 60.4601 527.534 62.0522 528.46C63.6444 529.387 64.8325 530.749 65.6165 532.547C66.3026 530.806 67.4395 529.453 69.0273 528.489C70.6151 527.526 72.3841 527.042 74.334 527.037ZM94.6977 531.986C95.5044 530.574 96.7018 529.401 98.2897 528.468C99.9075 527.504 101.781 527.02 103.911 527.015C106.101 527.01 108.083 527.531 109.855 528.577C111.657 529.622 113.071 531.104 114.095 533.022C115.119 534.91 115.634 537.113 115.64 539.633C115.646 542.123 115.141 544.345 114.125 546.297C113.11 548.249 111.703 549.767 109.906 550.852C108.138 551.936 106.159 552.48 103.969 552.485C101.869 552.49 100.008 552.029 98.3861 551.103C96.7939 550.146 95.5762 548.964 94.733 547.556L94.77 563.801L90.675 563.81L90.5923 527.45L94.6873 527.441L94.6977 531.986ZM111.455 539.643C111.451 537.783 111.072 536.164 110.319 534.786C109.566 533.407 108.544 532.36 107.252 531.642C105.99 530.925 104.594 530.569 103.064 530.572C101.564 530.575 100.17 530.954 98.882 531.707C97.6237 532.429 96.6061 533.497 95.8293 534.908C95.0824 536.29 94.7111 537.896 94.7152 539.726C94.7195 541.586 95.0982 543.22 95.8514 544.628C96.6345 546.007 97.6569 547.069 98.9186 547.816C100.21 548.534 101.606 548.89 103.106 548.887C104.636 548.883 106.03 548.52 107.289 547.797C108.577 547.045 109.594 545.977 110.341 544.596C111.088 543.184 111.459 541.533 111.455 539.643ZM129.339 552.427C127.449 552.432 125.754 552.12 124.252 551.494C122.751 550.837 121.564 549.94 120.691 548.802C119.818 547.634 119.335 546.3 119.242 544.8L123.472 544.791C123.595 546.02 124.167 547.024 125.189 547.802C126.241 548.579 127.606 548.966 129.286 548.962C130.846 548.959 132.076 548.611 132.974 547.919C133.873 547.227 134.321 546.356 134.318 545.306C134.316 544.226 133.834 543.432 132.873 542.924C131.912 542.386 130.425 541.865 128.414 541.359C126.583 540.884 125.082 540.407 123.911 539.93C122.77 539.422 121.778 538.689 120.936 537.731C120.124 536.743 119.716 535.454 119.712 533.864C119.709 532.604 120.082 531.448 120.829 530.397C121.577 529.345 122.64 528.518 124.019 527.914C125.397 527.281 126.971 526.963 128.741 526.959C131.471 526.952 133.678 527.637 135.361 529.014C137.044 530.39 137.949 532.278 138.074 534.677L133.979 534.687C133.886 533.397 133.359 532.363 132.397 531.585C131.465 530.807 130.204 530.42 128.614 530.424C127.144 530.427 125.975 530.745 125.107 531.377C124.238 532.009 123.805 532.835 123.807 533.855C123.809 534.665 124.066 535.339 124.577 535.878C125.118 536.387 125.779 536.805 126.56 537.134C127.37 537.432 128.481 537.774 129.892 538.161C131.663 538.637 133.104 539.114 134.215 539.591C135.326 540.039 136.273 540.727 137.055 541.655C137.867 542.583 138.29 543.797 138.323 545.297C138.326 546.647 137.954 547.863 137.206 548.944C136.459 550.026 135.396 550.884 134.017 551.517C132.669 552.12 131.109 552.423 129.339 552.427ZM165.972 552.344C163.662 552.349 161.561 551.829 159.669 550.783C157.806 549.738 156.333 548.256 155.248 546.338C154.194 544.391 153.664 542.142 153.658 539.592C153.652 537.072 154.187 534.851 155.263 532.928C156.368 530.976 157.865 529.487 159.753 528.463C161.64 527.409 163.754 526.879 166.094 526.874C168.434 526.868 170.55 527.389 172.443 528.434C174.335 529.45 175.823 530.917 176.908 532.834C178.022 534.752 178.582 536.985 178.588 539.535C178.594 542.085 178.029 544.337 176.893 546.289C175.788 548.212 174.276 549.7 172.358 550.755C170.441 551.809 168.312 552.339 165.972 552.344ZM165.964 548.744C167.434 548.741 168.813 548.393 170.102 547.7C171.39 547.007 172.423 545.969 173.199 544.588C174.006 543.206 174.408 541.525 174.403 539.545C174.399 537.565 174.005 535.886 173.222 534.508C172.438 533.129 171.416 532.112 170.155 531.455C168.893 530.767 167.527 530.425 166.057 530.429C164.557 530.432 163.178 530.78 161.92 531.473C160.691 532.136 159.703 533.158 158.957 534.54C158.21 535.922 157.839 537.603 157.843 539.583C157.848 541.593 158.211 543.287 158.935 544.665C159.688 546.043 160.68 547.076 161.912 547.763C163.143 548.42 164.494 548.747 165.964 548.744ZM192.722 548.098L200.324 527.201L204.689 527.191L195.07 551.873L190.3 551.884L180.569 527.246L184.979 527.236L192.722 548.098ZM230.795 538.517C230.796 539.297 230.753 540.122 230.665 540.992L210.955 541.037C211.111 543.466 211.94 545.37 213.443 546.746C214.976 548.093 216.823 548.763 218.983 548.759C220.753 548.755 222.222 548.346 223.39 547.534C224.588 546.691 225.426 545.579 225.903 544.198L230.312 544.188C229.658 546.559 228.342 548.497 226.366 550.002C224.389 551.476 221.931 552.217 218.991 552.224C216.651 552.229 214.55 551.709 212.687 550.663C210.855 549.617 209.411 548.135 208.357 546.218C207.303 544.27 206.773 542.021 206.767 539.471C206.761 536.921 207.266 534.685 208.281 532.763C209.297 530.841 210.719 529.367 212.546 528.343C214.404 527.289 216.533 526.759 218.933 526.754C221.273 526.748 223.344 527.254 225.146 528.27C226.949 529.285 228.332 530.692 229.296 532.49C230.29 534.258 230.789 536.267 230.795 538.517ZM226.563 537.671C226.559 536.111 226.211 534.777 225.519 533.669C224.826 532.53 223.879 531.677 222.678 531.11C221.506 530.513 220.201 530.216 218.761 530.219C216.691 530.224 214.922 530.888 213.455 532.211C212.018 533.534 211.197 535.366 210.993 537.707L226.563 537.671ZM239.828 531.116C240.545 529.705 241.562 528.607 242.881 527.824C244.229 527.041 245.863 526.647 247.783 526.643L247.793 530.873L246.713 530.875C242.123 530.886 239.833 533.381 239.845 538.361L239.875 551.771L235.78 551.78L235.724 527.12L239.819 527.111L239.828 531.116ZM268.611 530.421L268.644 544.956C268.647 546.156 268.903 547.01 269.415 547.519C269.926 547.998 270.811 548.236 272.071 548.233L275.086 548.226L275.094 551.691L271.404 551.699C269.124 551.705 267.413 551.183 266.271 550.136C265.128 549.089 264.554 547.365 264.549 544.965L264.516 530.43L261.321 530.437L261.313 527.062L264.508 527.055L264.494 520.845L268.589 520.836L268.603 527.046L275.038 527.031L275.046 530.406L268.611 530.421ZM291.789 526.543C293.649 526.539 295.33 526.94 296.831 527.747C298.333 528.523 299.506 529.705 300.349 531.294C301.223 532.882 301.662 534.816 301.668 537.096L301.701 551.631L297.651 551.64L297.619 537.69C297.613 535.23 296.994 533.356 295.761 532.069C294.528 530.752 292.847 530.096 290.717 530.1C288.557 530.105 286.833 530.784 285.546 532.137C284.289 533.49 283.664 535.457 283.67 538.037L283.701 551.671L279.606 551.681L279.53 518.381L283.625 518.372L283.653 530.522C284.46 529.26 285.568 528.282 286.976 527.589C288.414 526.896 290.019 526.547 291.789 526.543ZM330.41 538.29C330.411 539.07 330.368 539.895 330.28 540.766L310.57 540.81C310.726 543.24 311.555 545.143 313.058 546.52C314.591 547.866 316.438 548.537 318.598 548.532C320.368 548.528 321.837 548.12 323.005 547.307C324.203 546.464 325.041 545.352 325.517 543.971L329.927 543.961C329.273 546.333 327.957 548.271 325.981 549.775C324.004 551.25 321.546 551.99 318.606 551.997C316.266 552.002 314.165 551.482 312.302 550.436C310.47 549.391 309.026 547.909 307.972 545.991C306.918 544.044 306.387 541.795 306.382 539.245C306.376 536.695 306.881 534.459 307.896 532.536C308.912 530.614 310.334 529.141 312.161 528.117C314.019 527.063 316.148 526.533 318.548 526.527C320.888 526.522 322.959 527.027 324.761 528.043C326.564 529.059 327.947 530.466 328.911 532.264C329.905 534.031 330.404 536.04 330.41 538.29ZM326.178 537.445C326.174 535.885 325.826 534.551 325.134 533.442C324.441 532.304 323.494 531.451 322.293 530.884C321.121 530.286 319.816 529.989 318.376 529.993C316.306 529.997 314.537 530.661 313.07 531.985C311.633 533.308 310.812 535.14 310.608 537.48L326.178 537.445ZM350.961 518.219L351.037 551.518L346.942 551.528L346.866 518.228L350.961 518.219ZM356.008 539.087C356.002 536.567 356.507 534.361 357.523 532.469C358.539 530.546 359.93 529.058 361.698 528.004C363.495 526.95 365.489 526.421 367.679 526.416C369.839 526.411 371.715 526.871 373.307 527.798C374.9 528.724 376.087 529.891 376.87 531.3L376.86 526.8L381 526.79L381.056 551.45L376.916 551.46L376.906 546.87C376.099 548.311 374.887 549.514 373.269 550.478C371.681 551.412 369.822 551.881 367.692 551.886C365.502 551.891 363.521 551.355 361.748 550.279C359.976 549.203 358.578 547.691 357.553 545.744C356.529 543.796 356.014 541.577 356.008 539.087ZM376.888 539.085C376.884 537.225 376.505 535.605 375.752 534.227C374.999 532.849 373.977 531.801 372.685 531.084C371.423 530.337 370.027 529.965 368.497 529.969C366.967 529.972 365.573 530.335 364.315 531.058C363.056 531.781 362.054 532.833 361.307 534.215C360.56 535.597 360.189 537.218 360.193 539.078C360.197 540.968 360.576 542.617 361.329 544.025C362.082 545.403 363.09 546.466 364.352 547.213C365.613 547.93 367.009 548.287 368.539 548.284C370.069 548.28 371.463 547.917 372.721 547.194C374.01 546.441 375.027 545.374 375.774 543.992C376.521 542.58 376.892 540.945 376.888 539.085ZM390.579 548.054L402.684 548.026L402.691 551.401L385.906 551.439L385.899 548.064L397.828 530.082L385.948 530.109L385.94 526.779L402.545 526.741L402.553 530.071L390.579 548.054ZM428.739 526.682L413.971 562.985L409.741 562.995L414.574 551.104L404.574 526.737L409.119 526.726L416.904 546.689L424.509 526.691L428.739 526.682ZM442.45 538.891C442.444 536.371 442.949 534.164 443.965 532.272C444.981 530.35 446.372 528.862 448.14 527.808C449.937 526.754 451.946 526.224 454.166 526.219C456.086 526.215 457.872 526.661 459.524 527.557C461.176 528.423 462.439 529.575 463.312 531.013L463.282 517.963L467.422 517.954L467.498 551.254L463.358 551.263L463.348 546.628C462.541 548.1 461.344 549.318 459.756 550.281C458.168 551.215 456.309 551.684 454.179 551.689C451.989 551.694 449.993 551.158 448.19 550.083C446.418 549.007 445.02 547.495 443.995 545.547C442.971 543.599 442.456 541.381 442.45 538.891ZM463.33 538.888C463.326 537.028 462.947 535.409 462.194 534.031C461.441 532.652 460.418 531.605 459.127 530.888C457.865 530.141 456.469 529.769 454.939 529.772C453.409 529.776 452.015 530.139 450.757 530.862C449.498 531.585 448.496 532.637 447.749 534.019C447.002 535.4 446.631 537.021 446.635 538.881C446.639 540.771 447.018 542.42 447.771 543.829C448.524 545.207 449.532 546.27 450.793 547.017C452.055 547.734 453.451 548.091 454.981 548.087C456.511 548.084 457.905 547.721 459.163 546.998C460.452 546.245 461.469 545.177 462.216 543.796C462.963 542.384 463.334 540.748 463.33 538.888ZM484.724 551.62C482.414 551.625 480.313 551.105 478.421 550.059C476.558 549.013 475.085 547.531 474.001 545.614C472.946 543.666 472.416 541.418 472.41 538.868C472.404 536.348 472.939 534.126 474.015 532.204C475.121 530.251 476.617 528.763 478.505 527.739C480.392 526.684 482.506 526.155 484.846 526.149C487.186 526.144 489.302 526.664 491.195 527.71C493.087 528.725 494.576 530.192 495.66 532.11C496.774 534.027 497.334 536.261 497.34 538.811C497.346 541.361 496.781 543.612 495.645 545.565C494.54 547.487 493.028 548.976 491.111 550.03C489.193 551.084 487.064 551.614 484.724 551.62ZM484.716 548.02C486.186 548.016 487.565 547.668 488.854 546.975C490.142 546.282 491.175 545.245 491.952 543.863C492.758 542.481 493.16 540.8 493.155 538.82C493.151 536.84 492.757 535.161 491.974 533.783C491.191 532.405 490.168 531.387 488.907 530.73C487.645 530.043 486.279 529.701 484.809 529.704C483.309 529.708 481.93 530.056 480.672 530.749C479.443 531.412 478.456 532.434 477.709 533.815C476.962 535.197 476.591 536.878 476.595 538.858C476.6 540.868 476.964 542.562 477.687 543.941C478.44 545.319 479.432 546.352 480.664 547.039C481.895 547.696 483.246 548.023 484.716 548.02ZM512.415 526.087C514.545 526.082 516.406 526.542 517.999 527.469C519.621 528.395 520.823 529.562 521.607 530.971L521.596 526.471L525.736 526.461L525.794 551.661C525.799 553.911 525.323 555.907 524.367 557.649C523.411 559.422 522.034 560.805 520.237 561.799C518.469 562.793 516.4 563.293 514.03 563.298C510.79 563.305 508.088 562.546 505.925 561.021C503.761 559.496 502.482 557.414 502.086 554.775L506.136 554.766C506.589 556.265 507.522 557.463 508.934 558.36C510.346 559.286 512.042 559.747 514.022 559.743C516.272 559.738 518.1 559.029 519.507 557.616C520.944 556.202 521.659 554.221 521.654 551.671L521.642 546.496C520.835 547.937 519.638 549.14 518.05 550.104C516.462 551.067 514.603 551.552 512.473 551.556C510.283 551.561 508.287 551.026 506.485 549.95C504.712 548.874 503.314 547.362 502.289 545.415C501.265 543.467 500.75 541.248 500.744 538.758C500.738 536.238 501.243 534.032 502.259 532.14C503.275 530.217 504.666 528.729 506.434 527.675C508.232 526.621 510.225 526.092 512.415 526.087ZM521.624 538.756C521.62 536.896 521.241 535.277 520.488 533.898C519.735 532.52 518.713 531.472 517.421 530.755C516.159 530.008 514.763 529.636 513.233 529.64C511.703 529.643 510.309 530.006 509.051 530.729C507.793 531.452 506.79 532.504 506.043 533.886C505.296 535.268 504.925 536.889 504.929 538.749C504.933 540.639 505.312 542.288 506.065 543.696C506.819 545.074 507.826 546.137 509.088 546.884C510.349 547.601 511.745 547.958 513.275 547.955C514.805 547.951 516.199 547.588 517.458 546.865C518.746 546.112 519.764 545.045 520.51 543.663C521.257 542.251 521.628 540.616 521.624 538.756ZM533.568 551.374C532.788 551.375 532.128 551.107 531.586 550.568C531.045 550.029 530.774 549.37 530.772 548.59C530.77 547.81 531.039 547.149 531.577 546.608C532.116 546.067 532.775 545.795 533.555 545.794C534.305 545.792 534.936 546.06 535.447 546.599C535.989 547.138 536.26 547.797 536.262 548.577C536.264 549.357 535.995 550.018 535.456 550.559C534.948 551.1 534.318 551.372 533.568 551.374ZM5.13183 603.7C5.1201 598.54 5.95096 594.518 7.62441 591.634C9.29779 588.72 12.2345 587.259 16.4345 587.249C20.6045 587.24 23.5328 588.688 25.2194 591.594C26.9059 594.47 27.755 598.488 27.7668 603.648C27.7787 608.898 26.948 612.98 25.2746 615.894C23.6012 618.808 20.6795 620.269 16.5095 620.279C12.3096 620.289 9.36626 618.84 7.67965 615.934C5.99304 613.028 5.14376 608.95 5.13183 603.7ZM23.7168 603.658C23.7109 601.048 23.5258 598.843 23.1617 597.044C22.8276 595.215 22.1193 593.746 21.0367 592.639C19.9842 591.531 18.453 590.979 16.443 590.984C14.403 590.989 12.8442 591.547 11.7668 592.66C10.7193 593.772 10.0176 595.244 9.66178 597.074C9.33588 598.875 9.17589 601.081 9.18182 603.691C9.18796 606.391 9.3581 608.655 9.69226 610.484C10.0564 612.314 10.7648 613.782 11.8173 614.89C12.8998 615.997 14.4611 616.549 16.5011 616.544C18.511 616.539 20.0398 615.981 21.0873 614.869C22.1647 613.756 22.8664 612.285 23.1922 610.454C23.5481 608.623 23.7229 606.358 23.7168 603.658ZM31.8309 591.444L31.8224 587.709L40.2824 587.69L40.3563 620.225L36.2163 620.234L36.1509 591.434L31.8309 591.444ZM46.4379 616.926C50.2409 613.857 53.2202 611.346 55.3758 609.391C57.5313 607.406 59.3416 605.347 60.8068 603.213C62.3019 601.05 63.047 598.933 63.0423 596.863C63.0379 594.913 62.5544 593.384 61.5919 592.276C60.6593 591.139 59.143 590.572 57.043 590.577C55.003 590.581 53.4145 591.23 52.2774 592.523C51.1703 593.785 50.5742 595.481 50.489 597.612L46.529 597.621C46.6414 594.26 47.6555 591.663 49.5713 589.829C51.4871 587.994 53.9601 587.074 56.9901 587.067C60.08 587.06 62.527 587.909 64.3309 589.615C66.1648 591.321 67.0851 593.674 67.0919 596.674C67.0976 599.164 66.3531 601.596 64.8585 603.969C63.3938 606.312 61.7185 608.386 59.8326 610.19C57.9467 611.965 55.5364 614.04 52.6018 616.417L68.0817 616.382L68.0895 619.802L46.4445 619.851L46.4379 616.926ZM72.2288 595.807C72.4325 593.047 73.4926 590.884 75.409 589.32C77.3255 587.756 79.8137 586.97 82.8737 586.963C84.9137 586.958 86.6695 587.329 88.1412 588.076C89.6429 588.793 90.7701 589.78 91.523 591.038C92.3058 592.297 92.6991 593.721 92.7027 595.311C92.7069 597.171 92.1706 598.777 91.0936 600.129C90.0467 601.482 88.6687 602.355 86.9596 602.749L86.9601 602.974C88.9112 603.449 90.4583 604.391 91.6015 605.798C92.7447 607.206 93.3189 609.049 93.3241 611.329C93.328 613.039 92.9415 614.585 92.1646 615.967C91.3877 617.319 90.2201 618.386 88.6619 619.17C87.1037 619.954 85.2296 620.348 83.0396 620.353C79.8596 620.36 77.2477 619.541 75.204 617.896C73.1602 616.22 72.0148 613.853 71.7678 610.793L75.7278 610.784C75.9419 612.584 76.6802 614.052 77.9428 615.189C79.2054 616.326 80.8867 616.893 82.9867 616.888C85.0867 616.883 86.6755 616.339 87.753 615.257C88.8605 614.145 89.4122 612.718 89.4083 610.978C89.4032 608.728 88.6495 607.11 87.1472 606.123C85.645 605.137 83.3789 604.647 80.3489 604.654L79.3139 604.656L79.3061 601.236L80.3861 601.234C83.146 601.197 85.23 600.743 86.638 599.87C88.046 598.966 88.7478 597.585 88.7436 595.725C88.74 594.135 88.2121 592.861 87.1599 591.903C86.1377 590.946 84.6667 590.469 82.7467 590.473C80.8867 590.478 79.3878 590.961 78.2499 591.924C77.1121 592.886 76.4401 594.178 76.2337 595.798L72.2288 595.807ZM97.4166 612.85L97.4095 609.745L113.155 587.839L118.06 587.828L118.108 609.248L122.608 609.238L122.617 612.793L118.117 612.803L118.133 620.048L114.083 620.057L114.067 612.812L97.4166 612.85ZM114.199 592.112L102.133 609.284L114.238 609.257L114.199 592.112ZM146.953 591.002L131.158 591.038L131.181 601.298C131.869 600.337 132.887 599.554 134.236 598.951C135.584 598.318 137.039 598 138.599 597.996C141.089 597.991 143.115 598.511 144.677 599.558C146.24 600.574 147.353 601.907 148.016 603.555C148.71 605.173 149.059 606.898 149.063 608.728C149.068 610.888 148.667 612.824 147.861 614.535C147.055 616.247 145.813 617.6 144.136 618.594C142.488 619.588 140.434 620.087 137.974 620.093C134.824 620.1 132.272 619.296 130.318 617.68C128.365 616.065 127.175 613.907 126.749 611.208L130.754 611.199C131.148 612.908 131.976 614.242 133.238 615.199C134.5 616.156 136.091 616.632 138.011 616.628C140.381 616.622 142.164 615.913 143.361 614.501C144.558 613.058 145.154 611.167 145.148 608.827C145.143 606.487 144.539 604.688 143.336 603.431C142.133 602.143 140.362 601.502 138.022 601.508C136.432 601.511 135.038 601.905 133.839 602.687C132.671 603.44 131.818 604.477 131.281 605.798L127.411 605.807L127.37 587.447L146.945 587.402L146.953 591.002ZM172.159 595.13C171.492 591.802 169.433 590.141 165.983 590.149C163.313 590.155 161.32 591.195 160.005 593.268C158.689 595.311 158.052 598.687 158.093 603.397C158.779 601.836 159.917 600.618 161.505 599.744C163.123 598.841 164.922 598.387 166.901 598.382C169.991 598.375 172.454 599.329 174.288 601.245C176.152 603.161 177.088 605.814 177.096 609.204C177.101 611.244 176.7 613.075 175.894 614.697C175.117 616.318 173.92 617.611 172.302 618.575C170.715 619.538 168.781 620.023 166.501 620.028C163.411 620.035 160.994 619.351 159.251 617.975C157.508 616.598 156.289 614.696 155.593 612.268C154.898 609.839 154.546 606.84 154.538 603.27C154.513 592.26 158.34 586.747 166.02 586.729C168.96 586.722 171.272 587.512 172.955 589.098C174.639 590.684 175.634 592.692 175.939 595.122L172.159 595.13ZM166.054 601.849C164.764 601.852 163.55 602.125 162.411 602.667C161.272 603.18 160.344 603.977 159.627 605.059C158.939 606.11 158.597 607.401 158.6 608.931C158.606 611.211 159.27 613.069 160.593 614.506C161.916 615.913 163.808 616.614 166.268 616.609C168.368 616.604 170.031 615.955 171.259 614.662C172.516 613.339 173.141 611.568 173.136 609.348C173.131 607.008 172.527 605.179 171.324 603.862C170.121 602.515 168.364 601.844 166.054 601.849ZM202.153 590.517L189.71 619.885L185.57 619.895L198.194 590.931L180.824 590.97L180.816 587.46L202.146 587.412L202.153 590.517ZM212.212 602.914C210.53 602.258 209.238 601.301 208.335 600.043C207.432 598.785 206.979 597.256 206.975 595.456C206.971 593.836 207.373 592.38 208.18 591.088C208.987 589.766 210.185 588.729 211.773 587.975C213.391 587.191 215.34 586.797 217.62 586.792C219.9 586.787 221.836 587.172 223.428 587.949C225.05 588.695 226.267 589.727 227.08 591.045C227.923 592.333 228.346 593.787 228.35 595.407C228.354 597.147 227.892 598.678 226.965 600.001C226.038 601.293 224.765 602.256 223.147 602.889C225.008 603.455 226.48 604.457 227.564 605.894C228.677 607.302 229.236 609.01 229.24 611.02C229.245 612.97 228.769 614.682 227.812 616.154C226.855 617.596 225.493 618.724 223.725 619.538C221.986 620.322 219.977 620.717 217.697 620.722C215.417 620.727 213.406 620.341 211.665 619.565C209.953 618.759 208.615 617.637 207.652 616.2C206.689 614.732 206.205 613.023 206.2 611.073C206.196 609.063 206.732 607.337 207.809 605.894C208.885 604.452 210.353 603.458 212.212 602.914ZM224.391 595.911C224.387 594.081 223.784 592.673 222.581 591.686C221.379 590.698 219.728 590.207 217.628 590.212C215.558 590.216 213.924 590.715 212.726 591.708C211.529 592.701 210.932 594.127 210.936 595.987C210.94 597.667 211.558 599.016 212.79 600.033C214.053 601.05 215.674 601.556 217.654 601.552C219.664 601.547 221.283 601.033 222.51 600.011C223.768 598.958 224.395 597.591 224.391 595.911ZM217.661 604.702C215.441 604.707 213.627 605.236 212.219 606.289C210.812 607.312 210.11 608.859 210.115 610.929C210.119 612.849 210.798 614.392 212.151 615.559C213.533 616.726 215.38 617.307 217.69 617.302C220 617.296 221.828 616.707 223.176 615.534C224.523 614.361 225.194 612.815 225.19 610.895C225.185 608.885 224.492 607.356 223.11 606.309C221.727 605.232 219.911 604.697 217.661 604.702ZM239.494 611.042C239.798 612.751 240.491 614.07 241.573 614.997C242.685 615.925 244.171 616.386 246.031 616.382C248.521 616.377 250.349 615.397 251.515 613.445C252.71 611.492 253.273 608.206 253.202 603.586C252.575 604.937 251.528 606.005 250.059 606.788C248.591 607.541 246.957 607.92 245.157 607.924C243.147 607.929 241.346 607.528 239.754 606.722C238.192 605.885 236.96 604.673 236.056 603.085C235.152 601.497 234.698 599.578 234.693 597.328C234.686 594.118 235.61 591.536 237.465 589.582C239.321 587.597 241.958 586.601 245.378 586.594C249.578 586.584 252.522 587.942 254.208 590.669C255.924 593.395 256.788 597.458 256.8 602.858C256.809 606.638 256.471 609.759 255.787 612.22C255.132 614.682 253.997 616.559 252.38 617.853C250.792 619.146 248.604 619.796 245.814 619.803C242.754 619.81 240.367 618.99 238.653 617.344C236.94 615.698 235.96 613.6 235.714 611.051L239.494 611.042ZM245.824 604.458C247.834 604.453 249.483 603.834 250.77 602.601C252.057 601.339 252.698 599.642 252.693 597.512C252.688 595.262 252.054 593.449 250.791 592.071C249.528 590.694 247.756 590.008 245.476 590.013C243.376 590.018 241.698 590.682 240.441 592.005C239.214 593.328 238.603 595.069 238.608 597.229C238.613 599.419 239.232 601.173 240.465 602.49C241.698 603.807 243.484 604.463 245.824 604.458Z" fill="black"/>
</svg>
