<svg width="120" height="210" viewBox="0 0 120 210" fill="none" xmlns="http://www.w3.org/2000/svg">
<path d="M39.168 138.924C40.9826 139.349 44.5202 140.091 46.4755 140.376C46.5116 140.382 46.5477 140.387 46.5837 140.393C47.0503 140.465 47.4908 140.528 48.0052 140.595C49.2383 140.745 50.9054 140.985 54.4048 141.172C55.4197 141.211 56.446 141.228 57.4619 141.224C68.4628 141.181 79.5075 138.553 89.1179 133.158C89.2386 133.089 89.3609 133.018 89.484 132.946C90.1594 132.554 90.8935 132.106 91.6031 131.65C92.3312 131.133 93.4463 131.838 93.286 132.721C93.0531 134.455 92.8232 136.14 92.6421 137.391C92.2465 140.123 91.971 141.978 91.7437 143.501C90.5167 152.241 89.2928 160.982 88.0926 169.726C87.7164 172.466 87.3426 175.208 86.9717 177.949C86.8276 179.014 86.6838 180.079 86.5403 181.144C86.4936 181.483 86.262 181.758 85.9554 181.876C84.7083 182.352 83.5694 182.785 82.3287 183.253C80.969 183.778 79.622 184.294 78.4064 184.751C76.6766 185.401 75.1565 185.952 73.8549 186.397C70.7717 187.459 67.1891 188.486 64.4767 189.014C64.0456 189.1 63.6072 189.181 63.2221 189.247C61.0596 189.642 58.8588 189.875 56.6499 189.891C56.5023 189.886 56.3545 189.881 56.2038 189.874C54.3256 189.783 52.0043 189.658 48.4498 188.954C46.8834 188.641 45.1348 188.222 43.0642 187.633C41.7173 187.247 41.0754 187.019 40.5151 186.825C40.3519 186.769 40.1979 186.715 40.0409 186.661C39.5273 186.483 38.9731 186.326 38.2974 186.128C37.444 185.879 36.392 185.565 35.081 185.085C35.0808 185.085 35.0806 185.085 35.0803 185.085C30.8584 183.531 28.9078 182.873 27.5234 182.427C27.1048 182.29 26.7205 182.164 26.3245 182.027C26.2235 181.993 26.1188 181.956 26.0109 181.918C25.6947 181.805 25.4316 181.521 25.3789 181.144C25.2162 179.952 25.048 178.538 24.9231 177.411C24.7982 176.284 24.4758 174.038 24.2194 172.336C24.1225 171.693 24.0067 170.82 23.8705 169.793C23.7295 168.73 23.5664 167.5 23.3797 166.186C22.9079 162.864 22.6596 161.099 22.46 159.68C22.4031 159.275 22.3502 158.898 22.2972 158.522C22.1298 157.332 21.9267 155.855 21.7213 154.36C21.4756 152.57 21.2266 150.754 21.0316 149.373C20.5762 145.786 20.1245 142.198 19.6728 138.611C19.4409 136.769 19.2598 134.995 19.1695 133.683C19.1458 133.338 19.1289 133.033 19.1187 132.77C19.0937 132.166 19.6259 131.961 19.8526 131.997C20.1098 132.026 20.1829 132.152 20.1646 132.179C20.1461 132.218 20.0319 132.184 19.8699 132.232C19.7144 132.271 19.4984 132.47 19.5704 132.709C19.6293 132.966 19.6928 133.265 19.7599 133.604C20.0157 134.895 20.3042 136.654 20.5618 138.493C21.0805 142.198 21.5995 145.903 22.1145 149.609C22.7417 154.123 23.3631 158.638 23.9701 163.155C24.3948 166.315 24.8159 169.475 25.2338 172.636C25.2769 172.961 25.3198 173.287 25.3628 173.612C25.7489 176.262 26.1314 178.908 26.3909 180.774C26.4018 180.852 26.4125 180.929 26.4229 181.005C26.4132 180.953 26.3992 180.944 26.3701 180.931C27.489 181.337 28.3222 181.652 29.0501 181.926C29.6923 182.168 30.2483 182.377 30.805 182.574C31.1063 182.68 31.4989 182.818 32.0166 182.999C32.9301 183.318 34.0817 183.717 35.3961 184.164C37.0433 184.725 38.9279 185.354 40.6915 185.916C42.1064 186.368 43.7255 186.869 45.3207 187.303C47.5752 187.926 49.7188 188.36 50.7972 188.508C52.7032 188.788 54.9065 188.985 56.8549 188.973C58.7148 188.97 60.335 188.802 61.2509 188.658C62.3417 188.485 63.2808 188.339 64.6528 188.065C65.6173 187.869 66.7906 187.607 68.3534 187.177C70.1685 186.675 71.4336 186.285 72.5381 185.941C74.043 185.469 75.1977 185.087 76.8809 184.456C78.7533 183.752 80.7098 183.003 82.2318 182.442C82.9516 182.177 83.7315 181.881 84.5656 181.563C84.9267 181.426 85.2983 181.284 85.6754 181.14C85.719 181.126 85.7589 181.073 85.7614 181.039C85.8458 180.422 85.9312 179.811 86.0162 179.23C86.1512 178.305 86.279 177.544 86.3922 176.87C86.4275 176.66 86.4613 176.458 86.4935 176.263C86.5932 175.526 86.6927 174.788 86.792 174.051C86.8043 173.931 86.8171 173.805 86.8304 173.674C86.8974 173.014 86.9798 172.202 87.102 171.2C87.2954 169.614 87.4974 168.227 87.7105 166.764C87.8765 165.624 88.0491 164.439 88.2297 163.078C88.3528 162.149 88.4865 161.091 88.619 160.043C88.8159 158.485 89.0104 156.947 89.1643 155.881C89.222 155.482 89.2836 155.14 89.3446 154.802C89.3449 154.8 89.3452 154.799 89.3455 154.797C89.3496 154.774 89.3538 154.751 89.3579 154.728C89.6994 152.127 90.04 149.526 90.3799 146.925C90.4067 146.699 90.4339 146.471 90.4608 146.245C90.5925 145.141 90.7205 144.067 90.7905 143.366C90.8664 142.605 91.1094 140.701 91.3656 138.693C91.5334 137.379 91.7069 136.02 91.8428 134.91C91.9223 134.261 92.021 133.648 92.1226 133.018C92.1463 132.871 92.1701 132.723 92.1939 132.573C92.2126 132.583 92.1929 132.551 92.1872 132.563C92.1211 132.605 92.0543 132.648 91.9868 132.691C91.704 132.872 91.398 133.07 91.0675 133.278C90.7761 133.462 90.4666 133.653 90.1425 133.845C89.8431 134.023 89.1473 134.415 88.2614 134.874C87.7106 135.16 87.0737 135.479 86.4087 135.797C84.6485 136.667 82.8541 137.448 81.0212 138.146C80.6441 138.302 80.3156 138.439 80.0572 138.555C79.8717 138.638 79.7147 138.713 79.5559 138.788C79.3387 138.891 79.1131 138.997 78.7947 139.126C78.5459 139.226 78.2464 139.331 78.0411 139.389C77.9454 139.416 77.8708 139.433 77.803 139.449C77.7261 139.466 77.6578 139.482 77.5761 139.507C77.5173 139.526 77.4572 139.549 77.3833 139.578C77.2651 139.623 77.1113 139.682 76.8712 139.754C75.9736 140.024 74.9564 140.301 73.9421 140.55C72.8248 140.825 71.7094 141.064 70.8356 141.241C69.8466 141.443 68.434 141.679 67.0027 141.862C66.0153 141.989 65.0037 142.095 64.1539 142.174C63.3151 142.252 62.4352 142.331 61.59 142.391C60.5677 142.464 59.5905 142.511 58.7536 142.513C58.5843 142.514 58.3736 142.5 58.1089 142.481C57.9206 142.468 57.7095 142.452 57.466 142.436C56.4081 142.439 55.341 142.417 54.2843 142.371C54.2468 142.372 54.2082 142.373 54.1694 142.373C54.1688 142.373 54.1682 142.373 54.1676 142.374C53.2879 142.39 52.0994 142.404 50.4271 142.2C50.0058 142.149 49.7414 142.099 49.5031 142.054C49.269 142.01 49.0599 141.97 48.7507 141.93C48.3975 141.884 47.9871 141.844 47.537 141.796C46.9068 141.729 46.1903 141.643 45.4921 141.51C45.4445 141.501 45.3932 141.492 45.3398 141.481C44.8337 141.385 44.0826 141.234 43.3361 141.051C41.1316 140.615 38.9153 140.073 36.7591 139.445C33.1444 138.395 29.6076 137.087 26.1737 135.561C24.4987 134.819 22.932 134.01 21.826 133.363C20.7126 132.713 20.1144 132.272 20.1646 132.179C20.2146 132.084 20.9086 132.341 22.0874 132.842C23.2593 133.34 24.8549 134.047 26.5236 134.758C29.2318 135.915 32.0115 136.938 34.8303 137.804C34.9783 137.849 35.1267 137.892 35.2744 137.936C36.3668 138.256 37.42 138.522 38.4469 138.76C38.6847 138.815 38.9274 138.87 39.168 138.924Z" fill="black"/>
<path d="M31.7618 122.135C33.2162 122.479 36.0048 123.159 37.5589 123.474C37.5872 123.48 37.6155 123.486 37.6439 123.492C38.0105 123.568 38.357 123.637 38.7677 123.715C39.7448 123.895 41.0581 124.157 43.8265 124.555C44.6341 124.658 45.441 124.75 46.2517 124.831C54.9945 125.723 63.8603 125.183 72.5041 123.532C72.6133 123.51 72.7244 123.488 72.8368 123.465C75.0042 123.035 77.6694 122.401 79.3433 121.986C81.4732 121.46 82.8987 121.071 84.0885 120.741C87.7412 119.686 91.3566 118.491 94.9386 117.193L95.4495 117.002L95.4531 117.552C95.4389 120.767 95.4274 123.983 95.4205 127.198C95.418 128.342 95.4162 129.486 95.4149 130.63L95.4163 130.834L95.2329 130.934C94.2826 131.44 93.3496 131.926 92.4045 132.404C90.5794 133.329 88.752 134.205 86.8941 135.036C85.8104 135.531 84.7902 135.98 83.8193 136.39C82.4773 136.957 81.2396 137.443 80.2372 137.811C77.7873 138.718 74.9516 139.567 72.8263 140.095C72.4758 140.183 72.1453 140.264 71.8401 140.336C70.1529 140.755 68.443 141.116 66.718 141.411C66.6024 141.426 66.4859 141.44 66.3675 141.454C64.8891 141.629 63.0753 141.901 60.2013 142.092C58.9494 142.172 57.4955 142.23 55.7839 142.215C54.682 142.203 54.1136 142.157 53.6535 142.122C53.518 142.111 53.391 142.1 53.2623 142.09C52.8212 142.056 52.3547 142.045 51.802 142.025C51.0866 141.998 50.2314 141.957 49.1024 141.807C45.5207 141.31 43.9658 141.009 42.7748 140.82C42.4263 140.761 42.1056 140.704 41.7863 140.641C40.7524 140.437 39.272 140.057 38.1821 139.734C37.3023 139.479 35.5666 139 34.2412 138.599C33.7466 138.452 33.0801 138.234 32.2899 137.962C31.4769 137.682 30.5557 137.353 29.546 136.985C27.0397 136.065 25.7236 135.51 24.6596 135.069C24.3547 134.941 24.0747 134.822 23.7988 134.704C22.9304 134.334 21.8077 133.835 20.7337 133.34C19.4234 132.736 18.103 132.1 17.1021 131.611C16.7616 131.438 16.42 131.263 16.0774 131.086L15.8003 130.947L15.7981 130.63C15.8106 128.13 15.8251 125.629 15.8396 123.129C15.8483 121.65 15.8971 120.231 15.9776 119.185C16.0582 118.14 16.1633 117.552 16.2722 117.552C16.3811 117.552 16.4861 118.14 16.5667 119.185C16.6472 120.231 16.6961 121.65 16.7048 123.129C16.7193 125.629 16.7338 128.13 16.7463 130.63L16.5086 130.242C16.9414 130.46 17.3724 130.675 17.8016 130.887C21.0464 132.489 24.3401 133.985 27.6939 135.331C30.034 136.271 32.4257 137.141 34.8204 137.902C35.0707 137.982 35.3205 138.06 35.5699 138.137C37.5994 138.734 39.6551 139.243 41.1148 139.569C42.3055 139.836 43.1949 140.03 43.9416 140.185C44.4548 140.291 44.918 140.381 45.3854 140.459C45.6364 140.501 45.9793 140.556 46.3917 140.617C48.0839 140.877 50.9606 141.204 53.6078 141.33C54.7807 141.391 56.1437 141.432 57.4478 141.427C59.311 141.424 61.0506 141.318 61.922 141.228C63.4571 141.073 65.2156 140.856 66.7537 140.607C68.2327 140.369 69.5005 140.11 70.228 139.93C71.0833 139.716 71.8234 139.55 72.9155 139.278C73.6633 139.091 74.6072 138.844 75.8422 138.472C77.2834 138.037 78.2891 137.709 79.1498 137.422C80.3656 137.012 81.2542 136.697 82.5807 136.147C84.0384 135.541 85.5566 134.873 86.7556 134.345C87.311 134.101 87.9129 133.825 88.5564 133.523C89.4096 133.122 90.2931 132.694 91.1023 132.304C91.7694 131.982 92.3398 131.716 92.8213 131.49C92.9734 131.418 93.1196 131.349 93.2611 131.281C93.7841 131.01 94.3092 130.733 94.8367 130.451C94.8711 130.431 94.9063 130.411 94.9422 130.39L94.7984 130.63C94.7962 130.571 94.794 130.511 94.7917 130.449C94.7722 129.921 94.7483 129.271 94.7363 128.467C94.7175 127.195 94.7293 126.078 94.7418 124.901C94.7516 123.984 94.7618 123.03 94.7581 121.936C94.7556 121.19 94.747 120.341 94.7384 119.499C94.7316 118.827 94.7248 118.159 94.7213 117.552L95.1909 117.88C94.6952 118.065 94.2438 118.23 93.8683 118.361C93.564 118.467 93.2997 118.547 93.0387 118.626C93.0375 118.626 93.0364 118.627 93.0352 118.627C93.0175 118.632 92.9997 118.638 92.982 118.643C91.0126 119.351 89.0245 120.032 87.0426 120.668C86.8742 120.725 86.6956 120.785 86.5224 120.842C85.6725 121.124 84.8543 121.386 84.3262 121.565C83.7396 121.763 82.2836 122.202 80.7153 122.634C79.6926 122.917 78.64 123.194 77.7687 123.418C77.2612 123.548 76.7818 123.647 76.2803 123.747C75.8096 123.841 75.3282 123.934 74.8078 124.05C74.5472 124.108 74.267 124.173 73.9686 124.241C73.7036 124.301 73.42 124.365 73.1252 124.427C72.8509 124.485 72.2377 124.599 71.4571 124.733C70.9688 124.816 70.4126 124.908 69.8331 124.999C68.3057 125.264 66.7693 125.494 65.2197 125.687C64.899 125.738 64.6218 125.785 64.4032 125.829C64.2461 125.861 64.1146 125.893 63.976 125.925C63.7881 125.969 63.5937 126.014 63.3245 126.06C63.1141 126.097 62.8649 126.126 62.6968 126.135C62.6185 126.14 62.5581 126.139 62.5033 126.139C62.4405 126.139 62.3845 126.139 62.3168 126.145C62.2679 126.149 62.2174 126.158 62.1553 126.168C62.056 126.185 61.927 126.206 61.7296 126.223C60.9893 126.285 60.1478 126.34 59.3274 126.381C58.4087 126.428 57.5136 126.457 56.8011 126.478C55.9981 126.503 54.8621 126.503 53.7178 126.475C52.9207 126.456 52.1252 126.425 51.4408 126.395C50.7707 126.366 50.0732 126.341 49.3978 126.307C48.5873 126.268 47.8069 126.217 47.1476 126.145C47.0143 126.131 46.8499 126.1 46.6439 126.059C46.4979 126.031 46.3299 125.998 46.1385 125.963C45.2977 125.879 44.4613 125.782 43.6244 125.673C43.5946 125.671 43.5639 125.669 43.5331 125.668C43.5326 125.668 43.5321 125.668 43.5316 125.668C42.8351 125.629 41.8893 125.573 40.5763 125.313C40.2424 125.247 40.038 125.192 39.8518 125.141C39.6694 125.091 39.5064 125.046 39.2642 124.999C38.9891 124.946 38.6615 124.897 38.3038 124.841C37.8013 124.762 37.2474 124.67 36.6941 124.537C36.6564 124.528 36.6158 124.518 36.5736 124.508C36.1731 124.411 35.5786 124.264 34.9998 124.094C33.2495 123.685 31.5066 123.225 29.79 122.726C26.9171 121.891 24.0779 120.935 21.2762 119.889C19.9271 119.386 18.6247 118.832 17.7104 118.384C16.7861 117.933 16.2843 117.615 16.3248 117.517C16.3649 117.417 16.944 117.544 17.9236 117.844C18.8934 118.141 20.2236 118.599 21.5722 119.076C23.8028 119.868 26.0284 120.594 28.2935 121.258C28.4117 121.291 28.5303 121.325 28.6483 121.358C29.5338 121.605 30.364 121.81 31.1866 122.002C31.3773 122.047 31.5698 122.091 31.7618 122.135Z" fill="black"/>
<path d="M82.7362 123.101C81.4994 123.476 79.0653 124.005 77.7122 124.255C77.6879 124.26 77.6635 124.265 77.6391 124.269C77.3234 124.329 77.0225 124.387 76.6661 124.454C75.8169 124.609 74.6845 124.827 72.2831 125.154C71.5887 125.259 70.8856 125.357 70.1915 125.446C65.3855 126.067 60.5389 126.37 55.6905 126.345C52.9325 126.331 50.1758 126.207 47.4278 125.983C47.3315 125.976 47.2337 125.969 47.135 125.961C45.2402 125.824 42.8813 125.576 41.4127 125.365C39.5513 125.1 38.2791 124.874 37.2472 124.684C31.3044 123.621 25.429 122.234 19.8144 119.886C19.1353 119.591 18.4192 119.255 17.7578 118.881C17.422 118.69 17.0941 118.489 16.7711 118.244C16.494 117.99 16.0636 117.802 15.9675 117.112C15.9808 116.723 16.2272 116.517 16.3768 116.383C16.565 116.228 16.7213 116.136 16.9197 116.028C18.5578 115.227 20.2636 114.88 21.9803 114.497C22.9564 114.281 23.9301 114.091 24.7918 113.933C26.0287 113.707 27.1297 113.531 28.0481 113.399C30.2437 113.083 32.7579 112.827 34.6202 112.667C34.9247 112.641 35.2224 112.616 35.4815 112.594C36.9588 112.454 38.4445 112.331 39.9224 112.223C40.0223 112.221 40.1232 112.218 40.226 112.216C41.4838 112.191 43.0542 112.091 45.498 111.985C46.5633 111.939 47.8017 111.892 49.2583 111.857C50.2013 111.835 50.6762 111.848 51.0736 111.859C51.1899 111.862 51.2992 111.865 51.4098 111.867C51.7914 111.874 52.1813 111.853 52.6518 111.829C53.2622 111.798 53.9922 111.763 54.9578 111.785C55.2131 111.791 55.4571 111.796 55.6905 111.801C58.265 111.858 59.4738 111.837 60.4227 111.817C60.7244 111.811 60.997 111.806 61.2751 111.806C62.1825 111.808 63.4622 111.866 64.4449 111.93C65.2138 111.979 66.7613 112.024 67.935 112.061C68.3838 112.075 68.9686 112.106 69.6827 112.15C70.4164 112.194 71.2551 112.249 72.1618 112.303C74.4484 112.442 75.6531 112.543 76.6323 112.624C76.9119 112.648 77.1701 112.67 77.4261 112.693C78.2445 112.765 79.2506 112.865 80.2821 112.978C81.5039 113.112 82.7598 113.268 83.692 113.389C86.1503 113.758 88.5758 114.179 90.9952 114.789C92.2328 115.106 93.4033 115.508 94.2268 115.99C94.6259 116.226 94.9367 116.485 95.0815 116.737C95.23 116.981 95.1636 117.205 95.1088 117.185C95.0547 117.186 95.007 117.051 94.8398 116.94C94.6725 116.816 94.3696 116.667 93.9717 116.521C93.1557 116.22 92.001 115.922 90.7867 115.629C88.3309 115.045 85.8247 114.649 83.3043 114.304C80.2448 113.891 77.1616 113.579 74.0784 113.324C71.9213 113.146 69.7535 113 67.5964 112.884C67.3699 112.872 67.152 112.861 66.9299 112.849C65.1037 112.787 63.2997 112.749 62.0165 112.724C60.9608 112.702 60.1919 112.673 59.5309 112.65C59.0799 112.634 58.6787 112.621 58.2712 112.618C58.053 112.616 57.7503 112.615 57.3944 112.614C56.9221 112.613 56.3409 112.614 55.6905 112.616C54.33 112.621 52.6955 112.635 51.1557 112.647C50.147 112.654 48.969 112.661 47.8567 112.676C46.25 112.697 44.756 112.736 44.0116 112.782C42.68 112.863 41.1737 112.938 39.8318 113.018C38.5604 113.094 37.4351 113.174 36.8094 113.244C36.0421 113.33 35.414 113.376 34.4425 113.456C33.7855 113.51 32.9558 113.581 31.8525 113.699C30.5731 113.836 29.6699 113.935 28.8982 114.023C27.8153 114.148 27.0152 114.247 25.7995 114.464C24.4633 114.704 23.0753 114.975 21.9914 115.197C21.4842 115.301 20.9193 115.429 20.3476 115.574C19.565 115.773 18.7683 116.001 18.0635 116.257C17.5019 116.462 17.0018 116.675 16.7221 116.913C16.6291 116.994 16.5863 117.063 16.5777 117.1C16.5771 117.104 16.5769 117.108 16.5769 117.112C16.5668 117.18 16.7077 117.385 16.8641 117.525C17.0241 117.676 17.231 117.828 17.4085 117.948C17.4744 117.988 17.5471 118.031 17.6272 118.077C17.9975 118.287 18.4981 118.536 19.1082 118.815C20.0786 119.257 20.9762 119.63 21.8917 119.987C22.6179 120.268 23.3706 120.542 24.2715 120.83C24.8608 121.018 25.5674 121.226 26.2539 121.417C27.28 121.704 28.295 121.961 29.0048 122.15C29.276 122.222 29.4945 122.29 29.7161 122.359C29.7171 122.359 29.7181 122.359 29.719 122.36C29.7341 122.364 29.7492 122.369 29.7642 122.373C31.4941 122.788 33.2474 123.156 34.9895 123.475C35.1419 123.501 35.3023 123.527 35.4504 123.551C36.1825 123.671 36.9301 123.784 37.3927 123.839C37.9056 123.901 39.1898 124.095 40.558 124.267C41.44 124.379 42.3749 124.485 43.123 124.557C43.5627 124.599 43.9886 124.659 44.4109 124.717C44.8087 124.771 45.22 124.825 45.6746 124.863C45.9044 124.882 46.1441 124.898 46.4048 124.914C46.6338 124.928 46.8766 124.942 47.1316 124.958C47.3687 124.974 47.8965 125.022 48.567 125.075C48.9817 125.108 49.4621 125.144 49.9566 125.175C51.2692 125.236 52.5865 125.274 53.9064 125.288C54.18 125.281 54.4181 125.268 54.6068 125.25C54.7422 125.237 54.8577 125.221 54.9763 125.204C55.1377 125.182 55.3048 125.158 55.5354 125.139C55.5853 125.134 55.6377 125.131 55.6905 125.128C55.8282 125.121 55.9678 125.119 56.0708 125.123C56.1372 125.126 56.1882 125.131 56.2344 125.136C56.2874 125.141 56.3347 125.146 56.3924 125.146C56.434 125.145 56.4772 125.141 56.5303 125.136C56.6152 125.127 56.7255 125.116 56.8931 125.114C57.5142 125.105 58.2284 125.095 58.9229 125.077C59.6905 125.058 60.4545 125.03 61.053 124.997C61.7184 124.962 62.6939 124.921 63.6473 124.867C64.3243 124.829 64.9928 124.785 65.5662 124.738C66.1352 124.692 66.7211 124.626 67.2828 124.559C67.9683 124.478 68.6216 124.393 69.1736 124.339C69.2875 124.328 69.4304 124.327 69.609 124.326C69.7356 124.325 69.881 124.323 70.0456 124.318C70.7485 124.227 71.4618 124.128 72.1649 124.025C72.1893 124.019 72.2144 124.013 72.2396 124.007C72.24 124.007 72.2404 124.007 72.2408 124.007C72.8029 123.869 73.5963 123.675 74.7083 123.527C74.9942 123.489 75.1749 123.478 75.3375 123.467C75.4972 123.457 75.6395 123.447 75.8431 123.413C76.0705 123.376 76.3541 123.312 76.6505 123.243C77.0719 123.145 77.521 123.038 78.0055 122.956C78.038 122.951 78.073 122.945 78.1094 122.939C78.4581 122.88 78.9482 122.795 79.4669 122.719C80.9429 122.404 82.4412 122.051 83.9055 121.665C86.3475 121.018 88.7802 120.28 91.1117 119.331C92.2454 118.867 93.3275 118.387 94.0572 117.979C94.8219 117.579 95.0351 117.205 95.1088 117.185C95.164 117.165 95.2211 117.378 95.1104 117.616C94.9886 117.88 94.7538 118.153 94.3878 118.456C93.6853 119.04 92.6015 119.63 91.4477 120.128C89.5805 120.932 87.6335 121.598 85.6953 122.187C85.5939 122.219 85.4914 122.251 85.3886 122.283C84.6267 122.519 83.9181 122.743 83.224 122.955C83.0632 123.004 82.9006 123.052 82.7362 123.101Z" fill="black"/>
<path d="M57.527 25.6401V121.887H54.5885V23.437L57.527 25.6401Z" stroke="black" stroke-width="0.587762"/>
<path d="M83.0776 51.0531C85.0786 50.4133 92.2978 49.0056 99.1895 48.266C102.633 47.8964 105.978 47.6963 108.536 47.8383C109.816 47.9095 110.883 48.0654 111.66 48.3207C112.454 48.5813 112.863 48.9167 112.979 49.2819C113.096 49.647 112.957 50.1568 112.462 50.8293C111.977 51.4884 111.199 52.2341 110.197 53.0351C108.197 54.6349 105.357 56.4126 102.338 58.1098C96.2954 61.5063 89.599 64.5487 87.598 65.1887C83.6947 66.437 79.5181 64.285 78.2697 60.3818C77.0214 56.4783 79.1741 52.3014 83.0776 51.0531Z" stroke="black" stroke-width="0.587762"/>
<path d="M78.7829 61.6527C82.0222 57.5601 94.083 52.6415 104.283 51.8535" stroke="black" stroke-width="0.587762"/>
<path d="M78.3558 60.9067C71.4251 62.3027 57.5638 66.6888 57.5638 73.0661" stroke="black" stroke-width="0.514292"/>
<path d="M32.528 74.4134C30.8482 73.1518 24.4922 69.4505 18.226 66.4877C15.0947 65.0072 12.0017 63.7196 9.53919 63.0134C8.30622 62.6598 7.24795 62.4568 6.42966 62.4424C5.59443 62.4279 5.09802 62.6103 4.86777 62.9168C4.63778 63.2234 4.60124 63.7505 4.84778 64.5483C5.08947 65.3302 5.57921 66.29 6.26224 67.3757C7.6264 69.544 9.72462 72.156 12.0187 74.751C16.6096 79.9439 21.9349 85.0174 23.6145 86.2793C26.8911 88.7407 31.5428 88.0802 34.0043 84.8038C36.4657 81.5271 35.8047 76.8749 32.528 74.4134Z" stroke="black" stroke-width="0.587762"/>
<path d="M33.1019 85.836C31.3869 80.9064 21.6116 72.2985 12.2364 68.2031" stroke="black" stroke-width="0.587762"/>
<path d="M44.4682 39.42C43.5497 38.0968 39.8133 33.8692 35.965 30.2012C34.0423 28.3685 32.1015 26.6851 30.479 25.5773C29.6665 25.0227 28.945 24.6195 28.3527 24.4117C27.7485 24.1999 27.3433 24.2128 27.1017 24.3802C26.8602 24.5479 26.7058 24.9233 26.6929 25.5639C26.6804 26.1914 26.8058 27.0084 27.0414 27.9634C27.5118 29.8709 28.4103 32.2779 29.4549 34.7201C31.5456 39.6081 34.1996 44.587 35.1181 45.9102C36.9104 48.4919 40.4565 49.1317 43.0384 47.3395C45.62 45.5472 46.2601 42.0019 44.4682 39.42Z" stroke="black" stroke-width="0.450777"/>
<path d="M42.132 47.8739C42.0718 43.8714 37.0299 35.2477 31.1915 30.0059" stroke="black" stroke-width="0.450777"/>
<path d="M33.7667 85.0786C40.6974 86.4745 54.5588 90.8607 54.5588 97.2379" stroke="black" stroke-width="0.514292"/>
<path d="M44.6716 45.258C48.8488 48.7149 56.6251 56.7062 54.3122 61.0157" stroke="black" stroke-width="0.39443"/>
<path d="M74.4964 87.448C75.7843 86.4805 80.6602 83.6417 85.4664 81.3693C87.8678 80.2339 90.2394 79.2459 92.1278 78.7043C93.0734 78.4331 93.8851 78.2771 94.5127 78.2662C95.1529 78.255 95.5335 78.3946 95.7102 78.6295C95.8868 78.8646 95.9154 79.2695 95.7262 79.8816C95.5408 80.4813 95.1649 81.2174 94.6411 82.05C93.5949 83.7129 91.9854 85.7155 90.2261 87.7055C86.7049 91.6885 82.6203 95.5808 81.3324 96.5482C78.8194 98.4357 75.252 97.9283 73.3644 95.4154C71.477 92.9025 71.9838 89.3357 74.4964 87.448Z" stroke="black" stroke-width="0.450777"/>
<path d="M74.0568 96.2074C75.372 92.4267 82.8691 85.825 90.0593 82.6841" stroke="black" stroke-width="0.450777"/>
<path d="M71.015 30.3759C72.0207 29.6204 75.828 27.4036 79.5813 25.629C81.4567 24.7422 83.3095 23.9706 84.7844 23.5477C85.5227 23.336 86.1562 23.2154 86.6462 23.2068C87.1464 23.1981 87.4431 23.3068 87.581 23.4903C87.7189 23.6739 87.7412 23.9898 87.5935 24.4678C87.4487 24.9359 87.1557 25.5104 86.7469 26.1603C85.9299 27.4589 84.6727 29.0235 83.2987 30.5777C80.5489 33.6881 77.3593 36.7273 76.3536 37.4828C74.3911 38.9569 71.605 38.5611 70.1308 36.5987C68.6568 34.6362 69.0526 31.8501 71.015 30.3759Z" stroke="black" stroke-width="0.35202"/>
<path d="M70.6718 37.2168C71.6989 34.2644 77.5535 29.109 83.1685 26.6562" stroke="black" stroke-width="0.35202"/>
<path d="M41.3025 63.5107C40.2968 62.7552 36.4894 60.5383 32.7362 58.7637C30.8607 57.877 29.0079 57.1054 27.5331 56.6824C26.7948 56.4708 26.1612 56.3502 25.6712 56.3416C25.1711 56.3329 24.8744 56.4415 24.7364 56.6251C24.5985 56.8086 24.5762 57.1246 24.724 57.6026C24.8687 58.0707 25.1617 58.6451 25.5705 59.295C26.3875 60.5937 27.6447 62.1583 29.0187 63.7125C31.7685 66.8229 34.9582 69.8621 35.9639 70.6176C37.9264 72.0917 40.7125 71.6959 42.1866 69.7334C43.6607 67.771 43.2648 64.9849 41.3025 63.5107Z" stroke="black" stroke-width="0.35202"/>
<path d="M41.6457 70.3516C40.6186 67.3992 34.764 62.2438 29.149 59.791" stroke="black" stroke-width="0.35202"/>
<path d="M41.6201 98.5027C40.6893 98.6208 37.4999 99.4124 34.5691 100.412C33.1047 100.912 31.7124 101.462 30.7032 102.002C30.198 102.272 29.7958 102.537 29.5291 102.787C29.2568 103.042 29.1543 103.254 29.1758 103.424C29.1974 103.594 29.3497 103.774 29.6771 103.953C29.9979 104.129 30.4533 104.284 31.0101 104.42C32.1221 104.69 33.6076 104.875 35.1504 104.993C38.2381 105.229 41.5242 105.199 42.4549 105.081C44.2712 104.85 45.5571 103.191 45.3266 101.374C45.096 99.5581 43.4363 98.2722 41.6201 98.5027Z" stroke="black" stroke-width="0.262581"/>
<path d="M45.3579 101.986C43.2743 100.939 37.4622 101.222 33.1825 102.826" stroke="black" stroke-width="0.262581"/>
<path d="M67.0762 16.0275C66.9686 15.0954 66.213 11.8973 65.2461 8.95539C64.763 7.48543 64.229 6.08703 63.7006 5.07187C63.4361 4.5636 63.176 4.15848 62.929 3.8889C62.6769 3.61379 62.4657 3.50891 62.2956 3.52851C62.1255 3.54815 61.9438 3.6984 61.761 4.02376C61.5819 4.34254 61.421 4.79622 61.2792 5.35145C60.9961 6.46032 60.7949 7.94357 60.6594 9.48498C60.3884 12.5698 60.3815 15.856 60.4891 16.7881C60.6992 18.6068 62.3442 19.9113 64.1629 19.7013C65.9817 19.4913 67.2862 17.8462 67.0762 16.0275Z" stroke="black" stroke-width="0.262581"/>
<path d="M63.5507 19.7257C64.6208 17.654 64.4041 11.8391 62.8482 7.54154" stroke="black" stroke-width="0.262581"/>
<path d="M73.5469 95.627C68.2315 96.6975 57.6006 100.061 57.6006 104.952" stroke="black" stroke-width="0.39443"/>
<path d="M70.2736 36.7632C66.1227 37.5992 57.8209 40.2262 57.8209 44.0456" stroke="black" stroke-width="0.308017"/>
<path d="M42.0439 69.8979C46.1948 70.734 54.4966 73.3609 54.4966 77.1804" stroke="black" stroke-width="0.308017"/>
<path d="M45.2077 102.386C48.304 103.009 54.4965 104.969 54.4965 107.818" stroke="black" stroke-width="0.229758"/>
<path d="M63.1528 19.5712C62.4943 22.6602 60.465 28.8302 57.6162 28.7981" stroke="black" stroke-width="0.229758"/>
<path d="M38.7068 192.942C38.702 193.545 38.6246 194.707 38.6095 195.347C38.6092 195.359 38.6088 195.371 38.6085 195.383C38.604 195.534 38.6024 195.677 38.6018 195.846C38.6025 196.247 38.5966 196.793 38.6264 197.926C38.6467 198.256 38.6706 198.583 38.6985 198.915C38.7542 199.577 38.8257 200.24 38.9133 200.902C39.007 201.487 38.5802 202.123 37.9706 202.226C35.7259 202.632 33.4436 203.145 31.8976 204.621C31.6522 204.859 31.4054 205.091 31.1607 205.321C31.1279 205.353 31.0947 205.386 31.0612 205.419C30.4143 206.049 29.6283 206.843 29.2997 207.353C29.0772 207.675 29.0398 207.921 29.0704 207.973C29.0844 208.054 29.2657 208.189 29.4524 208.262C29.7826 208.386 30.1732 208.446 30.5757 208.484C30.5868 208.486 30.6002 208.486 30.6086 208.485C33.0269 208.203 35.4489 208.064 37.8675 207.935C38.7707 207.888 39.6741 207.846 40.5772 207.808C41.409 207.773 42.2414 207.741 43.0726 207.716C43.5634 207.691 44.0149 207.668 44.4489 207.649C45.051 207.622 45.5858 207.603 46.0282 207.6C46.5545 207.597 47.1325 207.603 47.6835 207.648C48.1416 207.691 48.5804 207.564 48.9085 207.368C49.0151 207.305 49.111 207.236 49.1957 207.167C49.6568 206.766 49.9623 206.183 50.0689 205.568C50.0808 205.528 50.0923 205.486 50.1029 205.445C50.2277 204.928 50.2352 204.194 49.7199 203.236C49.5757 202.974 49.3876 202.697 49.1442 202.415C49.1146 202.38 49.088 202.345 49.0615 202.304C48.9502 202.131 48.8384 201.955 48.7197 201.765C48.4794 201.381 48.3786 201.174 48.294 201.001C48.2693 200.95 48.2465 200.903 48.2229 200.856C48.1402 200.692 48.029 200.535 47.9004 200.347C47.7331 200.102 47.5328 199.805 47.3454 199.37C46.7563 197.974 46.6182 197.302 46.4802 196.812C46.4434 196.666 46.4135 196.534 46.3903 196.398C46.3123 195.954 46.2955 195.317 46.3147 194.845C46.3196 194.712 46.3196 194.534 46.3182 194.329C46.3149 193.957 46.3169 193.511 46.3253 193.142C46.3298 192.925 46.353 192.633 46.3899 192.291C46.4279 191.937 46.4807 191.529 46.5384 191.094C46.6882 189.993 46.815 189.414 46.9147 188.948C46.9441 188.815 46.9721 188.692 47.0017 188.568C47.0061 188.549 47.0106 188.531 47.0152 188.512C47.0343 188.437 46.9668 188.33 46.8865 188.327C46.7935 188.31 46.6929 188.292 46.599 188.274C46.0111 188.164 45.4231 188.038 44.974 187.946C43.8233 187.661 42.6812 187.353 41.5437 187.055C40.9588 186.903 40.4092 186.719 40.0178 186.56C39.9908 186.549 39.9659 186.538 39.9429 186.528C39.8367 186.409 39.635 186.52 39.5511 186.481C39.5074 186.46 39.4749 186.387 39.5258 186.264C39.5717 186.147 39.7511 185.968 40.0445 185.982C40.0716 185.981 40.1006 185.981 40.1316 185.982C40.5795 185.988 41.1579 186.078 41.7505 186.215C42.9417 186.491 44.1273 186.775 45.3134 187.039C45.8985 187.168 46.4838 187.294 47.0661 187.403C47.6701 187.506 48.0794 188.163 47.9129 188.751C47.7797 189.264 47.6635 189.784 47.5608 190.307C47.3648 191.31 47.2208 192.323 47.1543 193.335C47.1475 193.439 47.1416 193.544 47.1366 193.648C47.134 193.877 47.1359 194.106 47.1425 194.329C47.1597 194.946 47.1973 195.512 47.2438 195.938C47.2959 196.421 47.3417 196.764 47.393 197.058C47.4286 197.259 47.4675 197.437 47.5211 197.612C47.5499 197.706 47.5918 197.833 47.6483 197.986C47.8658 198.611 48.405 199.631 48.9512 200.562C49.1825 200.963 49.4538 201.432 49.7182 201.881C49.7194 201.884 49.722 201.889 49.7249 201.894C49.7272 201.898 49.7298 201.902 49.7322 201.906C50.2503 202.538 50.5526 203.245 50.6813 203.61C50.9316 204.259 50.9935 205.093 50.8276 205.788C50.68 206.457 50.3553 206.973 50.1596 207.252C49.9229 207.586 49.6583 207.841 49.1918 208.092C48.8676 208.257 48.427 208.425 47.813 208.418C47.749 208.417 47.6863 208.414 47.625 208.409C47.1234 208.367 46.7255 208.351 46.3884 208.334C45.8664 208.31 45.479 208.298 44.894 208.33C44.2444 208.365 43.5667 208.398 43.0292 208.405C42.789 208.407 42.505 208.417 42.2179 208.427C41.8309 208.441 41.4275 208.457 41.0608 208.462C40.7553 208.466 40.505 208.455 40.2812 208.446C40.2115 208.444 40.144 208.441 40.0795 208.439C39.839 208.45 39.5951 208.462 39.3538 208.474C39.3149 208.48 39.274 208.486 39.2312 208.492C39.0165 208.522 38.7522 208.559 38.4248 208.589C37.9063 208.636 37.4495 208.651 36.9689 208.668C36.5934 208.682 36.2033 208.697 35.7585 208.732C35.4531 208.756 35.1109 208.79 34.7661 208.826C34.2601 208.878 33.7556 208.933 33.4077 208.957C33.2795 208.965 33.1623 208.963 33.0501 208.96C33.0497 208.96 33.0492 208.96 33.0487 208.96C33.041 208.96 33.0333 208.96 33.0257 208.96C32.2504 209.042 31.4746 209.135 30.7115 209.249C30.6445 209.258 30.5803 209.26 30.5149 209.256C30.4799 209.253 30.4454 209.251 30.4113 209.248C30.3322 209.245 30.2547 209.24 30.1802 209.234C29.7966 209.206 29.418 209.14 29.158 209.067C29.0204 209.023 28.7586 208.96 28.4573 208.676C28.1192 208.4 28.0473 207.722 28.2158 207.347C28.4071 206.826 28.7104 206.453 28.9456 206.146C29.0859 205.968 29.2388 205.821 29.3958 205.676C29.5433 205.539 29.6949 205.404 29.85 205.244C29.9267 205.166 30.0087 205.077 30.0948 204.984C30.171 204.902 30.2518 204.816 30.3377 204.728C30.4175 204.646 30.6064 204.474 30.8443 204.256C30.955 204.154 31.0767 204.042 31.2008 203.924C31.2461 203.881 31.2927 203.837 31.3403 203.794C31.833 203.32 32.3964 202.934 32.985 202.618C33.1031 202.542 33.2046 202.475 33.2827 202.416C33.3387 202.373 33.3846 202.333 33.4322 202.292C33.4972 202.237 33.5649 202.18 33.6654 202.116C33.7439 202.066 33.8417 202.02 33.9116 201.999C33.9441 201.989 33.9702 201.985 33.9939 201.981C34.021 201.977 34.0452 201.973 34.0724 201.963C34.0921 201.955 34.1113 201.944 34.1348 201.929C34.1725 201.907 34.2215 201.878 34.3014 201.849C34.5995 201.741 34.9424 201.635 35.279 201.544C35.6534 201.442 36.0192 201.357 36.3098 201.289C36.6355 201.211 37.1023 201.132 37.5618 201.059C37.6211 201.05 37.6812 201.04 37.7381 201.031C37.7152 201.045 37.7175 201.067 37.7222 201.065C37.7228 201.066 37.7233 201.065 37.7232 201.064C37.6917 200.83 37.6545 200.594 37.6204 200.364C37.5707 200.029 37.5282 199.714 37.5154 199.437C37.5129 199.382 37.523 199.312 37.5359 199.224C37.5451 199.162 37.5558 199.093 37.5644 199.01C37.5351 198.661 37.5113 198.316 37.4927 197.968C37.4898 197.955 37.4868 197.943 37.4837 197.931C37.4837 197.93 37.4836 197.93 37.4835 197.93C37.4152 197.648 37.3232 197.259 37.3526 196.705C37.3603 196.567 37.3789 196.477 37.3957 196.397C37.4123 196.318 37.4273 196.248 37.4297 196.147C37.4325 196.032 37.4208 195.895 37.4092 195.745C37.3928 195.536 37.3765 195.302 37.3986 195.067C37.4002 195.051 37.4018 195.034 37.4035 195.016C37.4194 194.849 37.4449 194.593 37.4918 194.347C37.5318 193.605 37.5966 192.866 37.6888 192.127C37.8429 190.9 38.0686 189.673 38.4014 188.475C38.564 187.89 38.7907 187.347 39.0214 186.974C39.2523 186.598 39.4582 186.43 39.5511 186.481C39.6485 186.527 39.6344 186.775 39.5635 187.182C39.4921 187.589 39.3722 188.127 39.2391 188.692C39.0216 189.612 38.8702 190.549 38.7613 191.495C38.7569 191.544 38.7526 191.594 38.7483 191.643C38.7159 192.015 38.7091 192.358 38.7072 192.704C38.7066 192.785 38.7067 192.862 38.7068 192.942Z" fill="black"/>
<path d="M75.0868 192.871C75.0922 193.475 75.1708 194.637 75.1865 195.278C75.1869 195.29 75.1872 195.302 75.1875 195.314C75.1922 195.467 75.1939 195.608 75.1947 195.778C75.1943 196.179 75.2007 196.726 75.1717 197.86C75.1517 198.189 75.1279 198.519 75.1004 198.849C75.0425 199.544 74.9672 200.239 74.8744 200.932C74.7862 201.484 75.1858 202.077 75.7588 202.177C78.029 202.586 80.3368 203.093 81.8993 204.584C82.1337 204.812 82.3695 205.033 82.6036 205.253C82.6363 205.285 82.6697 205.318 82.7032 205.351C83.3519 205.982 84.1396 206.776 84.4772 207.285C84.7061 207.608 84.7584 207.868 84.7302 207.926C84.7229 208.004 84.5606 208.137 84.3748 208.214C84.0402 208.346 83.6287 208.409 83.2132 208.449C83.2069 208.45 83.1984 208.45 83.1952 208.45C80.7849 208.168 78.3709 208.029 75.9601 207.9C75.056 207.853 74.1516 207.811 73.2476 207.772C72.4149 207.737 71.5816 207.706 70.7493 207.68C70.2589 207.655 69.8055 207.632 69.372 207.613C68.7689 207.585 68.2364 207.566 67.7905 207.563C67.2566 207.56 66.6718 207.566 66.113 207.612C65.6606 207.654 65.2278 207.531 64.9021 207.34C64.7951 207.278 64.6986 207.21 64.6133 207.141C64.1492 206.743 63.84 206.161 63.7303 205.546C63.7183 205.506 63.7066 205.465 63.6957 205.423C63.5684 204.906 63.5574 204.172 64.0701 203.211C64.216 202.944 64.4072 202.662 64.6556 202.374C64.6831 202.342 64.7074 202.31 64.7319 202.272C64.8421 202.101 64.9526 201.927 65.0701 201.739C65.3106 201.355 65.4118 201.147 65.4964 200.974C65.5211 200.923 65.544 200.876 65.5676 200.829C65.6504 200.665 65.7616 200.508 65.8906 200.32C66.0581 200.075 66.2588 199.778 66.4466 199.342C67.0375 197.945 67.1766 197.273 67.315 196.783C67.352 196.636 67.382 196.504 67.4053 196.368C67.4837 195.924 67.5007 195.286 67.4816 194.814C67.4767 194.679 67.4768 194.499 67.4783 194.292C67.4817 193.921 67.4797 193.477 67.4714 193.108C67.4669 192.892 67.4437 192.6 67.4069 192.257C67.3689 191.903 67.3161 191.495 67.2582 191.058C67.1083 189.956 66.9812 189.376 66.8816 188.911C66.8523 188.778 66.8238 188.654 66.7946 188.531C66.7837 188.485 66.772 188.437 66.7605 188.39C66.7525 188.352 66.7921 188.302 66.8235 188.306C66.9322 188.287 67.0477 188.266 67.1583 188.246C67.7468 188.136 68.3364 188.01 68.7856 187.918C69.938 187.633 71.0809 187.325 72.2198 187.027C72.8038 186.874 73.357 186.69 73.7481 186.529C73.7943 186.509 73.8486 186.488 73.8876 186.469C73.9638 186.36 74.1489 186.443 74.2268 186.407C74.2675 186.387 74.2985 186.322 74.2548 186.212C74.2152 186.107 74.059 185.946 73.795 185.953C73.748 185.95 73.6855 185.951 73.6324 185.951C73.1865 185.959 72.6043 186.05 72.0127 186.187C70.8202 186.463 69.634 186.748 68.4465 187.011C67.8461 187.143 67.2443 187.272 66.6472 187.382C66.0849 187.475 65.7047 188.089 65.8624 188.633C66.0045 189.171 66.1276 189.72 66.2357 190.271C66.4317 191.274 66.576 192.289 66.6424 193.302C66.6491 193.406 66.6551 193.511 66.66 193.615C66.6626 193.843 66.6606 194.071 66.654 194.292C66.6368 194.912 66.599 195.48 66.5521 195.908C66.4998 196.391 66.4536 196.734 66.402 197.028C66.3662 197.23 66.327 197.407 66.2732 197.582C66.2442 197.677 66.2022 197.804 66.1454 197.957C65.9271 198.582 65.3863 199.603 64.8393 200.535C64.6087 200.935 64.3385 201.401 64.075 201.849C64.0747 201.851 64.0724 201.855 64.07 201.86C64.0692 201.861 64.0683 201.863 64.0676 201.864C63.5431 202.503 63.2382 203.22 63.1099 203.588C62.8615 204.239 62.8032 205.075 62.9727 205.77C63.1239 206.439 63.4517 206.954 63.6497 207.232C63.8887 207.565 64.1553 207.819 64.6245 208.066C64.9503 208.229 65.3931 208.393 66.0073 208.381C66.063 208.38 66.1178 208.377 66.1714 208.372C66.6838 208.33 67.0889 208.314 67.4297 208.297C67.9516 208.274 68.3418 208.262 68.9265 208.293C69.5767 208.329 70.255 208.362 70.7928 208.369C71.0339 208.371 71.3172 208.381 71.6052 208.391C71.992 208.406 72.3961 208.422 72.7634 208.426C73.0696 208.43 73.3196 208.42 73.5439 208.411C73.6136 208.408 73.6817 208.406 73.7457 208.404C73.9864 208.415 74.2309 208.427 74.4721 208.439C74.5111 208.445 74.5521 208.45 74.5949 208.456C74.8099 208.487 75.0743 208.524 75.4021 208.554C75.9211 208.601 76.3785 208.616 76.8594 208.634C77.2354 208.647 77.626 208.663 78.071 208.698C78.377 208.722 78.7197 208.756 79.0645 208.792C79.5713 208.844 80.0764 208.9 80.4239 208.923C80.5518 208.932 80.6705 208.93 80.7821 208.927C80.7826 208.927 80.7831 208.927 80.7836 208.927C80.7913 208.927 80.7989 208.927 80.8066 208.926C81.5724 209.009 82.3384 209.101 83.0923 209.213C83.1545 209.221 83.2133 209.223 83.2733 209.219C83.3253 209.216 83.3762 209.212 83.4261 209.208C83.5047 209.204 83.5795 209.199 83.6556 209.193C84.0388 209.163 84.4204 209.093 84.6832 209.013C84.8126 208.97 85.0898 208.897 85.3807 208.595C85.7141 208.282 85.729 207.623 85.5621 207.262C85.3612 206.751 85.059 206.381 84.8218 206.075C84.6794 205.897 84.5286 205.753 84.3696 205.606C84.2227 205.471 84.0698 205.335 83.915 205.176C83.8379 205.097 83.7561 205.009 83.6697 204.916C83.5933 204.834 83.5126 204.748 83.4265 204.66C83.3466 204.578 83.1578 204.406 82.9198 204.188C82.8193 204.095 82.7087 203.993 82.5965 203.886C82.5396 203.832 82.4806 203.778 82.4199 203.724C81.9231 203.253 81.3571 202.871 80.7666 202.558C80.648 202.483 80.5461 202.416 80.4677 202.357C80.4115 202.315 80.3654 202.275 80.3174 202.235C80.2521 202.179 80.1843 202.123 80.0834 202.059C80.0046 202.01 79.9066 201.964 79.8366 201.943C79.8041 201.934 79.7779 201.93 79.7542 201.926C79.727 201.922 79.7029 201.918 79.6755 201.908C79.6558 201.9 79.6366 201.889 79.613 201.875C79.5752 201.852 79.5261 201.823 79.446 201.795C79.1474 201.688 78.804 201.583 78.467 201.493C78.0919 201.392 77.7262 201.309 77.4351 201.24C77.1091 201.163 76.6417 201.085 76.1826 201.013C76.1196 201.002 76.0535 200.992 75.9924 200.982C76.0568 201.005 76.0721 201.062 76.0654 201.092C76.0651 201.093 76.0648 201.095 76.0644 201.097C76.0981 200.831 76.1404 200.564 76.1795 200.299C76.2287 199.965 76.2713 199.647 76.2838 199.372C76.2862 199.316 76.2761 199.246 76.2631 199.159C76.2538 199.098 76.2432 199.025 76.2345 198.944C76.2635 198.596 76.2872 198.248 76.3055 197.901C76.3084 197.889 76.3114 197.876 76.3144 197.864C76.3145 197.864 76.3145 197.864 76.3146 197.863C76.3828 197.58 76.4745 197.19 76.4446 196.637C76.4368 196.499 76.4182 196.407 76.4012 196.328C76.3845 196.249 76.3695 196.179 76.367 196.078C76.3641 195.964 76.3757 195.825 76.3872 195.676C76.4034 195.467 76.4195 195.231 76.3971 194.997C76.3956 194.981 76.3939 194.964 76.3922 194.946C76.3762 194.779 76.3504 194.522 76.3032 194.276C76.2625 193.534 76.1969 192.794 76.1037 192.054C75.948 190.826 75.7206 189.598 75.3848 188.399C75.221 187.815 74.9921 187.27 74.7598 186.898C74.527 186.522 74.3191 186.355 74.2268 186.407C74.1298 186.454 74.146 186.701 74.2186 187.109C74.2916 187.514 74.4134 188.054 74.5476 188.618C74.7673 189.538 74.9202 190.476 75.0304 191.422C75.0348 191.472 75.0392 191.521 75.0436 191.571C75.0765 191.943 75.0838 192.286 75.086 192.633C75.0866 192.713 75.0867 192.792 75.0868 192.871Z" fill="black"/>
<ellipse cx="47.0577" cy="159.137" rx="1.57961" ry="2.64493" fill="black"/>
<path d="M48.6058 159.701L49.0092 159.723L48.6058 159.701ZM48.5053 160.055L48.15 159.862L48.5053 160.055ZM48.3253 160.387L48.6806 160.579L48.3253 160.387ZM48.1509 160.709L47.7958 160.516L48.1509 160.709ZM48.0664 160.864L47.7113 160.671L48.0664 160.864ZM47.9819 161.02L48.3371 161.213L47.9819 161.02ZM47.7868 161.337L47.4537 161.108L47.7868 161.337ZM47.6762 161.498L47.343 161.269L47.6762 161.498ZM47.5655 161.659L47.8986 161.888L47.5655 161.659ZM47.284 161.736L47.462 161.373L47.284 161.736ZM46.9422 161.569L46.7643 161.931L46.9422 161.569ZM46.5952 161.43L46.4762 161.817L46.5952 161.43ZM46.2428 161.322L46.1238 161.708L46.2428 161.322ZM46.0405 161.075L45.6401 161.13L46.0405 161.075ZM45.988 160.691L45.5876 160.745L45.988 160.691ZM45.5587 160.036L45.2542 160.302L45.5587 160.036ZM45.5193 159.306L45.1206 159.241L45.5193 159.306ZM45.7513 157.856L45.4339 157.606L45.7513 157.856ZM45.9731 157.549L45.6342 157.328L45.9731 157.549ZM46.1648 157.253L45.8259 157.033L46.1648 157.253ZM46.4651 156.755L46.8141 156.959L46.4651 156.755ZM46.5673 156.58L46.2183 156.377L46.5673 156.58ZM47.6978 156.525L47.9575 156.216L47.6978 156.525ZM47.8593 156.661L47.5995 156.97L47.8593 156.661ZM48.0208 156.796L48.2805 156.487L48.0208 156.796ZM48.1908 157.142L47.787 157.159L48.1908 157.142ZM48.2077 157.563L48.6115 157.547L48.2077 157.563ZM48.2944 157.94L47.9285 158.112L48.2944 157.94ZM48.4509 158.274L48.8168 158.103L48.4509 158.274ZM48.5869 158.615L48.2035 158.742L48.5869 158.615ZM48.7026 158.963L49.086 158.835L48.7026 158.963ZM48.6268 159.325L48.2234 159.302L48.6268 159.325ZM48.6163 159.513L48.2128 159.49L48.2023 159.678L48.6058 159.701L49.0092 159.723L49.0197 159.535L48.6163 159.513ZM48.6058 159.701L48.2023 159.678C48.1986 159.744 48.1817 159.804 48.15 159.862L48.5053 160.055L48.8606 160.247C48.9488 160.084 48.9989 159.908 49.0092 159.723L48.6058 159.701ZM48.5053 160.055L48.15 159.862L48.06 160.028L48.4153 160.221L48.7706 160.413L48.8606 160.247L48.5053 160.055ZM48.4153 160.221L48.06 160.028L47.97 160.194L48.3253 160.387L48.6806 160.579L48.7706 160.413L48.4153 160.221ZM48.3253 160.387L47.97 160.194C47.9101 160.305 47.852 160.412 47.7958 160.516L48.1509 160.709L48.506 160.901C48.5624 160.797 48.6206 160.69 48.6806 160.579L48.3253 160.387ZM48.1509 160.709L47.7958 160.516L47.7113 160.671L48.0664 160.864L48.4216 161.057L48.506 160.901L48.1509 160.709ZM48.0664 160.864L47.7113 160.671L47.6268 160.827L47.9819 161.02L48.3371 161.213L48.4216 161.057L48.0664 160.864ZM47.9819 161.02L47.6268 160.827C47.5778 160.917 47.5203 161.011 47.4537 161.108L47.7868 161.337L48.1199 161.565C48.2009 161.447 48.2734 161.33 48.3371 161.213L47.9819 161.02ZM47.7868 161.337L47.4537 161.108L47.343 161.269L47.6762 161.498L48.0093 161.726L48.1199 161.565L47.7868 161.337ZM47.6762 161.498L47.343 161.269L47.2324 161.43L47.5655 161.659L47.8986 161.888L48.0093 161.726L47.6762 161.498ZM47.5655 161.659L47.2324 161.43C47.2311 161.432 47.2605 161.389 47.3328 161.369C47.4068 161.349 47.4579 161.371 47.462 161.373L47.284 161.736L47.106 162.099C47.224 162.157 47.3789 162.195 47.5468 162.148C47.7129 162.103 47.8262 161.993 47.8986 161.888L47.5655 161.659ZM47.284 161.736L47.462 161.373L47.2911 161.29L47.1131 161.652L46.9351 162.015L47.106 162.099L47.284 161.736ZM47.1131 161.652L47.2911 161.29L47.1202 161.206L46.9422 161.569L46.7643 161.931L46.9351 162.015L47.1131 161.652ZM46.9422 161.569L47.1202 161.206C46.9879 161.141 46.8525 161.087 46.7142 161.044L46.5952 161.43L46.4762 161.817C46.5728 161.846 46.6687 161.885 46.7643 161.931L46.9422 161.569ZM46.5952 161.43L46.7142 161.044L46.538 160.99L46.419 161.376L46.3 161.762L46.4762 161.817L46.5952 161.43ZM46.419 161.376L46.538 160.99L46.3618 160.936L46.2428 161.322L46.1238 161.708L46.3 161.762L46.419 161.376ZM46.2428 161.322L46.3618 160.936C46.3668 160.937 46.3925 160.947 46.4165 160.977C46.4396 161.005 46.4417 161.027 46.4408 161.021L46.0405 161.075L45.6401 161.13C45.6567 161.252 45.7013 161.379 45.7918 161.489C45.8833 161.601 46.0014 161.67 46.1238 161.708L46.2428 161.322ZM46.0405 161.075L46.4408 161.021L46.4146 160.828L46.0142 160.883L45.6138 160.937L45.6401 161.13L46.0405 161.075ZM46.0142 160.883L46.4146 160.828L46.3884 160.636L45.988 160.691L45.5876 160.745L45.6138 160.937L46.0142 160.883ZM45.988 160.691L46.3884 160.636C46.3597 160.425 46.2705 160.237 46.1319 160.078L45.8274 160.344L45.523 160.61C45.5635 160.656 45.5814 160.699 45.5876 160.745L45.988 160.691ZM45.8274 160.344L46.1319 160.078L45.9975 159.925L45.6931 160.19L45.3886 160.456L45.523 160.61L45.8274 160.344ZM45.6931 160.19L45.9975 159.925L45.8632 159.771L45.5587 160.036L45.2542 160.302L45.3886 160.456L45.6931 160.19ZM45.5587 160.036L45.8632 159.771C45.8571 159.764 45.8543 159.759 45.8533 159.757C45.8523 159.756 45.8527 159.756 45.8532 159.758C45.8538 159.76 45.854 159.761 45.854 159.762C45.8541 159.763 45.8539 159.761 45.8547 159.756L45.456 159.69L45.0573 159.625C45.0155 159.878 45.09 160.114 45.2542 160.302L45.5587 160.036ZM45.456 159.69L45.8547 159.756L45.8863 159.564L45.4876 159.498L45.0889 159.433L45.0573 159.625L45.456 159.69ZM45.4876 159.498L45.8863 159.564L45.918 159.372L45.5193 159.306L45.1206 159.241L45.0889 159.433L45.4876 159.498ZM45.5193 159.306L45.918 159.372C45.9478 159.191 45.9415 159.01 45.9007 158.83L45.5066 158.92L45.1126 159.009C45.1309 159.09 45.1329 159.166 45.1206 159.241L45.5193 159.306ZM45.5066 158.92L45.9007 158.83L45.8564 158.635L45.4623 158.725L45.0683 158.815L45.1126 159.009L45.5066 158.92ZM45.4623 158.725L45.8564 158.635L45.812 158.441L45.418 158.53L45.024 158.62L45.0683 158.815L45.4623 158.725ZM45.418 158.53L45.812 158.441C45.8106 158.434 45.8106 158.431 45.8106 158.431C45.8106 158.431 45.8106 158.431 45.8105 158.432C45.8104 158.433 45.8103 158.434 45.8101 158.435C45.8096 158.437 45.8091 158.438 45.8095 158.437C45.81 158.436 45.812 158.432 45.817 158.426L45.4996 158.176L45.1822 157.925C45.0243 158.126 44.9668 158.368 45.024 158.62L45.418 158.53ZM45.4996 158.176L45.817 158.426L45.9429 158.266L45.6255 158.016L45.308 157.766L45.1822 157.925L45.4996 158.176ZM45.6255 158.016L45.9429 158.266L46.0688 158.106L45.7513 157.856L45.4339 157.606L45.308 157.766L45.6255 158.016ZM45.7513 157.856L46.0688 158.106C46.1592 157.991 46.2404 157.879 46.312 157.769L45.9731 157.549L45.6342 157.328C45.5779 157.415 45.5114 157.508 45.4339 157.606L45.7513 157.856ZM45.9731 157.549L46.312 157.769L46.4078 157.621L46.0689 157.401L45.7301 157.181L45.6342 157.328L45.9731 157.549ZM46.0689 157.401L46.4078 157.621L46.5037 157.473L46.1648 157.253L45.8259 157.033L45.7301 157.181L46.0689 157.401ZM46.1648 157.253L46.5037 157.473C46.5716 157.369 46.641 157.256 46.7119 157.134L46.3629 156.931L46.0139 156.727C45.9485 156.839 45.8859 156.941 45.8259 157.033L46.1648 157.253ZM46.3629 156.931L46.7119 157.134L46.8141 156.959L46.4651 156.755L46.1161 156.552L46.0139 156.727L46.3629 156.931ZM46.4651 156.755L46.8141 156.959L46.9163 156.784L46.5673 156.58L46.2183 156.377L46.1161 156.552L46.4651 156.755ZM46.5673 156.58L46.9163 156.784C46.9177 156.781 46.9169 156.783 46.9129 156.788C46.9086 156.792 46.9028 156.797 46.8958 156.8C46.889 156.804 46.884 156.806 46.8823 156.806C46.8809 156.807 46.8841 156.806 46.8933 156.805L46.8862 156.401L46.879 155.997C46.6052 156.002 46.3633 156.128 46.2183 156.377L46.5673 156.58ZM46.8862 156.401L46.8933 156.805L47.11 156.802L47.1028 156.397L47.0957 155.993L46.879 155.997L46.8862 156.401ZM47.1028 156.397L47.11 156.802L47.3267 156.798L47.3195 156.394L47.3124 155.99L47.0957 155.993L47.1028 156.397ZM47.3195 156.394L47.3267 156.798C47.3767 156.797 47.4072 156.809 47.438 156.835L47.6978 156.525L47.9575 156.216C47.7729 156.061 47.5513 155.985 47.3124 155.99L47.3195 156.394ZM47.6978 156.525L47.438 156.835L47.5995 156.97L47.8593 156.661L48.119 156.351L47.9575 156.216L47.6978 156.525ZM47.8593 156.661L47.5995 156.97L47.761 157.106L48.0208 156.796L48.2805 156.487L48.119 156.351L47.8593 156.661ZM48.0208 156.796L47.761 157.106C47.7759 157.118 47.7801 157.126 47.7814 157.129C47.7827 157.132 47.7862 157.139 47.787 157.159L48.1908 157.142L48.5945 157.126C48.5843 156.872 48.4752 156.65 48.2805 156.487L48.0208 156.796ZM48.1908 157.142L47.787 157.159L47.7955 157.369L48.1993 157.353L48.603 157.336L48.5945 157.126L48.1908 157.142ZM48.1993 157.353L47.7955 157.369L47.804 157.579L48.2077 157.563L48.6115 157.547L48.603 157.336L48.1993 157.353ZM48.2077 157.563L47.804 157.579C47.8115 157.765 47.8506 157.945 47.9285 158.112L48.2944 157.94L48.6604 157.769C48.634 157.712 48.6153 157.641 48.6115 157.547L48.2077 157.563ZM48.2944 157.94L47.9285 158.112L48.0068 158.278L48.3727 158.107L48.7386 157.936L48.6604 157.769L48.2944 157.94ZM48.3727 158.107L48.0068 158.278L48.085 158.445L48.4509 158.274L48.8168 158.103L48.7386 157.936L48.3727 158.107ZM48.4509 158.274L48.085 158.445C48.1305 158.543 48.1699 158.641 48.2035 158.742L48.5869 158.615L48.9704 158.487C48.9268 158.356 48.8756 158.228 48.8168 158.103L48.4509 158.274ZM48.5869 158.615L48.2035 158.742L48.2613 158.916L48.6448 158.789L49.0282 158.661L48.9704 158.487L48.5869 158.615ZM48.6448 158.789L48.2613 158.916L48.3191 159.09L48.7026 158.963L49.086 158.835L49.0282 158.661L48.6448 158.789ZM48.7026 158.963L48.3191 159.09C48.3372 159.145 48.3399 159.161 48.339 159.155C48.3384 159.152 48.337 159.142 48.3364 159.127C48.336 159.115 48.3356 159.085 48.3431 159.047C48.3499 159.013 48.3699 158.936 48.4364 158.863C48.5155 158.775 48.6244 158.733 48.7296 158.733V159.137V159.541C48.84 159.541 48.9531 159.496 49.0354 159.405C49.1052 159.328 49.1276 159.246 49.1358 159.204C49.1516 159.125 49.1413 159.056 49.1375 159.031C49.1276 158.967 49.1065 158.897 49.086 158.835L48.7026 158.963ZM48.7296 159.137V158.733H48.6989V159.137V159.541H48.7296V159.137ZM48.6989 159.137V158.733H48.6681V159.137V159.541H48.6989V159.137ZM48.6681 159.137V158.733C48.4294 158.733 48.3206 158.916 48.2994 158.954C48.2676 159.013 48.254 159.069 48.2477 159.097C48.2337 159.161 48.2272 159.234 48.2234 159.302L48.6268 159.325L49.0303 159.347C49.0335 159.29 49.0374 159.269 49.0371 159.27C49.0367 159.272 49.0351 159.279 49.0318 159.289C49.0287 159.299 49.0217 159.318 49.0085 159.342C48.9965 159.364 48.9695 159.408 48.9192 159.45C48.8637 159.496 48.7775 159.541 48.6681 159.541V159.137ZM48.6268 159.325L48.2234 159.302L48.2128 159.49L48.6163 159.513L49.0197 159.535L49.0303 159.347L48.6268 159.325Z" fill="black"/>
<ellipse cx="60.5028" cy="159.137" rx="1.57961" ry="2.64493" fill="black"/>
<path d="M62.0508 159.701L62.4543 159.723L62.0508 159.701ZM61.9503 160.055L61.595 159.862L61.9503 160.055ZM61.7704 160.387L62.1257 160.579L61.7704 160.387ZM61.596 160.709L61.2408 160.516L61.596 160.709ZM61.5115 160.864L61.1563 160.671L61.5115 160.864ZM61.427 161.02L61.7821 161.213L61.427 161.02ZM61.2319 161.337L60.8988 161.108L61.2319 161.337ZM61.1212 161.498L60.7881 161.269L61.1212 161.498ZM61.0106 161.659L61.3437 161.888L61.0106 161.659ZM60.7291 161.736L60.907 161.373L60.7291 161.736ZM60.3873 161.569L60.2093 161.931L60.3873 161.569ZM60.0403 161.43L59.9213 161.817L60.0403 161.43ZM59.6879 161.322L59.5689 161.708L59.6879 161.322ZM59.4855 161.075L59.0851 161.13L59.4855 161.075ZM59.4331 160.691L59.0327 160.745L59.4331 160.691ZM59.0038 160.036L58.6993 160.302L59.0038 160.036ZM58.9644 159.306L58.5657 159.241L58.9644 159.306ZM59.1964 157.856L58.879 157.606L59.1964 157.856ZM59.4182 157.549L59.0793 157.328L59.4182 157.549ZM59.6099 157.253L59.271 157.033L59.6099 157.253ZM59.9101 156.755L60.2591 156.959L59.9101 156.755ZM60.0123 156.58L59.6633 156.377L60.0123 156.58ZM61.1428 156.525L61.4026 156.216L61.1428 156.525ZM61.3043 156.661L61.0446 156.97L61.3043 156.661ZM61.4658 156.796L61.7256 156.487L61.4658 156.796ZM61.6358 157.142L61.2321 157.159L61.6358 157.142ZM61.6528 157.563L62.0566 157.547L61.6528 157.563ZM61.7395 157.94L61.3736 158.112L61.7395 157.94ZM61.896 158.274L62.2619 158.103L61.896 158.274ZM62.032 158.615L61.6486 158.742L62.032 158.615ZM62.1476 158.963L62.5311 158.835L62.1476 158.963ZM62.0719 159.325L61.6684 159.302L62.0719 159.325ZM62.0614 159.513L61.6579 159.49L61.6474 159.678L62.0508 159.701L62.4543 159.723L62.4648 159.535L62.0614 159.513ZM62.0508 159.701L61.6474 159.678C61.6437 159.744 61.6267 159.804 61.595 159.862L61.9503 160.055L62.3056 160.247C62.3939 160.084 62.4439 159.908 62.4543 159.723L62.0508 159.701ZM61.9503 160.055L61.595 159.862L61.5051 160.028L61.8604 160.221L62.2157 160.413L62.3056 160.247L61.9503 160.055ZM61.8604 160.221L61.5051 160.028L61.4151 160.194L61.7704 160.387L62.1257 160.579L62.2157 160.413L61.8604 160.221ZM61.7704 160.387L61.4151 160.194C61.3552 160.305 61.2971 160.412 61.2408 160.516L61.596 160.709L61.9511 160.901C62.0075 160.797 62.0657 160.69 62.1257 160.579L61.7704 160.387ZM61.596 160.709L61.2408 160.516L61.1563 160.671L61.5115 160.864L61.8666 161.057L61.9511 160.901L61.596 160.709ZM61.5115 160.864L61.1563 160.671L61.0719 160.827L61.427 161.02L61.7821 161.213L61.8666 161.057L61.5115 160.864ZM61.427 161.02L61.0719 160.827C61.0229 160.917 60.9654 161.011 60.8988 161.108L61.2319 161.337L61.565 161.565C61.6459 161.447 61.7185 161.33 61.7821 161.213L61.427 161.02ZM61.2319 161.337L60.8988 161.108L60.7881 161.269L61.1212 161.498L61.4544 161.726L61.565 161.565L61.2319 161.337ZM61.1212 161.498L60.7881 161.269L60.6775 161.43L61.0106 161.659L61.3437 161.888L61.4544 161.726L61.1212 161.498ZM61.0106 161.659L60.6775 161.43C60.6761 161.432 60.7056 161.389 60.7778 161.369C60.8519 161.349 60.9029 161.371 60.907 161.373L60.7291 161.736L60.5511 162.099C60.6691 162.157 60.824 162.195 60.9919 162.148C61.158 162.103 61.2713 161.993 61.3437 161.888L61.0106 161.659ZM60.7291 161.736L60.907 161.373L60.7361 161.29L60.5582 161.652L60.3802 162.015L60.5511 162.099L60.7291 161.736ZM60.5582 161.652L60.7361 161.29L60.5653 161.206L60.3873 161.569L60.2093 161.931L60.3802 162.015L60.5582 161.652ZM60.3873 161.569L60.5653 161.206C60.433 161.141 60.2976 161.087 60.1593 161.044L60.0403 161.43L59.9213 161.817C60.0178 161.846 60.1138 161.885 60.2093 161.931L60.3873 161.569ZM60.0403 161.43L60.1593 161.044L59.9831 160.99L59.8641 161.376L59.7451 161.762L59.9213 161.817L60.0403 161.43ZM59.8641 161.376L59.9831 160.99L59.8069 160.936L59.6879 161.322L59.5689 161.708L59.7451 161.762L59.8641 161.376ZM59.6879 161.322L59.8069 160.936C59.8119 160.937 59.8376 160.947 59.8616 160.977C59.8847 161.005 59.8867 161.027 59.8859 161.021L59.4855 161.075L59.0851 161.13C59.1018 161.252 59.1463 161.379 59.2368 161.489C59.3284 161.601 59.4465 161.67 59.5689 161.708L59.6879 161.322ZM59.4855 161.075L59.8859 161.021L59.8597 160.828L59.4593 160.883L59.0589 160.937L59.0851 161.13L59.4855 161.075ZM59.4593 160.883L59.8597 160.828L59.8335 160.636L59.4331 160.691L59.0327 160.745L59.0589 160.937L59.4593 160.883ZM59.4331 160.691L59.8335 160.636C59.8047 160.425 59.7156 160.237 59.577 160.078L59.2725 160.344L58.968 160.61C59.0086 160.656 59.0265 160.699 59.0327 160.745L59.4331 160.691ZM59.2725 160.344L59.577 160.078L59.4426 159.925L59.1381 160.19L58.8337 160.456L58.968 160.61L59.2725 160.344ZM59.1381 160.19L59.4426 159.925L59.3082 159.771L59.0038 160.036L58.6993 160.302L58.8337 160.456L59.1381 160.19ZM59.0038 160.036L59.3082 159.771C59.3021 159.764 59.2993 159.759 59.2983 159.757C59.2974 159.756 59.2977 159.756 59.2983 159.758C59.2989 159.76 59.2991 159.761 59.2991 159.762C59.2992 159.763 59.299 159.761 59.2998 159.756L58.9011 159.69L58.5024 159.625C58.4605 159.878 58.5351 160.114 58.6993 160.302L59.0038 160.036ZM58.9011 159.69L59.2998 159.756L59.3314 159.564L58.9327 159.498L58.534 159.433L58.5024 159.625L58.9011 159.69ZM58.9327 159.498L59.3314 159.564L59.3631 159.372L58.9644 159.306L58.5657 159.241L58.534 159.433L58.9327 159.498ZM58.9644 159.306L59.3631 159.372C59.3929 159.191 59.3865 159.01 59.3457 158.83L58.9517 158.92L58.5577 159.009C58.5759 159.09 58.578 159.166 58.5657 159.241L58.9644 159.306ZM58.9517 158.92L59.3457 158.83L59.3014 158.635L58.9074 158.725L58.5134 158.815L58.5577 159.009L58.9517 158.92ZM58.9074 158.725L59.3014 158.635L59.2571 158.441L58.8631 158.53L58.4691 158.62L58.5134 158.815L58.9074 158.725ZM58.8631 158.53L59.2571 158.441C59.2557 158.434 59.2556 158.431 59.2556 158.431C59.2556 158.431 59.2557 158.431 59.2556 158.432C59.2555 158.433 59.2553 158.434 59.2551 158.435C59.2547 158.437 59.2542 158.438 59.2546 158.437C59.2551 158.436 59.2571 158.432 59.2621 158.426L58.9447 158.176L58.6272 157.925C58.4694 158.126 58.4119 158.368 58.4691 158.62L58.8631 158.53ZM58.9447 158.176L59.2621 158.426L59.388 158.266L59.0705 158.016L58.7531 157.766L58.6272 157.925L58.9447 158.176ZM59.0705 158.016L59.388 158.266L59.5138 158.106L59.1964 157.856L58.879 157.606L58.7531 157.766L59.0705 158.016ZM59.1964 157.856L59.5138 158.106C59.6042 157.991 59.6855 157.879 59.757 157.769L59.4182 157.549L59.0793 157.328C59.023 157.415 58.9564 157.508 58.879 157.606L59.1964 157.856ZM59.4182 157.549L59.757 157.769L59.8529 157.621L59.514 157.401L59.1751 157.181L59.0793 157.328L59.4182 157.549ZM59.514 157.401L59.8529 157.621L59.9488 157.473L59.6099 157.253L59.271 157.033L59.1751 157.181L59.514 157.401ZM59.6099 157.253L59.9488 157.473C60.0167 157.369 60.0861 157.256 60.1569 157.134L59.8079 156.931L59.4589 156.727C59.3936 156.839 59.3309 156.941 59.271 157.033L59.6099 157.253ZM59.8079 156.931L60.1569 157.134L60.2591 156.959L59.9101 156.755L59.5611 156.552L59.4589 156.727L59.8079 156.931ZM59.9101 156.755L60.2591 156.959L60.3613 156.784L60.0123 156.58L59.6633 156.377L59.5611 156.552L59.9101 156.755ZM60.0123 156.58L60.3613 156.784C60.3628 156.781 60.362 156.783 60.3579 156.788C60.3537 156.792 60.3478 156.797 60.3409 156.8C60.3341 156.804 60.329 156.806 60.3273 156.806C60.326 156.807 60.3292 156.806 60.3384 156.805L60.3312 156.401L60.324 155.997C60.0502 156.002 59.8083 156.128 59.6633 156.377L60.0123 156.58ZM60.3312 156.401L60.3384 156.805L60.5551 156.802L60.5479 156.397L60.5407 155.993L60.324 155.997L60.3312 156.401ZM60.5479 156.397L60.5551 156.802L60.7718 156.798L60.7646 156.394L60.7574 155.99L60.5407 155.993L60.5479 156.397ZM60.7646 156.394L60.7718 156.798C60.8218 156.797 60.8523 156.809 60.883 156.835L61.1428 156.525L61.4026 156.216C61.218 156.061 60.9964 155.985 60.7574 155.99L60.7646 156.394ZM61.1428 156.525L60.883 156.835L61.0446 156.97L61.3043 156.661L61.5641 156.351L61.4026 156.216L61.1428 156.525ZM61.3043 156.661L61.0446 156.97L61.2061 157.106L61.4658 156.796L61.7256 156.487L61.5641 156.351L61.3043 156.661ZM61.4658 156.796L61.2061 157.106C61.221 157.118 61.2252 157.126 61.2264 157.129C61.2277 157.132 61.2313 157.139 61.2321 157.159L61.6358 157.142L62.0396 157.126C62.0293 156.872 61.9202 156.65 61.7256 156.487L61.4658 156.796ZM61.6358 157.142L61.2321 157.159L61.2406 157.369L61.6443 157.353L62.0481 157.336L62.0396 157.126L61.6358 157.142ZM61.6443 157.353L61.2406 157.369L61.249 157.579L61.6528 157.563L62.0566 157.547L62.0481 157.336L61.6443 157.353ZM61.6528 157.563L61.249 157.579C61.2566 157.765 61.2956 157.945 61.3736 158.112L61.7395 157.94L62.1054 157.769C62.0791 157.712 62.0604 157.641 62.0566 157.547L61.6528 157.563ZM61.7395 157.94L61.3736 158.112L61.4518 158.278L61.8177 158.107L62.1837 157.936L62.1054 157.769L61.7395 157.94ZM61.8177 158.107L61.4518 158.278L61.53 158.445L61.896 158.274L62.2619 158.103L62.1837 157.936L61.8177 158.107ZM61.896 158.274L61.53 158.445C61.5755 158.543 61.615 158.641 61.6486 158.742L62.032 158.615L62.4155 158.487C62.3719 158.356 62.3207 158.228 62.2619 158.103L61.896 158.274ZM62.032 158.615L61.6486 158.742L61.7064 158.916L62.0898 158.789L62.4733 158.661L62.4155 158.487L62.032 158.615ZM62.0898 158.789L61.7064 158.916L61.7642 159.09L62.1476 158.963L62.5311 158.835L62.4733 158.661L62.0898 158.789ZM62.1476 158.963L61.7642 159.09C61.7822 159.145 61.785 159.161 61.784 159.155C61.7835 159.152 61.7821 159.142 61.7815 159.127C61.781 159.115 61.7806 159.085 61.7882 159.047C61.7949 159.013 61.815 158.936 61.8815 158.863C61.9606 158.775 62.0694 158.733 62.1747 158.733V159.137V159.541C62.2851 159.541 62.3981 159.496 62.4805 159.405C62.5503 159.328 62.5727 159.246 62.5809 159.204C62.5967 159.125 62.5864 159.056 62.5826 159.031C62.5726 158.967 62.5516 158.897 62.5311 158.835L62.1476 158.963ZM62.1747 159.137V158.733H62.1439V159.137V159.541H62.1747V159.137ZM62.1439 159.137V158.733H62.1132V159.137V159.541H62.1439V159.137ZM62.1132 159.137V158.733C61.8745 158.733 61.7657 158.916 61.7445 158.954C61.7127 159.013 61.699 159.069 61.6928 159.097C61.6787 159.161 61.6722 159.234 61.6684 159.302L62.0719 159.325L62.4753 159.347C62.4785 159.29 62.4824 159.269 62.4821 159.27C62.4817 159.272 62.4802 159.279 62.4768 159.289C62.4738 159.299 62.4668 159.318 62.4536 159.342C62.4415 159.364 62.4146 159.408 62.3643 159.45C62.3088 159.496 62.2226 159.541 62.1132 159.541V159.137ZM62.0719 159.325L61.6684 159.302L61.6579 159.49L62.0614 159.513L62.4648 159.535L62.4753 159.347L62.0719 159.325Z" fill="black"/>
<path d="M43.8724 165.325L44.3494 164.867L44.2954 164.811L44.2298 164.769L43.8724 165.325ZM45.3781 166.538L45.0486 167.111L45.3781 166.538ZM45.9029 166.797L45.6479 167.407L45.9029 166.797ZM46.1734 166.91L45.9184 167.52L46.1734 166.91ZM46.4438 167.023L46.6988 166.413L46.4438 167.023ZM46.956 167.297L47.3231 166.747L46.956 167.297ZM47.1977 167.458L46.8307 168.008L47.1977 167.458ZM47.9214 167.956L47.5315 168.49L47.9214 167.956ZM48.4021 168.307L48.792 167.773L48.4021 168.307ZM48.9198 168.579L49.1363 167.954L48.9198 168.579ZM49.1971 168.675L49.4136 168.05L49.1971 168.675ZM49.4744 168.771L49.2578 169.396L49.4744 168.771ZM50.0329 168.951L49.8436 169.585L50.0329 168.951ZM50.5954 169.119L50.7847 168.486L50.5954 169.119ZM51.1678 169.24L51.0861 169.896L51.1678 169.24ZM52.334 169.35L52.3296 170.012L52.334 169.35ZM52.6265 169.352L52.6309 168.691L52.6265 169.352ZM52.9191 169.354L52.9148 170.015L52.9191 169.354ZM53.4968 169.456L53.7154 168.832L53.4968 169.456ZM53.782 169.556L53.5634 170.18L53.782 169.556ZM54.0671 169.656L53.8486 170.28L54.0671 169.656ZM54.6456 169.731L54.5903 169.072L54.6456 169.731ZM55.2324 169.682L55.2877 170.341L55.2324 169.682ZM55.8107 169.583L55.9769 170.223L55.8107 169.583ZM57.5085 169.16L57.355 168.517L57.5085 169.16ZM58.0741 169.039L57.9507 168.389L58.0741 169.039ZM58.3586 168.985L58.482 169.634L58.3586 168.985ZM59.2022 168.781L59.4204 169.405L59.2022 168.781ZM59.4767 168.685L59.2586 168.061L59.4767 168.685ZM59.7512 168.589L59.9693 169.213L59.7512 168.589ZM60.286 168.365L59.9942 167.772L60.286 168.365ZM60.5463 168.237L60.8381 168.83L60.5463 168.237ZM60.8067 168.109L60.5149 167.516L60.8067 168.109ZM61.2959 167.801L61.705 168.32L61.2959 167.801ZM62.2537 167.145L62.5124 167.753L62.2537 167.145ZM62.5246 167.029L62.2659 166.421L62.5246 167.029ZM62.7956 166.914L63.0544 167.523L62.7956 166.914ZM63.2988 166.623L62.8991 166.096L63.2988 166.623ZM63.7633 166.27L64.163 166.797L63.7633 166.27ZM64.1798 165.865L64.6954 166.279L64.1798 165.865ZM64.9354 164.971L64.4646 164.506L64.9354 164.971ZM65.3408 164.559L64.8699 164.095L65.3408 164.559ZM65.5965 164.363L65.7063 163.711L65.5965 164.363ZM65.6497 164.372L66.2733 164.152L66.1438 163.784L65.7594 163.72L65.6497 164.372ZM65.6781 164.452L65.0544 164.672L65.3651 165.554L66.0932 164.967L65.6781 164.452ZM43.7883 165.271L43.4309 165.828L43.515 165.882L43.8724 165.325L44.2298 164.769L44.1457 164.715L43.7883 165.271ZM43.8724 165.325L43.3954 165.783L43.7669 166.17L44.2439 165.712L44.7209 165.254L44.3494 164.867L43.8724 165.325ZM44.2439 165.712L43.7669 166.17C44.0284 166.443 44.2887 166.674 44.5401 166.819L44.8696 166.245L45.1991 165.672C45.1116 165.622 44.9547 165.498 44.7209 165.254L44.2439 165.712ZM44.8696 166.245L44.5401 166.819L44.7944 166.965L45.1239 166.391L45.4534 165.818L45.1991 165.672L44.8696 166.245ZM45.1239 166.391L44.7944 166.965L45.0486 167.111L45.3781 166.538L45.7076 165.964L45.4534 165.818L45.1239 166.391ZM45.3781 166.538L45.0486 167.111C45.2422 167.222 45.442 167.321 45.6479 167.407L45.9029 166.797L46.1578 166.187C46.0031 166.122 45.8531 166.048 45.7076 165.964L45.3781 166.538ZM45.9029 166.797L45.6479 167.407L45.9184 167.52L46.1734 166.91L46.4283 166.3L46.1578 166.187L45.9029 166.797ZM46.1734 166.91L45.9184 167.52L46.1889 167.633L46.4438 167.023L46.6988 166.413L46.4283 166.3L46.1734 166.91ZM46.4438 167.023L46.1889 167.633C46.3304 167.692 46.4635 167.763 46.589 167.847L46.956 167.297L47.3231 166.747C47.1263 166.616 46.918 166.504 46.6988 166.413L46.4438 167.023ZM46.956 167.297L46.589 167.847L46.8307 168.008L47.1977 167.458L47.5648 166.908L47.3231 166.747L46.956 167.297ZM47.1977 167.458L46.8307 168.008L47.0724 168.17L47.4394 167.62L47.8064 167.07L47.5648 166.908L47.1977 167.458ZM47.4394 167.62L47.0724 168.17C47.2256 168.272 47.3787 168.379 47.5315 168.49L47.9214 167.956L48.3113 167.422C48.1438 167.3 47.9755 167.182 47.8064 167.07L47.4394 167.62ZM47.9214 167.956L47.5315 168.49L47.7719 168.666L48.1618 168.132L48.5517 167.598L48.3113 167.422L47.9214 167.956ZM48.1618 168.132L47.7719 168.666L48.0122 168.841L48.4021 168.307L48.792 167.773L48.5517 167.598L48.1618 168.132ZM48.4021 168.307L48.0122 168.841C48.2247 168.997 48.4555 169.118 48.7032 169.204L48.9198 168.579L49.1363 167.954C49.0143 167.912 48.9 167.852 48.792 167.773L48.4021 168.307ZM48.9198 168.579L48.7032 169.204L48.9805 169.3L49.1971 168.675L49.4136 168.05L49.1363 167.954L48.9198 168.579ZM49.1971 168.675L48.9805 169.3L49.2578 169.396L49.4744 168.771L49.691 168.146L49.4136 168.05L49.1971 168.675ZM49.4744 168.771L49.2578 169.396C49.4517 169.463 49.647 169.526 49.8436 169.585L50.0329 168.951L50.2222 168.318C50.0439 168.265 49.8668 168.207 49.691 168.146L49.4744 168.771ZM50.0329 168.951L49.8436 169.585L50.1249 169.669L50.3141 169.035L50.5034 168.402L50.2222 168.318L50.0329 168.951ZM50.3141 169.035L50.1249 169.669L50.4061 169.753L50.5954 169.119L50.7847 168.486L50.5034 168.402L50.3141 169.035ZM50.5954 169.119L50.4061 169.753C50.6287 169.819 50.8555 169.867 51.0861 169.896L51.1678 169.24L51.2495 168.584C51.0918 168.564 50.937 168.531 50.7847 168.486L50.5954 169.119ZM51.1678 169.24L51.0861 169.896L51.3773 169.932L51.459 169.276L51.5407 168.62L51.2495 168.584L51.1678 169.24ZM51.459 169.276L51.3773 169.932L51.6685 169.968L51.7502 169.312L51.8319 168.656L51.5407 168.62L51.459 169.276ZM51.7502 169.312L51.6685 169.968C51.8882 169.996 52.1086 170.01 52.3296 170.012L52.334 169.35L52.3383 168.689C52.1692 168.688 52.0005 168.677 51.8319 168.656L51.7502 169.312ZM52.334 169.35L52.3296 170.012L52.6222 170.014L52.6265 169.352L52.6309 168.691L52.3383 168.689L52.334 169.35ZM52.6265 169.352L52.6222 170.014L52.9148 170.015L52.9191 169.354L52.9234 168.693L52.6309 168.691L52.6265 169.352ZM52.9191 169.354L52.9148 170.015C53.0345 170.016 53.1548 170.037 53.2783 170.08L53.4968 169.456L53.7154 168.832C53.4587 168.742 53.1938 168.695 52.9234 168.693L52.9191 169.354ZM53.4968 169.456L53.2783 170.08L53.5634 170.18L53.782 169.556L54.0005 168.932L53.7154 168.832L53.4968 169.456ZM53.782 169.556L53.5634 170.18L53.8486 170.28L54.0671 169.656L54.2857 169.032L54.0005 168.932L53.782 169.556ZM54.0671 169.656L53.8486 170.28C54.1241 170.376 54.4102 170.414 54.701 170.39L54.6456 169.731L54.5903 169.072C54.4899 169.08 54.3903 169.068 54.2857 169.032L54.0671 169.656ZM54.6456 169.731L54.701 170.39L54.9943 170.365L54.939 169.706L54.8837 169.047L54.5903 169.072L54.6456 169.731ZM54.939 169.706L54.9943 170.365L55.2877 170.341L55.2324 169.682L55.1771 169.023L54.8837 169.047L54.939 169.706ZM55.2324 169.682L55.2877 170.341C55.5207 170.321 55.7506 170.282 55.9769 170.223L55.8107 169.583L55.6445 168.943C55.4909 168.983 55.3352 169.009 55.1771 169.023L55.2324 169.682ZM55.8107 169.583L55.9769 170.223L56.2619 170.149L56.0957 169.509L55.9295 168.869L55.6445 168.943L55.8107 169.583ZM56.0957 169.509L56.2619 170.149L56.5469 170.075L56.3807 169.435L56.2145 168.795L55.9295 168.869L56.0957 169.509ZM56.3807 169.435L56.5469 170.075C56.7328 170.027 56.9172 169.981 57.1002 169.937L56.9467 169.294L56.7931 168.651C56.6015 168.697 56.4087 168.745 56.2145 168.795L56.3807 169.435ZM56.9467 169.294L57.1002 169.937L57.3812 169.87L57.2276 169.227L57.0741 168.584L56.7931 168.651L56.9467 169.294ZM57.2276 169.227L57.3812 169.87L57.6621 169.803L57.5085 169.16L57.355 168.517L57.0741 168.584L57.2276 169.227ZM57.5085 169.16L57.6621 169.803C57.8393 169.761 58.0178 169.722 58.1974 169.688L58.0741 169.039L57.9507 168.389C57.7509 168.427 57.5523 168.47 57.355 168.517L57.5085 169.16ZM58.0741 169.039L58.1974 169.688L58.482 169.634L58.3586 168.985L58.2353 168.335L57.9507 168.389L58.0741 169.039ZM58.3586 168.985L58.482 169.634L58.7665 169.58L58.6432 168.931L58.5198 168.281L58.2353 168.335L58.3586 168.985ZM58.6432 168.931L58.7665 169.58C58.9886 169.538 59.2066 169.48 59.4204 169.405L59.2022 168.781L58.9841 168.156C58.8319 168.21 58.6773 168.251 58.5198 168.281L58.6432 168.931ZM59.2022 168.781L59.4204 169.405L59.6949 169.309L59.4767 168.685L59.2586 168.061L58.9841 168.156L59.2022 168.781ZM59.4767 168.685L59.6949 169.309L59.9693 169.213L59.7512 168.589L59.533 167.965L59.2586 168.061L59.4767 168.685ZM59.7512 168.589L59.9693 169.213C60.1774 169.14 60.3802 169.055 60.5777 168.958L60.286 168.365L59.9942 167.772C59.8446 167.845 59.6909 167.909 59.533 167.965L59.7512 168.589ZM60.286 168.365L60.5777 168.958L60.8381 168.83L60.5463 168.237L60.2546 167.644L59.9942 167.772L60.286 168.365ZM60.5463 168.237L60.8381 168.83L61.0984 168.702L60.8067 168.109L60.5149 167.516L60.2546 167.644L60.5463 168.237ZM60.8067 168.109L61.0984 168.702C61.3137 168.596 61.5161 168.469 61.705 168.32L61.2959 167.801L60.8869 167.281C60.7705 167.373 60.6467 167.451 60.5149 167.516L60.8067 168.109ZM61.2959 167.801L61.705 168.32L61.9339 168.14L61.5248 167.62L61.1158 167.101L60.8869 167.281L61.2959 167.801ZM61.5248 167.62L61.9339 168.14L62.1628 167.96L61.7538 167.44L61.3447 166.921L61.1158 167.101L61.5248 167.62ZM61.7538 167.44L62.1628 167.96C62.269 167.876 62.385 167.807 62.5124 167.753L62.2537 167.145L61.9949 166.536C61.761 166.636 61.5438 166.764 61.3447 166.921L61.7538 167.44ZM62.2537 167.145L62.5124 167.753L62.7834 167.638L62.5246 167.029L62.2659 166.421L61.9949 166.536L62.2537 167.145ZM62.5246 167.029L62.7834 167.638L63.0544 167.523L62.7956 166.914L62.5368 166.306L62.2659 166.421L62.5246 167.029ZM62.7956 166.914L63.0544 167.523C63.2847 167.425 63.4999 167.3 63.6985 167.15L63.2988 166.623L62.8991 166.096C62.7882 166.18 62.6679 166.25 62.5368 166.306L62.7956 166.914ZM63.2988 166.623L63.6985 167.15L63.9308 166.973L63.5311 166.447L63.1313 165.92L62.8991 166.096L63.2988 166.623ZM63.5311 166.447L63.9308 166.973L64.163 166.797L63.7633 166.27L63.3636 165.744L63.1313 165.92L63.5311 166.447ZM63.7633 166.27L64.163 166.797C64.3613 166.647 64.539 166.473 64.6954 166.279L64.1798 165.865L63.6643 165.451C63.5749 165.562 63.4749 165.659 63.3636 165.744L63.7633 166.27ZM64.1798 165.865L64.6954 166.279L64.8797 166.049L64.3641 165.635L63.8486 165.221L63.6643 165.451L64.1798 165.865ZM64.3641 165.635L64.8797 166.049L65.064 165.82L64.5485 165.406L64.0329 164.992L63.8486 165.221L64.3641 165.635ZM64.5485 165.406L65.064 165.82C65.1731 165.684 65.2873 165.556 65.4063 165.435L64.9354 164.971L64.4646 164.506C64.3134 164.66 64.1696 164.821 64.0329 164.992L64.5485 165.406ZM64.9354 164.971L65.4063 165.435L65.609 165.229L65.1381 164.765L64.6672 164.301L64.4646 164.506L64.9354 164.971ZM65.1381 164.765L65.609 165.229L65.8116 165.024L65.3408 164.559L64.8699 164.095L64.6672 164.301L65.1381 164.765ZM65.3408 164.559L65.8116 165.024C65.8398 164.995 65.8626 164.973 65.8803 164.957C65.889 164.949 65.8959 164.943 65.901 164.938C65.9036 164.936 65.9055 164.935 65.9069 164.933C65.9076 164.933 65.9081 164.932 65.9085 164.932C65.9088 164.932 65.909 164.932 65.909 164.932C65.909 164.932 65.9088 164.932 65.9084 164.932C65.908 164.933 65.9073 164.933 65.9065 164.934C65.9048 164.935 65.9019 164.937 65.8979 164.939C65.8907 164.944 65.8755 164.954 65.8534 164.965C65.8326 164.975 65.7938 164.992 65.7406 165.006C65.6893 165.018 65.5987 165.034 65.4868 165.015L65.5965 164.363L65.7063 163.711C65.4846 163.673 65.314 163.756 65.2679 163.779C65.1979 163.813 65.141 163.854 65.103 163.883C65.0247 163.943 64.9449 164.019 64.8699 164.095L65.3408 164.559ZM65.5965 164.363L65.4868 165.015L65.5399 165.024L65.6497 164.372L65.7594 163.72L65.7063 163.711L65.5965 164.363ZM65.6497 164.372L65.026 164.591L65.0544 164.672L65.6781 164.452L66.3017 164.233L66.2733 164.152L65.6497 164.372ZM65.6781 164.452L66.0932 164.967L66.171 164.904L65.7559 164.39L65.3408 163.875L65.2629 163.938L65.6781 164.452Z" fill="black"/>
</svg>
