<svg width="650" height="107" viewBox="0 0 650 107" fill="none" xmlns="http://www.w3.org/2000/svg">
<path d="M19.9224 12.0054C33.5985 11.3061 42.3404 10.9564 46.1479 10.9564C52.7528 10.9564 57.182 11.4615 59.4355 12.4717C61.7666 13.4818 62.9322 15.3468 62.9322 18.0665C62.9322 19.0766 62.8157 20.281 62.5826 21.6797C62.2717 23.9332 61.1062 25.6427 59.0858 26.8083C57.0655 27.9739 52.8306 29.4503 46.381 31.2375C45.2155 31.5483 44.6327 35.0062 44.6327 41.6111C44.6327 46.5065 44.7881 52.2567 45.0989 58.8617C45.4097 67.2538 45.5651 72.4601 45.5651 74.4804C45.5651 81.9401 44.9046 86.8355 43.5836 89.1667C42.2626 91.4201 39.6984 92.5468 35.8908 92.5468C34.5698 92.5468 33.2489 92.2749 31.9279 91.7309C30.6069 91.187 29.6744 90.5265 29.1305 89.7495C28.1203 88.1954 26.8382 78.3268 25.2841 60.1438L23.0695 33.219L15.6098 32.5196C11.336 32.1311 7.72271 30.8489 4.76991 28.6732C1.89482 26.4975 0.457275 24.0497 0.457275 21.3301C0.457275 18.2996 1.85597 16.085 4.65335 14.6863C7.52845 13.2876 12.6181 12.394 19.9224 12.0054Z" fill="#1E1E1E"/>
<path d="M137.816 4.07952C140.536 1.35984 142.478 0 143.644 0C144.421 0 146.053 0.621642 148.539 1.86493C150.171 2.71968 151.337 5.16739 152.036 9.20806C152.735 13.2487 153.396 21.9517 154.018 35.317C154.484 45.2633 154.717 52.5675 154.717 57.2299C154.717 64.2233 153.823 69.1576 152.036 72.0327C149.627 75.8402 147.024 77.744 144.227 77.744C141.74 77.744 139.526 76.2676 137.583 73.3148C135.718 70.2843 134.475 66.1659 133.853 60.9597L132.804 50.8192L119.866 52.3344C111.163 53.1892 105.568 53.6166 103.082 53.6166C101.295 53.6166 100.129 54.3548 99.5851 55.8312C99.1188 57.2299 98.8857 60.4546 98.8857 65.5054C98.8857 70.634 98.5749 74.1307 97.9533 75.9956C97.3316 77.7829 95.7775 79.4147 93.291 80.8911C90.8821 82.6006 89.1337 83.4553 88.0459 83.4553C87.1911 83.4553 86.0644 82.756 84.6657 81.3573C82.4122 79.2593 80.625 75.0632 79.304 68.7691C77.983 62.4749 76.8952 53.0726 76.0404 40.5621C75.7296 36.4437 75.5742 32.3642 75.5742 28.3235C75.5742 21.7186 76.2347 17.0951 77.5557 14.4532C78.8766 11.8112 81.169 10.4902 84.4326 10.4902C88.2401 10.4902 90.8821 11.6558 92.3585 13.9869C93.8349 16.3181 94.5731 20.3976 94.5731 26.2255C94.5731 30.4993 94.6896 33.219 94.9228 34.3845C95.1559 35.5501 95.8552 36.1329 97.0208 36.1329C97.7201 36.1329 98.9246 35.9386 100.634 35.5501C104.83 34.4622 111.319 33.5298 120.099 32.7527L133.503 31.7037V20.0479C133.503 15.6187 133.814 12.2774 134.436 10.024C135.057 7.69281 136.184 5.71133 137.816 4.07952Z" fill="#1E1E1E"/>
<path d="M210.341 45.4575C208.71 41.9608 207.35 40.2124 206.262 40.2124C205.174 40.2124 203.931 41.8831 202.532 45.2244C200.978 48.5657 200.201 50.858 200.201 52.1013C200.201 53.3446 200.939 53.9662 202.415 53.9662C203.503 53.9662 204.669 53.8108 205.912 53.5C209.564 52.5675 211.585 51.8293 211.973 51.2854C212.129 51.0523 212.206 50.7803 212.206 50.4695C212.206 49.8479 211.585 48.1772 210.341 45.4575ZM196.937 14.9194C198.958 11.8889 201.444 10.3736 204.397 10.3736C208.282 10.3736 212.323 12.8991 216.519 17.9499C219.783 21.9906 225.261 32.4808 232.954 49.4205C240.646 66.2825 244.493 76.3453 244.493 79.6089C244.493 82.3286 243.56 84.5432 241.695 86.2527C239.83 87.8845 237.344 88.7004 234.236 88.7004C232.293 88.7004 230.739 88.1177 229.573 86.9521C228.485 85.7088 227.281 83.4553 225.96 80.1917L222.58 71.683L206.961 72.6155C201.289 73.004 197.442 73.3925 195.422 73.781C193.479 74.1696 192.003 74.7912 190.993 75.646C189.983 76.423 188.856 78.016 187.613 80.4248C184.194 86.8744 180.969 90.0991 177.938 90.0991C176.073 90.0991 174.092 89.0501 171.994 86.9521L167.098 82.2898L171.178 71.1002C173.276 64.9615 177.472 55.0153 183.766 41.2614C190.138 27.4299 194.528 18.6492 196.937 14.9194Z" fill="#1E1E1E"/>
<path d="M300.017 23.195C301.493 20.553 304.058 19.232 307.71 19.232C310.973 19.232 313.46 20.281 315.17 22.3791C316.491 24.0886 317.151 28.9452 317.151 36.9488C317.151 41.0672 317.073 44.4085 316.918 46.9728C316.685 55.5203 316.219 61.5036 315.519 64.9227C314.898 68.3417 313.771 70.9837 312.139 72.8486C309.419 75.8014 306.233 77.2778 302.581 77.2778C297.997 77.2778 293.218 75.0243 288.245 70.5174C284.593 67.3315 281.912 65.7386 280.202 65.7386C277.638 65.7386 276.356 69.6238 276.356 77.3943C276.356 81.9012 275.54 85.2037 273.908 87.3017C272.276 89.3221 269.712 90.3323 266.215 90.3323C262.485 90.3323 259.999 88.2342 258.756 84.0381C257.512 79.7644 256.891 71.2945 256.891 58.6285C256.891 49.8479 257.124 43.3983 257.59 39.28C258.134 35.0839 259.066 32.0922 260.387 30.305C262.485 27.1191 265.322 25.5261 268.896 25.5261C272.393 25.5261 274.957 27.1191 276.589 30.305C278.065 33.1801 281.407 37.4539 286.613 43.1264C291.819 48.7211 295.005 51.5185 296.171 51.5185C296.404 51.5185 296.637 50.9746 296.87 49.8867C297.181 48.7988 297.414 47.3224 297.569 45.4575C297.802 43.5149 297.919 41.4946 297.919 39.3965C297.919 31.7037 298.618 26.3032 300.017 23.195Z" fill="#1E1E1E"/>
<path d="M331.04 9.90741C331.895 8.89724 334.343 8.39216 338.384 8.39216C341.57 8.39216 344.134 9.51888 346.076 11.7723C348.019 14.0258 348.99 16.9786 348.99 20.6307C349.068 25.837 350.428 28.4401 353.07 28.4401C355.168 28.4401 359.131 26.7694 364.959 23.4281C371.564 19.6206 376.887 17.7168 380.927 17.7168C385.046 17.7168 387.765 19.776 389.086 23.8943C389.319 24.5937 389.436 25.293 389.436 25.9924C389.436 28.0127 388.348 30.1496 386.172 32.403C383.997 34.5788 380.306 37.3373 375.099 40.6787L370.087 43.9423L382.209 52.3344C391.534 58.6285 396.196 64.2622 396.196 69.2353C396.196 71.0225 395.575 72.6543 394.331 74.1307C392.7 76.1511 390.679 77.1612 388.27 77.1612C384.463 77.1612 378.751 74.3638 371.136 68.7691C363.133 63.0189 358.626 60.1438 357.616 60.1438C357.072 60.1438 356.8 61.8533 356.8 65.2723C356.8 67.1373 356.916 69.313 357.149 71.7996C357.383 74.5192 357.499 76.695 357.499 78.3268C357.499 80.5025 357.227 82.0955 356.683 83.1057C356.139 84.0381 355.09 84.9317 353.536 85.7865C352.06 86.6413 350.506 87.0686 348.874 87.0686C346.543 87.0686 344.445 86.0973 342.58 84.1547C340.715 82.1344 339.394 79.2981 338.617 75.646C337.218 70.2066 335.353 59.9107 333.022 44.7582C330.691 29.6057 329.525 20.281 329.525 16.7843C329.525 13.0545 330.03 10.7622 331.04 9.90741Z" fill="#1E1E1E"/>
<path d="M441.493 14.22C443.124 13.5207 444.679 13.171 446.155 13.171C448.253 13.171 450.468 14.1035 452.799 15.9684C455.13 17.7556 458.122 20.9027 461.774 25.4096C464.571 28.984 467.135 32.0534 469.466 34.6176C471.875 37.1042 473.352 38.3475 473.896 38.3475H474.012C475.1 38.3475 477.12 35.2004 480.073 28.9063C483.958 21.0581 488.271 17.134 493.011 17.134C494.798 17.134 496.469 17.7945 498.023 19.1155C500.043 20.7473 501.054 22.8065 501.054 25.293C501.054 28.3235 499.383 33.5298 496.042 40.9118C493.089 47.6721 491.612 54.0051 491.612 59.9107C491.612 62.0864 491.729 64.7673 491.962 67.9532C492.195 71.2168 492.312 73.9753 492.312 76.2288C492.312 81.9789 491.34 87.0686 489.398 91.4978C486.911 96.3932 483.687 100.201 479.724 102.92C475.838 105.64 471.526 107 466.786 107C466.086 107 465.115 106.922 463.872 106.767C458.821 106.145 455.208 104.98 453.032 103.27C450.856 101.638 449.768 99.1518 449.768 95.8105C449.768 94.9557 449.807 94.2952 449.885 93.829C450.196 90.7208 450.856 88.817 451.866 88.1176C452.876 87.4183 455.674 86.8744 460.258 86.4858C462.823 86.2527 465.232 85.8253 467.485 85.2037C469.738 84.5044 471.059 83.8439 471.448 83.2222C472.691 81.2796 473.313 78.7542 473.313 75.646C473.313 73.0817 472.885 70.5951 472.031 68.1863C471.176 65.6997 470.049 63.8736 468.651 62.7081C467.33 61.6979 464.96 59.289 461.541 55.4815C458.199 51.6739 454.819 47.6333 451.4 43.3595C442.697 32.6362 438.346 24.5937 438.346 19.232C438.346 16.7455 439.395 15.0748 441.493 14.22Z" fill="#1E1E1E"/>
<path d="M548.31 35.7832C545.824 33.5298 544.114 32.403 543.182 32.403C542.249 32.403 540.695 33.6075 538.52 36.0163C534.09 40.9118 531.876 46.118 531.876 51.6351C531.876 54.6656 532.614 57.2687 534.09 59.4444C535.567 61.5425 537.704 62.9412 540.501 63.6405C541.667 63.9513 542.755 64.1068 543.765 64.1068C546.018 64.1068 547.883 63.1354 549.359 61.1928C551.302 58.4731 552.273 54.4325 552.273 49.0708C552.273 42.4659 550.952 38.0367 548.31 35.7832ZM524.066 23.195C527.641 19.3874 530.438 17.0563 532.459 16.2015C534.479 15.2691 537.937 14.8028 542.832 14.8028C552.079 14.8028 559.189 17.7945 564.162 23.7778C569.135 29.6834 571.622 38.1921 571.622 49.3039C571.622 56.6859 570.107 63.2909 567.076 69.1187C564.123 74.9466 560.238 78.8707 555.421 80.8911C550.914 82.756 547.339 83.6885 544.697 83.6885C541.667 83.6885 537.237 82.2509 531.41 79.3758C525.815 76.6561 521.463 72.5766 518.355 67.1373C515.247 61.6202 513.693 55.6369 513.693 49.1874C513.693 39.008 517.151 30.3439 524.066 23.195Z" fill="#1E1E1E"/>
<path d="M584.97 24.9434C586.368 22.5345 589.166 21.3301 593.362 21.3301C597.48 21.3301 600.2 22.8065 601.521 25.7593C602.92 28.6344 604.007 35.2004 604.785 45.4575C605.562 56.1808 606.921 63.6405 608.864 67.8366C610.884 72.0327 613.993 74.1307 618.189 74.1307C622.618 74.1307 625.687 72.1492 627.397 68.1863C629.184 64.1456 630.078 57.0744 630.078 46.9728C630.078 36.1718 630.932 29.9165 632.642 28.207C634.274 26.5752 636.488 25.7593 639.286 25.7593C643.093 25.7593 645.774 27.0802 647.328 29.7222C648.805 32.3642 649.543 38.8526 649.543 49.1874C649.543 60.2215 648.727 68.264 647.095 73.3148C644.764 80.1529 640.956 85.6311 635.672 89.7495C630.466 93.7901 624.677 95.8105 618.305 95.8105C615.663 95.8105 613.254 95.4996 611.079 94.878C603.23 92.7023 597.286 88.0399 593.245 80.8911C589.205 73.6645 586.446 62.5915 584.97 47.6721C584.348 41.8442 584.037 37.1042 584.037 33.4521C584.037 29.0229 584.348 26.1866 584.97 24.9434Z" fill="#1E1E1E"/>
</svg>
